<?xml version="1.0" encoding="utf-8" standalone="no"?>
<!DOCTYPE svg PUBLIC "-//W3C//DTD SVG 1.1//EN"
  "http://www.w3.org/Graphics/SVG/1.1/DTD/svg11.dtd">
<!-- Created with matplotlib (https://matplotlib.org/) -->
<svg height="184.251974pt" version="1.1" viewBox="0 0 255.118118 184.251974" width="255.118118pt" xmlns="http://www.w3.org/2000/svg" xmlns:xlink="http://www.w3.org/1999/xlink">
 <metadata>
  <rdf:RDF xmlns:cc="http://creativecommons.org/ns#" xmlns:dc="http://purl.org/dc/elements/1.1/" xmlns:rdf="http://www.w3.org/1999/02/22-rdf-syntax-ns#">
   <cc:Work>
    <dc:type rdf:resource="http://purl.org/dc/dcmitype/StillImage"/>
    <dc:date>2021-01-05T20:27:05.962720</dc:date>
    <dc:format>image/svg+xml</dc:format>
    <dc:creator>
     <cc:Agent>
      <dc:title>Matplotlib v3.3.3, https://matplotlib.org/</dc:title>
     </cc:Agent>
    </dc:creator>
   </cc:Work>
  </rdf:RDF>
 </metadata>
 <defs>
  <style type="text/css">*{stroke-linecap:butt;stroke-linejoin:round;}</style>
 </defs>
 <g id="figure_1">
  <g id="patch_1">
   <path d="M 0 184.251974 
L 255.118118 184.251974 
L 255.118118 0 
L 0 0 
z
" style="fill:#ffffff;"/>
  </g>
  <g id="axes_1">
   <g id="patch_2">
    <path d="M 43.86024 151.097984 
L 243.117878 151.097984 
L 243.117878 5.954856 
L 43.86024 5.954856 
z
" style="fill:#ffffff;"/>
   </g>
   <g id="matplotlib.axis_1">
    <g id="xtick_1">
     <g id="line2d_1">
      <defs>
       <path d="M 0 0 
L 0 -5 
" id="m85aa03ef41" style="stroke:#000000;stroke-width:0.5;"/>
      </defs>
      <g>
       <use style="stroke:#000000;stroke-width:0.5;" x="43.86024" xlink:href="#m85aa03ef41" y="151.097984"/>
      </g>
     </g>
     <g id="line2d_2">
      <defs>
       <path d="M 0 0 
L 0 5 
" id="m54fdfd446a" style="stroke:#000000;stroke-width:0.5;"/>
      </defs>
      <g>
       <use style="stroke:#000000;stroke-width:0.5;" x="43.86024" xlink:href="#m54fdfd446a" y="5.954856"/>
      </g>
     </g>
     <g id="text_1">
      <!-- $\mathdefault{0}$ -->
      <g transform="translate(40.86024 162.924859)scale(0.12 -0.12)">
       <defs>
        <path d="M 25 -2.203125 
Q 12.75 -2.203125 8.328125 7.875 
Q 3.90625 17.96875 3.90625 31.890625 
Q 3.90625 40.578125 5.484375 48.234375 
Q 7.078125 55.90625 11.78125 61.25 
Q 16.5 66.609375 25 66.609375 
Q 31.59375 66.609375 35.78125 63.375 
Q 39.984375 60.15625 42.1875 55.046875 
Q 44.390625 49.953125 45.1875 44.109375 
Q 46 38.28125 46 31.890625 
Q 46 23.296875 44.40625 15.796875 
Q 42.828125 8.296875 38.1875 3.046875 
Q 33.546875 -2.203125 25 -2.203125 
z
M 25 0.390625 
Q 30.5625 0.390625 33.296875 6.09375 
Q 36.03125 11.8125 36.671875 18.75 
Q 37.3125 25.6875 37.3125 33.5 
Q 37.3125 41.015625 36.671875 47.359375 
Q 36.03125 53.71875 33.3125 58.859375 
Q 30.609375 64.015625 25 64.015625 
Q 19.34375 64.015625 16.609375 58.828125 
Q 13.875 53.65625 13.234375 47.328125 
Q 12.59375 41.015625 12.59375 33.5 
Q 12.59375 27.9375 12.859375 23 
Q 13.140625 18.0625 14.3125 12.8125 
Q 15.484375 7.5625 18.09375 3.96875 
Q 20.703125 0.390625 25 0.390625 
z
" id="Cmr10-48"/>
       </defs>
       <use transform="translate(0 0.390625)" xlink:href="#Cmr10-48"/>
      </g>
     </g>
    </g>
    <g id="xtick_2">
     <g id="line2d_3">
      <g>
       <use style="stroke:#000000;stroke-width:0.5;" x="83.711768" xlink:href="#m85aa03ef41" y="151.097984"/>
      </g>
     </g>
     <g id="line2d_4">
      <g>
       <use style="stroke:#000000;stroke-width:0.5;" x="83.711768" xlink:href="#m54fdfd446a" y="5.954856"/>
      </g>
     </g>
     <g id="text_2">
      <!-- $\mathdefault{20}$ -->
      <g transform="translate(77.711768 162.924859)scale(0.12 -0.12)">
       <defs>
        <path d="M 4.984375 0 
L 4.984375 2.6875 
Q 4.984375 2.9375 5.171875 3.21875 
L 20.703125 20.40625 
Q 24.21875 24.21875 26.40625 26.796875 
Q 28.609375 29.390625 30.75 32.765625 
Q 32.90625 36.140625 34.15625 39.625 
Q 35.40625 43.109375 35.40625 47.015625 
Q 35.40625 51.125 33.890625 54.859375 
Q 32.375 58.59375 29.375 60.84375 
Q 26.375 63.09375 22.125 63.09375 
Q 17.78125 63.09375 14.3125 60.46875 
Q 10.84375 57.859375 9.421875 53.71875 
Q 9.8125 53.8125 10.5 53.8125 
Q 12.75 53.8125 14.328125 52.296875 
Q 15.921875 50.78125 15.921875 48.390625 
Q 15.921875 46.09375 14.328125 44.5 
Q 12.75 42.921875 10.5 42.921875 
Q 8.15625 42.921875 6.5625 44.546875 
Q 4.984375 46.1875 4.984375 48.390625 
Q 4.984375 52.15625 6.390625 55.4375 
Q 7.8125 58.734375 10.46875 61.296875 
Q 13.140625 63.875 16.484375 65.234375 
Q 19.828125 66.609375 23.578125 66.609375 
Q 29.296875 66.609375 34.21875 64.1875 
Q 39.15625 61.765625 42.03125 57.34375 
Q 44.921875 52.9375 44.921875 47.015625 
Q 44.921875 42.671875 43.015625 38.765625 
Q 41.109375 34.859375 38.125 31.65625 
Q 35.15625 28.46875 30.515625 24.40625 
Q 25.875 20.359375 24.421875 19 
L 13.09375 8.109375 
L 22.703125 8.109375 
Q 29.78125 8.109375 34.546875 8.21875 
Q 39.3125 8.34375 39.59375 8.59375 
Q 40.765625 9.859375 42 17.828125 
L 44.921875 17.828125 
L 42.09375 0 
z
" id="Cmr10-50"/>
       </defs>
       <use transform="translate(0 0.390625)" xlink:href="#Cmr10-50"/>
       <use transform="translate(50 0.390625)" xlink:href="#Cmr10-48"/>
      </g>
     </g>
    </g>
    <g id="xtick_3">
     <g id="line2d_5">
      <g>
       <use style="stroke:#000000;stroke-width:0.5;" x="123.563295" xlink:href="#m85aa03ef41" y="151.097984"/>
      </g>
     </g>
     <g id="line2d_6">
      <g>
       <use style="stroke:#000000;stroke-width:0.5;" x="123.563295" xlink:href="#m54fdfd446a" y="5.954856"/>
      </g>
     </g>
     <g id="text_3">
      <!-- $\mathdefault{40}$ -->
      <g transform="translate(117.563295 162.924859)scale(0.12 -0.12)">
       <defs>
        <path d="M 2.78125 16.5 
L 2.78125 20.015625 
L 33.6875 66.109375 
Q 34.03125 66.609375 34.71875 66.609375 
L 36.1875 66.609375 
Q 37.3125 66.609375 37.3125 65.484375 
L 37.3125 20.015625 
L 47.125 20.015625 
L 47.125 16.5 
L 37.3125 16.5 
L 37.3125 6.6875 
Q 37.3125 4.640625 40.234375 4.078125 
Q 43.171875 3.515625 47.015625 3.515625 
L 47.015625 0 
L 19.484375 0 
L 19.484375 3.515625 
Q 23.34375 3.515625 26.265625 4.078125 
Q 29.203125 4.640625 29.203125 6.6875 
L 29.203125 16.5 
z
M 6.109375 20.015625 
L 29.78125 20.015625 
L 29.78125 55.421875 
z
" id="Cmr10-52"/>
       </defs>
       <use transform="translate(0 0.390625)" xlink:href="#Cmr10-52"/>
       <use transform="translate(50 0.390625)" xlink:href="#Cmr10-48"/>
      </g>
     </g>
    </g>
    <g id="xtick_4">
     <g id="line2d_7">
      <g>
       <use style="stroke:#000000;stroke-width:0.5;" x="163.414823" xlink:href="#m85aa03ef41" y="151.097984"/>
      </g>
     </g>
     <g id="line2d_8">
      <g>
       <use style="stroke:#000000;stroke-width:0.5;" x="163.414823" xlink:href="#m54fdfd446a" y="5.954856"/>
      </g>
     </g>
     <g id="text_4">
      <!-- $\mathdefault{60}$ -->
      <g transform="translate(157.414823 162.924859)scale(0.12 -0.12)">
       <defs>
        <path d="M 25 -2.203125 
Q 18.796875 -2.203125 14.640625 1.09375 
Q 10.5 4.390625 8.21875 9.640625 
Q 5.953125 14.890625 5.078125 20.65625 
Q 4.203125 26.421875 4.203125 32.328125 
Q 4.203125 40.234375 7.28125 48.1875 
Q 10.359375 56.15625 16.328125 61.375 
Q 22.3125 66.609375 30.515625 66.609375 
Q 33.9375 66.609375 36.890625 65.3125 
Q 39.84375 64.015625 41.53125 61.5 
Q 43.21875 58.984375 43.21875 55.421875 
Q 43.21875 53.375 41.828125 51.984375 
Q 40.4375 50.59375 38.375 50.59375 
Q 36.421875 50.59375 35 52 
Q 33.59375 53.421875 33.59375 55.421875 
Q 33.59375 57.375 35 58.78125 
Q 36.421875 60.203125 38.375 60.203125 
L 38.921875 60.203125 
Q 37.640625 62.015625 35.328125 62.859375 
Q 33.015625 63.71875 30.515625 63.71875 
Q 27.484375 63.71875 24.921875 62.390625 
Q 22.359375 61.078125 20.3125 58.828125 
Q 18.265625 56.59375 16.890625 53.875 
Q 15.53125 51.171875 14.765625 47.703125 
Q 14.015625 44.234375 13.8125 41.203125 
Q 13.625 38.1875 13.625 33.59375 
Q 15.375 37.703125 18.59375 40.3125 
Q 21.828125 42.921875 25.875 42.921875 
Q 30.328125 42.921875 33.984375 41.109375 
Q 37.640625 39.3125 40.28125 36.109375 
Q 42.921875 32.90625 44.3125 28.796875 
Q 45.703125 24.703125 45.703125 20.515625 
Q 45.703125 14.65625 43.09375 9.34375 
Q 40.484375 4.046875 35.734375 0.921875 
Q 31 -2.203125 25 -2.203125 
z
M 25 0.984375 
Q 28.859375 0.984375 31.203125 2.734375 
Q 33.546875 4.5 34.640625 7.390625 
Q 35.75 10.296875 36.015625 13.25 
Q 36.28125 16.21875 36.28125 20.515625 
Q 36.28125 26.171875 35.734375 30.171875 
Q 35.203125 34.1875 32.8125 37.234375 
Q 30.421875 40.28125 25.484375 40.28125 
Q 21.4375 40.28125 18.828125 37.546875 
Q 16.21875 34.8125 15.015625 30.640625 
Q 13.8125 26.46875 13.8125 22.609375 
Q 13.8125 21.296875 13.921875 20.609375 
Q 13.921875 20.453125 13.890625 20.359375 
Q 13.875 20.265625 13.8125 20.125 
Q 13.8125 15.828125 14.6875 11.421875 
Q 15.578125 7.03125 18.0625 4 
Q 20.5625 0.984375 25 0.984375 
z
" id="Cmr10-54"/>
       </defs>
       <use transform="translate(0 0.390625)" xlink:href="#Cmr10-54"/>
       <use transform="translate(50 0.390625)" xlink:href="#Cmr10-48"/>
      </g>
     </g>
    </g>
    <g id="xtick_5">
     <g id="line2d_9">
      <g>
       <use style="stroke:#000000;stroke-width:0.5;" x="203.266351" xlink:href="#m85aa03ef41" y="151.097984"/>
      </g>
     </g>
     <g id="line2d_10">
      <g>
       <use style="stroke:#000000;stroke-width:0.5;" x="203.266351" xlink:href="#m54fdfd446a" y="5.954856"/>
      </g>
     </g>
     <g id="text_5">
      <!-- $\mathdefault{80}$ -->
      <g transform="translate(197.266351 162.924859)scale(0.12 -0.12)">
       <defs>
        <path d="M 4.203125 15.1875 
Q 4.203125 21.1875 8.15625 25.796875 
Q 12.109375 30.421875 18.3125 33.5 
L 14.59375 35.890625 
Q 11.1875 38.140625 9.03125 41.875 
Q 6.890625 45.609375 6.890625 49.703125 
Q 6.890625 54.5 9.40625 58.34375 
Q 11.921875 62.203125 16.09375 64.40625 
Q 20.265625 66.609375 25 66.609375 
Q 29.4375 66.609375 33.5625 64.796875 
Q 37.703125 62.984375 40.359375 59.609375 
Q 43.015625 56.25 43.015625 51.609375 
Q 43.015625 48.25 41.421875 45.359375 
Q 39.84375 42.484375 37.078125 40.1875 
Q 34.328125 37.890625 31.203125 36.28125 
L 36.921875 32.625 
Q 40.875 30.03125 43.28125 25.828125 
Q 45.703125 21.625 45.703125 17 
Q 45.703125 11.578125 42.796875 7.125 
Q 39.890625 2.6875 35.109375 0.234375 
Q 30.328125 -2.203125 25 -2.203125 
Q 19.828125 -2.203125 15.015625 -0.09375 
Q 10.203125 2 7.203125 5.984375 
Q 4.203125 9.96875 4.203125 15.1875 
z
M 9.625 15.1875 
Q 9.625 11.234375 11.796875 7.953125 
Q 13.96875 4.6875 17.53125 2.828125 
Q 21.09375 0.984375 25 0.984375 
Q 30.8125 0.984375 35.546875 4.375 
Q 40.28125 7.765625 40.28125 13.375 
Q 40.28125 15.28125 39.515625 17.15625 
Q 38.765625 19.046875 37.421875 20.578125 
Q 36.078125 22.125 34.421875 23.09375 
L 21 31.78125 
Q 17.875 30.125 15.25 27.578125 
Q 12.640625 25.046875 11.125 21.875 
Q 9.625 18.703125 9.625 15.1875 
z
M 16.5 45.703125 
L 28.609375 37.890625 
Q 32.8125 40.328125 35.5 43.796875 
Q 38.1875 47.265625 38.1875 51.609375 
Q 38.1875 54.984375 36.296875 57.78125 
Q 34.421875 60.59375 31.390625 62.15625 
Q 28.375 63.71875 24.90625 63.71875 
Q 21.875 63.71875 18.796875 62.546875 
Q 15.71875 61.375 13.71875 59.046875 
Q 11.71875 56.734375 11.71875 53.609375 
Q 11.71875 48.921875 16.5 45.703125 
z
" id="Cmr10-56"/>
       </defs>
       <use transform="translate(0 0.390625)" xlink:href="#Cmr10-56"/>
       <use transform="translate(50 0.390625)" xlink:href="#Cmr10-48"/>
      </g>
     </g>
    </g>
    <g id="xtick_6">
     <g id="line2d_11">
      <g>
       <use style="stroke:#000000;stroke-width:0.5;" x="243.117878" xlink:href="#m85aa03ef41" y="151.097984"/>
      </g>
     </g>
     <g id="line2d_12">
      <g>
       <use style="stroke:#000000;stroke-width:0.5;" x="243.117878" xlink:href="#m54fdfd446a" y="5.954856"/>
      </g>
     </g>
     <g id="text_6">
      <!-- $\mathdefault{100}$ -->
      <g transform="translate(234.117878 162.924859)scale(0.12 -0.12)">
       <defs>
        <path d="M 9.28125 0 
L 9.28125 3.515625 
Q 21.78125 3.515625 21.78125 6.6875 
L 21.78125 59.1875 
Q 16.609375 56.6875 8.6875 56.6875 
L 8.6875 60.203125 
Q 20.953125 60.203125 27.203125 66.609375 
L 28.609375 66.609375 
Q 28.953125 66.609375 29.265625 66.328125 
Q 29.59375 66.0625 29.59375 65.71875 
L 29.59375 6.6875 
Q 29.59375 3.515625 42.09375 3.515625 
L 42.09375 0 
z
" id="Cmr10-49"/>
       </defs>
       <use transform="translate(0 0.390625)" xlink:href="#Cmr10-49"/>
       <use transform="translate(50 0.390625)" xlink:href="#Cmr10-48"/>
       <use transform="translate(100 0.390625)" xlink:href="#Cmr10-48"/>
      </g>
     </g>
    </g>
    <g id="xtick_7">
     <g id="line2d_13">
      <defs>
       <path d="M 0 0 
L 0 -2.5 
" id="m8607ca415f" style="stroke:#000000;stroke-width:0.5;"/>
      </defs>
      <g>
       <use style="stroke:#000000;stroke-width:0.5;" x="53.823122" xlink:href="#m8607ca415f" y="151.097984"/>
      </g>
     </g>
     <g id="line2d_14">
      <defs>
       <path d="M 0 0 
L 0 2.5 
" id="m6a7d420623" style="stroke:#000000;stroke-width:0.5;"/>
      </defs>
      <g>
       <use style="stroke:#000000;stroke-width:0.5;" x="53.823122" xlink:href="#m6a7d420623" y="5.954856"/>
      </g>
     </g>
    </g>
    <g id="xtick_8">
     <g id="line2d_15">
      <g>
       <use style="stroke:#000000;stroke-width:0.5;" x="63.786004" xlink:href="#m8607ca415f" y="151.097984"/>
      </g>
     </g>
     <g id="line2d_16">
      <g>
       <use style="stroke:#000000;stroke-width:0.5;" x="63.786004" xlink:href="#m6a7d420623" y="5.954856"/>
      </g>
     </g>
    </g>
    <g id="xtick_9">
     <g id="line2d_17">
      <g>
       <use style="stroke:#000000;stroke-width:0.5;" x="73.748886" xlink:href="#m8607ca415f" y="151.097984"/>
      </g>
     </g>
     <g id="line2d_18">
      <g>
       <use style="stroke:#000000;stroke-width:0.5;" x="73.748886" xlink:href="#m6a7d420623" y="5.954856"/>
      </g>
     </g>
    </g>
    <g id="xtick_10">
     <g id="line2d_19">
      <g>
       <use style="stroke:#000000;stroke-width:0.5;" x="93.67465" xlink:href="#m8607ca415f" y="151.097984"/>
      </g>
     </g>
     <g id="line2d_20">
      <g>
       <use style="stroke:#000000;stroke-width:0.5;" x="93.67465" xlink:href="#m6a7d420623" y="5.954856"/>
      </g>
     </g>
    </g>
    <g id="xtick_11">
     <g id="line2d_21">
      <g>
       <use style="stroke:#000000;stroke-width:0.5;" x="103.637532" xlink:href="#m8607ca415f" y="151.097984"/>
      </g>
     </g>
     <g id="line2d_22">
      <g>
       <use style="stroke:#000000;stroke-width:0.5;" x="103.637532" xlink:href="#m6a7d420623" y="5.954856"/>
      </g>
     </g>
    </g>
    <g id="xtick_12">
     <g id="line2d_23">
      <g>
       <use style="stroke:#000000;stroke-width:0.5;" x="113.600413" xlink:href="#m8607ca415f" y="151.097984"/>
      </g>
     </g>
     <g id="line2d_24">
      <g>
       <use style="stroke:#000000;stroke-width:0.5;" x="113.600413" xlink:href="#m6a7d420623" y="5.954856"/>
      </g>
     </g>
    </g>
    <g id="xtick_13">
     <g id="line2d_25">
      <g>
       <use style="stroke:#000000;stroke-width:0.5;" x="133.526177" xlink:href="#m8607ca415f" y="151.097984"/>
      </g>
     </g>
     <g id="line2d_26">
      <g>
       <use style="stroke:#000000;stroke-width:0.5;" x="133.526177" xlink:href="#m6a7d420623" y="5.954856"/>
      </g>
     </g>
    </g>
    <g id="xtick_14">
     <g id="line2d_27">
      <g>
       <use style="stroke:#000000;stroke-width:0.5;" x="143.489059" xlink:href="#m8607ca415f" y="151.097984"/>
      </g>
     </g>
     <g id="line2d_28">
      <g>
       <use style="stroke:#000000;stroke-width:0.5;" x="143.489059" xlink:href="#m6a7d420623" y="5.954856"/>
      </g>
     </g>
    </g>
    <g id="xtick_15">
     <g id="line2d_29">
      <g>
       <use style="stroke:#000000;stroke-width:0.5;" x="153.451941" xlink:href="#m8607ca415f" y="151.097984"/>
      </g>
     </g>
     <g id="line2d_30">
      <g>
       <use style="stroke:#000000;stroke-width:0.5;" x="153.451941" xlink:href="#m6a7d420623" y="5.954856"/>
      </g>
     </g>
    </g>
    <g id="xtick_16">
     <g id="line2d_31">
      <g>
       <use style="stroke:#000000;stroke-width:0.5;" x="173.377705" xlink:href="#m8607ca415f" y="151.097984"/>
      </g>
     </g>
     <g id="line2d_32">
      <g>
       <use style="stroke:#000000;stroke-width:0.5;" x="173.377705" xlink:href="#m6a7d420623" y="5.954856"/>
      </g>
     </g>
    </g>
    <g id="xtick_17">
     <g id="line2d_33">
      <g>
       <use style="stroke:#000000;stroke-width:0.5;" x="183.340587" xlink:href="#m8607ca415f" y="151.097984"/>
      </g>
     </g>
     <g id="line2d_34">
      <g>
       <use style="stroke:#000000;stroke-width:0.5;" x="183.340587" xlink:href="#m6a7d420623" y="5.954856"/>
      </g>
     </g>
    </g>
    <g id="xtick_18">
     <g id="line2d_35">
      <g>
       <use style="stroke:#000000;stroke-width:0.5;" x="193.303469" xlink:href="#m8607ca415f" y="151.097984"/>
      </g>
     </g>
     <g id="line2d_36">
      <g>
       <use style="stroke:#000000;stroke-width:0.5;" x="193.303469" xlink:href="#m6a7d420623" y="5.954856"/>
      </g>
     </g>
    </g>
    <g id="xtick_19">
     <g id="line2d_37">
      <g>
       <use style="stroke:#000000;stroke-width:0.5;" x="213.229233" xlink:href="#m8607ca415f" y="151.097984"/>
      </g>
     </g>
     <g id="line2d_38">
      <g>
       <use style="stroke:#000000;stroke-width:0.5;" x="213.229233" xlink:href="#m6a7d420623" y="5.954856"/>
      </g>
     </g>
    </g>
    <g id="xtick_20">
     <g id="line2d_39">
      <g>
       <use style="stroke:#000000;stroke-width:0.5;" x="223.192115" xlink:href="#m8607ca415f" y="151.097984"/>
      </g>
     </g>
     <g id="line2d_40">
      <g>
       <use style="stroke:#000000;stroke-width:0.5;" x="223.192115" xlink:href="#m6a7d420623" y="5.954856"/>
      </g>
     </g>
    </g>
    <g id="xtick_21">
     <g id="line2d_41">
      <g>
       <use style="stroke:#000000;stroke-width:0.5;" x="233.154996" xlink:href="#m8607ca415f" y="151.097984"/>
      </g>
     </g>
     <g id="line2d_42">
      <g>
       <use style="stroke:#000000;stroke-width:0.5;" x="233.154996" xlink:href="#m6a7d420623" y="5.954856"/>
      </g>
     </g>
    </g>
    <g id="text_7">
     <!-- $\rm{The\;distance\;(mm)}$ -->
     <g transform="translate(94.349059 178.251734)scale(0.12 -0.12)">
      <defs>
       <path d="M 16.890625 0 
L 16.890625 3.515625 
Q 21.921875 3.515625 26.65625 4.078125 
Q 31.390625 4.640625 31.390625 6.6875 
L 31.390625 61.625 
Q 31.390625 63.765625 30.1875 64.28125 
Q 29 64.796875 26.3125 64.796875 
L 22.125 64.796875 
Q 13.875 64.796875 10.40625 61.1875 
Q 8.59375 59.375 7.8125 55.390625 
Q 7.03125 51.421875 6.5 45.40625 
L 3.609375 45.40625 
L 5.515625 68.3125 
L 66.609375 68.3125 
L 68.5 45.40625 
L 65.578125 45.40625 
Q 64.984375 51.859375 64.28125 55.640625 
Q 63.578125 59.421875 61.71875 61.1875 
Q 58.203125 64.796875 50 64.796875 
L 45.796875 64.796875 
Q 44 64.796875 43 64.640625 
Q 42 64.5 41.359375 63.796875 
Q 40.71875 63.09375 40.71875 61.625 
L 40.71875 6.6875 
Q 40.71875 4.640625 45.453125 4.078125 
Q 50.203125 3.515625 55.171875 3.515625 
L 55.171875 0 
z
" id="Cmr10-84"/>
       <path d="M 2.984375 0 
L 2.984375 3.515625 
Q 6.390625 3.515625 8.59375 4.046875 
Q 10.796875 4.59375 10.796875 6.6875 
L 10.796875 59.1875 
Q 10.796875 61.859375 9.984375 63.0625 
Q 9.1875 64.265625 7.671875 64.53125 
Q 6.15625 64.796875 2.984375 64.796875 
L 2.984375 68.3125 
L 17.828125 69.390625 
L 17.828125 35.015625 
Q 19.921875 39.15625 23.671875 41.671875 
Q 27.4375 44.1875 31.984375 44.1875 
Q 38.921875 44.1875 42.40625 40.859375 
Q 45.90625 37.546875 45.90625 30.71875 
L 45.90625 6.6875 
Q 45.90625 4.59375 48.09375 4.046875 
Q 50.296875 3.515625 53.71875 3.515625 
L 53.71875 0 
L 30.8125 0 
L 30.8125 3.515625 
Q 34.234375 3.515625 36.421875 4.046875 
Q 38.625 4.59375 38.625 6.6875 
L 38.625 30.421875 
Q 38.625 35.296875 37.203125 38.453125 
Q 35.796875 41.609375 31.390625 41.609375 
Q 25.59375 41.609375 21.84375 36.96875 
Q 18.109375 32.328125 18.109375 26.421875 
L 18.109375 6.6875 
Q 18.109375 4.59375 20.3125 4.046875 
Q 22.515625 3.515625 25.875 3.515625 
L 25.875 0 
z
" id="Cmr10-104"/>
       <path d="M 24.90625 -1.125 
Q 18.796875 -1.125 13.6875 2.078125 
Q 8.59375 5.28125 5.6875 10.625 
Q 2.78125 15.96875 2.78125 21.921875 
Q 2.78125 27.78125 5.4375 33.046875 
Q 8.109375 38.328125 12.859375 41.578125 
Q 17.625 44.828125 23.484375 44.828125 
Q 28.078125 44.828125 31.46875 43.28125 
Q 34.859375 41.75 37.0625 39.015625 
Q 39.265625 36.28125 40.375 32.5625 
Q 41.5 28.859375 41.5 24.421875 
Q 41.5 23.09375 40.484375 23.09375 
L 11.53125 23.09375 
L 11.53125 22.015625 
Q 11.53125 13.71875 14.875 7.765625 
Q 18.21875 1.8125 25.78125 1.8125 
Q 28.859375 1.8125 31.46875 3.171875 
Q 34.078125 4.546875 36 6.984375 
Q 37.9375 9.421875 38.625 12.203125 
Q 38.71875 12.546875 38.984375 12.8125 
Q 39.265625 13.09375 39.59375 13.09375 
L 40.484375 13.09375 
Q 41.5 13.09375 41.5 11.8125 
Q 40.09375 6.15625 35.40625 2.515625 
Q 30.71875 -1.125 24.90625 -1.125 
z
M 11.625 25.59375 
L 34.421875 25.59375 
Q 34.421875 29.34375 33.375 33.203125 
Q 32.328125 37.0625 29.875 39.625 
Q 27.4375 42.1875 23.484375 42.1875 
Q 17.828125 42.1875 14.71875 36.890625 
Q 11.625 31.59375 11.625 25.59375 
z
" id="Cmr10-101"/>
       <path d="M 24.421875 -1.125 
Q 18.5 -1.125 13.609375 2.078125 
Q 8.734375 5.28125 6.03125 10.5 
Q 3.328125 15.71875 3.328125 21.578125 
Q 3.328125 27.640625 6.28125 32.828125 
Q 9.234375 38.03125 14.3125 41.109375 
Q 19.390625 44.1875 25.484375 44.1875 
Q 29.15625 44.1875 32.421875 42.640625 
Q 35.6875 41.109375 38.09375 38.375 
L 38.09375 59.1875 
Q 38.09375 61.859375 37.28125 63.0625 
Q 36.46875 64.265625 34.984375 64.53125 
Q 33.5 64.796875 30.328125 64.796875 
L 30.328125 68.3125 
L 45.125 69.390625 
L 45.125 9.078125 
Q 45.125 6.453125 45.921875 5.25 
Q 46.734375 4.046875 48.21875 3.78125 
Q 49.703125 3.515625 52.875 3.515625 
L 52.875 0 
L 37.796875 -1.125 
L 37.796875 5.171875 
Q 35.203125 2.203125 31.640625 0.53125 
Q 28.078125 -1.125 24.421875 -1.125 
z
M 14.203125 8.6875 
Q 15.921875 5.421875 18.765625 3.46875 
Q 21.625 1.515625 25 1.515625 
Q 29.15625 1.515625 32.609375 3.90625 
Q 36.078125 6.296875 37.796875 10.109375 
L 37.796875 34.078125 
Q 36.625 36.28125 34.84375 38.015625 
Q 33.0625 39.75 30.828125 40.671875 
Q 28.609375 41.609375 26.125 41.609375 
Q 20.90625 41.609375 17.71875 38.640625 
Q 14.546875 35.6875 13.28125 31.09375 
Q 12.015625 26.515625 12.015625 21.484375 
Q 12.015625 17.484375 12.421875 14.5 
Q 12.84375 11.53125 14.203125 8.6875 
z
" id="Cmr10-100"/>
       <path d="M 3.078125 0 
L 3.078125 3.515625 
Q 6.5 3.515625 8.6875 4.046875 
Q 10.890625 4.59375 10.890625 6.6875 
L 10.890625 33.984375 
Q 10.890625 37.84375 9.390625 38.71875 
Q 7.90625 39.59375 3.515625 39.59375 
L 3.515625 43.109375 
L 17.921875 44.1875 
L 17.921875 6.6875 
Q 17.921875 4.59375 19.828125 4.046875 
Q 21.734375 3.515625 24.90625 3.515625 
L 24.90625 0 
z
M 7.328125 61.375 
Q 7.328125 63.578125 8.984375 65.234375 
Q 10.640625 66.890625 12.796875 66.890625 
Q 14.203125 66.890625 15.515625 66.15625 
Q 16.84375 65.4375 17.578125 64.109375 
Q 18.3125 62.796875 18.3125 61.375 
Q 18.3125 59.234375 16.640625 57.5625 
Q 14.984375 55.90625 12.796875 55.90625 
Q 10.640625 55.90625 8.984375 57.5625 
Q 7.328125 59.234375 7.328125 61.375 
z
" id="Cmr10-105"/>
       <path d="M 3.328125 -0.296875 
L 3.328125 16.015625 
Q 3.328125 16.796875 4.203125 16.796875 
L 5.421875 16.796875 
Q 6 16.796875 6.203125 16.015625 
Q 8.984375 1.515625 19.671875 1.515625 
Q 24.421875 1.515625 27.609375 3.65625 
Q 30.8125 5.8125 30.8125 10.296875 
Q 30.8125 13.53125 28.3125 15.796875 
Q 25.828125 18.0625 22.40625 18.890625 
L 15.71875 20.21875 
Q 12.359375 20.953125 9.59375 22.453125 
Q 6.84375 23.96875 5.078125 26.484375 
Q 3.328125 29 3.328125 32.328125 
Q 3.328125 36.71875 5.640625 39.515625 
Q 7.953125 42.328125 11.65625 43.578125 
Q 15.375 44.828125 19.671875 44.828125 
Q 24.8125 44.828125 28.609375 42.09375 
L 31.5 44.578125 
Q 31.5 44.828125 31.984375 44.828125 
L 32.71875 44.828125 
Q 33.015625 44.828125 33.25 44.546875 
Q 33.5 44.28125 33.5 44 
L 33.5 30.90625 
Q 33.5 29.984375 32.71875 29.984375 
L 31.5 29.984375 
Q 30.609375 29.984375 30.609375 30.90625 
Q 30.609375 36.140625 27.703125 39.3125 
Q 24.8125 42.484375 19.578125 42.484375 
Q 15.09375 42.484375 11.796875 40.8125 
Q 8.5 39.15625 8.5 35.109375 
Q 8.5 32.328125 10.859375 30.546875 
Q 13.234375 28.765625 16.40625 27.984375 
L 23.1875 26.703125 
Q 26.609375 25.921875 29.5625 24.0625 
Q 32.515625 22.21875 34.25 19.375 
Q 35.984375 16.546875 35.984375 12.984375 
Q 35.984375 9.375 34.734375 6.703125 
Q 33.5 4.046875 31.265625 2.28125 
Q 29.046875 0.53125 26.015625 -0.296875 
Q 23 -1.125 19.671875 -1.125 
Q 13.421875 -1.125 8.984375 3.078125 
L 5.328125 -0.875 
Q 5.328125 -1.125 4.78125 -1.125 
L 4.203125 -1.125 
Q 3.328125 -1.125 3.328125 -0.296875 
z
" id="Cmr10-115"/>
       <path d="M 10.203125 12.015625 
L 10.203125 39.59375 
L 1.90625 39.59375 
L 1.90625 42.1875 
Q 8.453125 42.1875 11.515625 48.28125 
Q 14.59375 54.390625 14.59375 61.53125 
L 17.484375 61.53125 
L 17.484375 43.109375 
L 31.59375 43.109375 
L 31.59375 39.59375 
L 17.484375 39.59375 
L 17.484375 12.203125 
Q 17.484375 8.0625 18.875 4.9375 
Q 20.265625 1.8125 23.875 1.8125 
Q 27.296875 1.8125 28.8125 5.109375 
Q 30.328125 8.40625 30.328125 12.203125 
L 30.328125 18.109375 
L 33.203125 18.109375 
L 33.203125 12.015625 
Q 33.203125 8.890625 32.046875 5.828125 
Q 30.90625 2.78125 28.65625 0.828125 
Q 26.421875 -1.125 23.1875 -1.125 
Q 17.1875 -1.125 13.6875 2.46875 
Q 10.203125 6.0625 10.203125 12.015625 
z
" id="Cmr10-116"/>
       <path d="M 4 9.8125 
Q 4 15.765625 8.6875 19.5 
Q 13.375 23.25 19.9375 24.78125 
Q 26.515625 26.3125 32.421875 26.3125 
L 32.421875 30.421875 
Q 32.421875 33.296875 31.15625 36 
Q 29.890625 38.71875 27.484375 40.453125 
Q 25.09375 42.1875 22.21875 42.1875 
Q 15.578125 42.1875 12.109375 39.203125 
Q 14.015625 39.203125 15.25 37.765625 
Q 16.5 36.328125 16.5 34.421875 
Q 16.5 32.421875 15.078125 31 
Q 13.671875 29.59375 11.71875 29.59375 
Q 9.71875 29.59375 8.296875 31 
Q 6.890625 32.421875 6.890625 34.421875 
Q 6.890625 39.703125 11.671875 42.265625 
Q 16.453125 44.828125 22.21875 44.828125 
Q 26.265625 44.828125 30.359375 43.09375 
Q 34.46875 41.359375 37.078125 38.125 
Q 39.703125 34.90625 39.703125 30.609375 
L 39.703125 8.109375 
Q 39.703125 6.15625 40.53125 4.515625 
Q 41.359375 2.875 43.109375 2.875 
Q 44.78125 2.875 45.578125 4.53125 
Q 46.390625 6.203125 46.390625 8.109375 
L 46.390625 14.5 
L 49.3125 14.5 
L 49.3125 8.109375 
Q 49.3125 5.859375 48.140625 3.828125 
Q 46.96875 1.8125 44.984375 0.609375 
Q 43.015625 -0.59375 40.71875 -0.59375 
Q 37.796875 -0.59375 35.671875 1.671875 
Q 33.546875 3.953125 33.296875 7.078125 
Q 31.453125 3.328125 27.828125 1.09375 
Q 24.21875 -1.125 20.125 -1.125 
Q 16.3125 -1.125 12.625 0 
Q 8.9375 1.125 6.46875 3.53125 
Q 4 5.953125 4 9.8125 
z
M 12.109375 9.8125 
Q 12.109375 6.296875 14.6875 3.90625 
Q 17.28125 1.515625 20.796875 1.515625 
Q 24.03125 1.515625 26.65625 3.125 
Q 29.296875 4.734375 30.859375 7.515625 
Q 32.421875 10.296875 32.421875 13.375 
L 32.421875 23.78125 
Q 27.875 23.78125 23.109375 22.28125 
Q 18.359375 20.796875 15.234375 17.625 
Q 12.109375 14.453125 12.109375 9.8125 
z
" id="Cmr10-97"/>
       <path d="M 2.984375 0 
L 2.984375 3.515625 
Q 6.390625 3.515625 8.59375 4.046875 
Q 10.796875 4.59375 10.796875 6.6875 
L 10.796875 33.984375 
Q 10.796875 36.671875 9.984375 37.859375 
Q 9.1875 39.0625 7.671875 39.328125 
Q 6.15625 39.59375 2.984375 39.59375 
L 2.984375 43.109375 
L 17.484375 44.1875 
L 17.484375 34.421875 
Q 19.484375 38.71875 23.40625 41.453125 
Q 27.34375 44.1875 31.984375 44.1875 
Q 38.921875 44.1875 42.40625 40.859375 
Q 45.90625 37.546875 45.90625 30.71875 
L 45.90625 6.6875 
Q 45.90625 4.59375 48.09375 4.046875 
Q 50.296875 3.515625 53.71875 3.515625 
L 53.71875 0 
L 30.8125 0 
L 30.8125 3.515625 
Q 34.234375 3.515625 36.421875 4.046875 
Q 38.625 4.59375 38.625 6.6875 
L 38.625 30.421875 
Q 38.625 35.296875 37.203125 38.453125 
Q 35.796875 41.609375 31.390625 41.609375 
Q 25.59375 41.609375 21.84375 36.96875 
Q 18.109375 32.328125 18.109375 26.421875 
L 18.109375 6.6875 
Q 18.109375 4.59375 20.3125 4.046875 
Q 22.515625 3.515625 25.875 3.515625 
L 25.875 0 
z
" id="Cmr10-110"/>
       <path d="M 24.90625 -1.125 
Q 18.84375 -1.125 13.90625 2.015625 
Q 8.984375 5.171875 6.15625 10.421875 
Q 3.328125 15.671875 3.328125 21.578125 
Q 3.328125 27.484375 6.125 32.90625 
Q 8.9375 38.328125 13.890625 41.578125 
Q 18.84375 44.828125 24.90625 44.828125 
Q 30.765625 44.828125 35.5625 42.53125 
Q 40.375 40.234375 40.375 35.015625 
Q 40.375 33.0625 38.984375 31.609375 
Q 37.59375 30.171875 35.59375 30.171875 
Q 33.59375 30.171875 32.203125 31.609375 
Q 30.8125 33.0625 30.8125 35.015625 
Q 30.8125 36.765625 31.9375 38.0625 
Q 33.0625 39.359375 34.71875 39.703125 
Q 31.25 41.890625 25 41.890625 
Q 20.21875 41.890625 17.28125 38.71875 
Q 14.359375 35.546875 13.1875 30.859375 
Q 12.015625 26.171875 12.015625 21.578125 
Q 12.015625 16.75 13.453125 12.234375 
Q 14.890625 7.71875 18.09375 4.765625 
Q 21.296875 1.8125 26.125 1.8125 
Q 30.859375 1.8125 34.171875 4.71875 
Q 37.5 7.625 38.71875 12.3125 
Q 38.71875 12.890625 39.5 12.890625 
L 40.71875 12.890625 
Q 41.015625 12.890625 41.25 12.625 
Q 41.5 12.359375 41.5 12.015625 
L 41.5 11.71875 
Q 39.984375 5.8125 35.484375 2.34375 
Q 31 -1.125 24.90625 -1.125 
z
" id="Cmr10-99"/>
       <path d="M 31 -24.8125 
Q 25.4375 -20.40625 21.40625 -14.71875 
Q 17.390625 -9.03125 14.8125 -2.578125 
Q 12.25 3.859375 10.984375 10.890625 
Q 9.71875 17.921875 9.71875 25 
Q 9.71875 32.171875 10.984375 39.203125 
Q 12.25 46.234375 14.859375 52.734375 
Q 17.484375 59.234375 21.53125 64.890625 
Q 25.59375 70.5625 31 74.8125 
Q 31 75 31.5 75 
L 32.421875 75 
Q 32.71875 75 32.953125 74.734375 
Q 33.203125 74.46875 33.203125 74.125 
Q 33.203125 73.6875 33.015625 73.484375 
Q 28.125 68.703125 24.875 63.234375 
Q 21.625 57.765625 19.640625 51.578125 
Q 17.671875 45.40625 16.796875 38.78125 
Q 15.921875 32.171875 15.921875 25 
Q 15.921875 -6.78125 32.90625 -23.296875 
Q 33.203125 -23.578125 33.203125 -24.125 
Q 33.203125 -24.359375 32.9375 -24.671875 
Q 32.671875 -25 32.421875 -25 
L 31.5 -25 
Q 31 -25 31 -24.8125 
z
" id="Cmr10-40"/>
       <path d="M 2.984375 0 
L 2.984375 3.515625 
Q 6.390625 3.515625 8.59375 4.046875 
Q 10.796875 4.59375 10.796875 6.6875 
L 10.796875 33.984375 
Q 10.796875 36.671875 9.984375 37.859375 
Q 9.1875 39.0625 7.671875 39.328125 
Q 6.15625 39.59375 2.984375 39.59375 
L 2.984375 43.109375 
L 17.484375 44.1875 
L 17.484375 34.421875 
Q 19.484375 38.71875 23.40625 41.453125 
Q 27.34375 44.1875 31.984375 44.1875 
Q 43.5 44.1875 45.515625 34.8125 
Q 47.515625 39.015625 51.359375 41.59375 
Q 55.21875 44.1875 59.8125 44.1875 
Q 64.359375 44.1875 67.453125 42.71875 
Q 70.5625 41.265625 72.125 38.25 
Q 73.6875 35.25 73.6875 30.71875 
L 73.6875 6.6875 
Q 73.6875 4.59375 75.90625 4.046875 
Q 78.125 3.515625 81.5 3.515625 
L 81.5 0 
L 58.59375 0 
L 58.59375 3.515625 
Q 62.015625 3.515625 64.203125 4.046875 
Q 66.40625 4.59375 66.40625 6.6875 
L 66.40625 30.421875 
Q 66.40625 35.453125 64.984375 38.53125 
Q 63.578125 41.609375 59.1875 41.609375 
Q 53.421875 41.609375 49.65625 36.96875 
Q 45.90625 32.328125 45.90625 26.421875 
L 45.90625 6.6875 
Q 45.90625 4.59375 48.09375 4.046875 
Q 50.296875 3.515625 53.71875 3.515625 
L 53.71875 0 
L 30.8125 0 
L 30.8125 3.515625 
Q 34.234375 3.515625 36.421875 4.046875 
Q 38.625 4.59375 38.625 6.6875 
L 38.625 30.421875 
Q 38.625 35.296875 37.203125 38.453125 
Q 35.796875 41.609375 31.390625 41.609375 
Q 25.59375 41.609375 21.84375 36.96875 
Q 18.109375 32.328125 18.109375 26.421875 
L 18.109375 6.6875 
Q 18.109375 4.59375 20.3125 4.046875 
Q 22.515625 3.515625 25.875 3.515625 
L 25.875 0 
z
" id="Cmr10-109"/>
       <path d="M 6.5 -25 
Q 5.609375 -25 5.609375 -24.125 
Q 5.609375 -23.6875 5.8125 -23.484375 
Q 22.90625 -6.78125 22.90625 25 
Q 22.90625 56.78125 6 73.296875 
Q 5.609375 73.53125 5.609375 74.125 
Q 5.609375 74.46875 5.875 74.734375 
Q 6.15625 75 6.5 75 
L 7.421875 75 
Q 7.71875 75 7.90625 74.8125 
Q 15.09375 69.140625 19.875 61.03125 
Q 24.65625 52.9375 26.875 43.75 
Q 29.109375 34.578125 29.109375 25 
Q 29.109375 17.921875 27.90625 11.0625 
Q 26.703125 4.203125 24.09375 -2.453125 
Q 21.484375 -9.125 17.484375 -14.765625 
Q 13.484375 -20.40625 7.90625 -24.8125 
Q 7.71875 -25 7.421875 -25 
z
" id="Cmr10-41"/>
      </defs>
      <use xlink:href="#Cmr10-84"/>
      <use transform="translate(72.216797 0)" xlink:href="#Cmr10-104"/>
      <use transform="translate(127.734375 0)" xlink:href="#Cmr10-101"/>
      <use transform="translate(195.258432 0)" xlink:href="#Cmr10-100"/>
      <use transform="translate(250.77601 0)" xlink:href="#Cmr10-105"/>
      <use transform="translate(278.461557 0)" xlink:href="#Cmr10-115"/>
      <use transform="translate(317.865854 0)" xlink:href="#Cmr10-116"/>
      <use transform="translate(356.684213 0)" xlink:href="#Cmr10-97"/>
      <use transform="translate(406.684213 0)" xlink:href="#Cmr10-110"/>
      <use transform="translate(462.201791 0)" xlink:href="#Cmr10-99"/>
      <use transform="translate(506.586557 0)" xlink:href="#Cmr10-101"/>
      <use transform="translate(574.110613 0)" xlink:href="#Cmr10-40"/>
      <use transform="translate(612.928973 0)" xlink:href="#Cmr10-109"/>
      <use transform="translate(696.229754 0)" xlink:href="#Cmr10-109"/>
      <use transform="translate(779.530535 0)" xlink:href="#Cmr10-41"/>
     </g>
    </g>
   </g>
   <g id="matplotlib.axis_2">
    <g id="ytick_1">
     <g id="line2d_43">
      <defs>
       <path d="M 0 0 
L 5 0 
" id="m04eea2e3ae" style="stroke:#000000;stroke-width:0.5;"/>
      </defs>
      <g>
       <use style="stroke:#000000;stroke-width:0.5;" x="43.86024" xlink:href="#m04eea2e3ae" y="151.097984"/>
      </g>
     </g>
     <g id="line2d_44">
      <defs>
       <path d="M 0 0 
L -5 0 
" id="m9967c575bc" style="stroke:#000000;stroke-width:0.5;"/>
      </defs>
      <g>
       <use style="stroke:#000000;stroke-width:0.5;" x="243.117878" xlink:href="#m9967c575bc" y="151.097984"/>
      </g>
     </g>
     <g id="text_8">
      <!-- $\mathdefault{0.00}$ -->
      <g transform="translate(19.00024 155.261422)scale(0.12 -0.12)">
       <defs>
        <path d="M 8.40625 5.515625 
Q 8.40625 7.765625 10.0625 9.375 
Q 11.71875 10.984375 13.921875 10.984375 
Q 15.28125 10.984375 16.59375 10.25 
Q 17.921875 9.515625 18.65625 8.203125 
Q 19.390625 6.890625 19.390625 5.515625 
Q 19.390625 3.328125 17.765625 1.65625 
Q 16.15625 0 13.921875 0 
Q 11.71875 0 10.0625 1.65625 
Q 8.40625 3.328125 8.40625 5.515625 
z
" id="Cmr10-46"/>
       </defs>
       <use transform="translate(0 0.390625)" xlink:href="#Cmr10-48"/>
       <use transform="translate(50 0.390625)" xlink:href="#Cmr10-46"/>
       <use transform="translate(77.685547 0.390625)" xlink:href="#Cmr10-48"/>
       <use transform="translate(127.685547 0.390625)" xlink:href="#Cmr10-48"/>
      </g>
     </g>
    </g>
    <g id="ytick_2">
     <g id="line2d_45">
      <g>
       <use style="stroke:#000000;stroke-width:0.5;" x="43.86024" xlink:href="#m04eea2e3ae" y="103.119957"/>
      </g>
     </g>
     <g id="line2d_46">
      <g>
       <use style="stroke:#000000;stroke-width:0.5;" x="243.117878" xlink:href="#m9967c575bc" y="103.119957"/>
      </g>
     </g>
     <g id="text_9">
      <!-- $\mathdefault{0.02}$ -->
      <g transform="translate(19.00024 107.283395)scale(0.12 -0.12)">
       <use transform="translate(0 0.390625)" xlink:href="#Cmr10-48"/>
       <use transform="translate(50 0.390625)" xlink:href="#Cmr10-46"/>
       <use transform="translate(77.685547 0.390625)" xlink:href="#Cmr10-48"/>
       <use transform="translate(127.685547 0.390625)" xlink:href="#Cmr10-50"/>
      </g>
     </g>
    </g>
    <g id="ytick_3">
     <g id="line2d_47">
      <g>
       <use style="stroke:#000000;stroke-width:0.5;" x="43.86024" xlink:href="#m04eea2e3ae" y="55.14193"/>
      </g>
     </g>
     <g id="line2d_48">
      <g>
       <use style="stroke:#000000;stroke-width:0.5;" x="243.117878" xlink:href="#m9967c575bc" y="55.14193"/>
      </g>
     </g>
     <g id="text_10">
      <!-- $\mathdefault{0.04}$ -->
      <g transform="translate(19.00024 59.305367)scale(0.12 -0.12)">
       <use transform="translate(0 0.390625)" xlink:href="#Cmr10-48"/>
       <use transform="translate(50 0.390625)" xlink:href="#Cmr10-46"/>
       <use transform="translate(77.685547 0.390625)" xlink:href="#Cmr10-48"/>
       <use transform="translate(127.685547 0.390625)" xlink:href="#Cmr10-52"/>
      </g>
     </g>
    </g>
    <g id="ytick_4">
     <g id="line2d_49">
      <g>
       <use style="stroke:#000000;stroke-width:0.5;" x="43.86024" xlink:href="#m04eea2e3ae" y="7.163902"/>
      </g>
     </g>
     <g id="line2d_50">
      <g>
       <use style="stroke:#000000;stroke-width:0.5;" x="243.117878" xlink:href="#m9967c575bc" y="7.163902"/>
      </g>
     </g>
     <g id="text_11">
      <!-- $\mathdefault{0.06}$ -->
      <g transform="translate(19.00024 11.32734)scale(0.12 -0.12)">
       <use transform="translate(0 0.390625)" xlink:href="#Cmr10-48"/>
       <use transform="translate(50 0.390625)" xlink:href="#Cmr10-46"/>
       <use transform="translate(77.685547 0.390625)" xlink:href="#Cmr10-48"/>
       <use transform="translate(127.685547 0.390625)" xlink:href="#Cmr10-54"/>
      </g>
     </g>
    </g>
    <g id="ytick_5">
     <g id="line2d_51">
      <defs>
       <path d="M 0 0 
L 2.5 0 
" id="m98b7c39260" style="stroke:#000000;stroke-width:0.5;"/>
      </defs>
      <g>
       <use style="stroke:#000000;stroke-width:0.5;" x="43.86024" xlink:href="#m98b7c39260" y="139.103478"/>
      </g>
     </g>
     <g id="line2d_52">
      <defs>
       <path d="M 0 0 
L -2.5 0 
" id="med72b597d5" style="stroke:#000000;stroke-width:0.5;"/>
      </defs>
      <g>
       <use style="stroke:#000000;stroke-width:0.5;" x="243.117878" xlink:href="#med72b597d5" y="139.103478"/>
      </g>
     </g>
    </g>
    <g id="ytick_6">
     <g id="line2d_53">
      <g>
       <use style="stroke:#000000;stroke-width:0.5;" x="43.86024" xlink:href="#m98b7c39260" y="127.108971"/>
      </g>
     </g>
     <g id="line2d_54">
      <g>
       <use style="stroke:#000000;stroke-width:0.5;" x="243.117878" xlink:href="#med72b597d5" y="127.108971"/>
      </g>
     </g>
    </g>
    <g id="ytick_7">
     <g id="line2d_55">
      <g>
       <use style="stroke:#000000;stroke-width:0.5;" x="43.86024" xlink:href="#m98b7c39260" y="115.114464"/>
      </g>
     </g>
     <g id="line2d_56">
      <g>
       <use style="stroke:#000000;stroke-width:0.5;" x="243.117878" xlink:href="#med72b597d5" y="115.114464"/>
      </g>
     </g>
    </g>
    <g id="ytick_8">
     <g id="line2d_57">
      <g>
       <use style="stroke:#000000;stroke-width:0.5;" x="43.86024" xlink:href="#m98b7c39260" y="91.12545"/>
      </g>
     </g>
     <g id="line2d_58">
      <g>
       <use style="stroke:#000000;stroke-width:0.5;" x="243.117878" xlink:href="#med72b597d5" y="91.12545"/>
      </g>
     </g>
    </g>
    <g id="ytick_9">
     <g id="line2d_59">
      <g>
       <use style="stroke:#000000;stroke-width:0.5;" x="43.86024" xlink:href="#m98b7c39260" y="79.130943"/>
      </g>
     </g>
     <g id="line2d_60">
      <g>
       <use style="stroke:#000000;stroke-width:0.5;" x="243.117878" xlink:href="#med72b597d5" y="79.130943"/>
      </g>
     </g>
    </g>
    <g id="ytick_10">
     <g id="line2d_61">
      <g>
       <use style="stroke:#000000;stroke-width:0.5;" x="43.86024" xlink:href="#m98b7c39260" y="67.136437"/>
      </g>
     </g>
     <g id="line2d_62">
      <g>
       <use style="stroke:#000000;stroke-width:0.5;" x="243.117878" xlink:href="#med72b597d5" y="67.136437"/>
      </g>
     </g>
    </g>
    <g id="ytick_11">
     <g id="line2d_63">
      <g>
       <use style="stroke:#000000;stroke-width:0.5;" x="43.86024" xlink:href="#m98b7c39260" y="43.147423"/>
      </g>
     </g>
     <g id="line2d_64">
      <g>
       <use style="stroke:#000000;stroke-width:0.5;" x="243.117878" xlink:href="#med72b597d5" y="43.147423"/>
      </g>
     </g>
    </g>
    <g id="ytick_12">
     <g id="line2d_65">
      <g>
       <use style="stroke:#000000;stroke-width:0.5;" x="43.86024" xlink:href="#m98b7c39260" y="31.152916"/>
      </g>
     </g>
     <g id="line2d_66">
      <g>
       <use style="stroke:#000000;stroke-width:0.5;" x="243.117878" xlink:href="#med72b597d5" y="31.152916"/>
      </g>
     </g>
    </g>
    <g id="ytick_13">
     <g id="line2d_67">
      <g>
       <use style="stroke:#000000;stroke-width:0.5;" x="43.86024" xlink:href="#m98b7c39260" y="19.158409"/>
      </g>
     </g>
     <g id="line2d_68">
      <g>
       <use style="stroke:#000000;stroke-width:0.5;" x="243.117878" xlink:href="#med72b597d5" y="19.158409"/>
      </g>
     </g>
    </g>
    <g id="text_12">
     <!-- $H_x\;\rm{(A/m)}$ -->
     <g transform="translate(12.00024 104.92642)rotate(-90)scale(0.12 -0.12)">
      <defs>
       <path d="M 4.6875 0 
Q 3.71875 0 3.71875 1.3125 
Q 3.765625 1.5625 3.90625 2.171875 
Q 4.046875 2.78125 4.3125 3.140625 
Q 4.59375 3.515625 4.984375 3.515625 
Q 11.078125 3.515625 13.484375 4.203125 
Q 14.796875 4.640625 15.375 6.890625 
L 29.109375 61.8125 
Q 29.296875 62.796875 29.296875 63.1875 
Q 29.296875 64.265625 28.078125 64.40625 
Q 26.21875 64.796875 20.90625 64.796875 
Q 19.921875 64.796875 19.921875 66.109375 
Q 20.265625 67.390625 20.453125 67.84375 
Q 20.65625 68.3125 21.578125 68.3125 
L 48.484375 68.3125 
Q 49.515625 68.3125 49.515625 67 
Q 49.46875 66.75 49.3125 66.15625 
Q 49.171875 65.578125 48.921875 65.1875 
Q 48.6875 64.796875 48.1875 64.796875 
Q 42.09375 64.796875 39.703125 64.109375 
Q 38.375 63.625 37.796875 61.375 
L 31.78125 37.3125 
L 61.8125 37.3125 
L 67.921875 61.8125 
Q 68.109375 62.796875 68.109375 63.1875 
Q 68.109375 64.265625 66.890625 64.40625 
Q 64.984375 64.796875 59.71875 64.796875 
Q 58.6875 64.796875 58.6875 66.109375 
Q 59.03125 67.390625 59.21875 67.84375 
Q 59.421875 68.3125 60.40625 68.3125 
L 87.3125 68.3125 
Q 88.28125 68.3125 88.28125 67 
Q 88.234375 66.75 88.078125 66.140625 
Q 87.9375 65.53125 87.671875 65.15625 
Q 87.40625 64.796875 87.015625 64.796875 
Q 80.90625 64.796875 78.515625 64.109375 
Q 77.203125 63.671875 76.609375 61.375 
L 62.890625 6.5 
Q 62.703125 5.515625 62.703125 5.078125 
Q 62.703125 4.046875 63.921875 3.90625 
Q 65.828125 3.515625 71.09375 3.515625 
Q 72.125 3.515625 72.125 2.203125 
Q 71.828125 1.03125 71.53125 0.515625 
Q 71.234375 0 70.40625 0 
L 43.5 0 
Q 42.484375 0 42.484375 1.3125 
Q 42.671875 2.046875 42.765625 2.390625 
Q 42.875 2.734375 43.140625 3.125 
Q 43.40625 3.515625 43.796875 3.515625 
Q 49.90625 3.515625 52.296875 4.203125 
Q 53.609375 4.640625 54.203125 6.890625 
L 60.890625 33.796875 
L 30.90625 33.796875 
L 24.125 6.5 
Q 23.875 5.28125 23.875 5.078125 
Q 23.875 4.046875 25.09375 3.90625 
Q 27 3.515625 32.328125 3.515625 
Q 33.296875 3.515625 33.296875 2.203125 
Q 32.953125 0.875 32.734375 0.4375 
Q 32.515625 0 31.59375 0 
z
" id="Cmmi10-72"/>
       <path d="M 7.8125 2.875 
Q 9.578125 1.515625 12.796875 1.515625 
Q 15.921875 1.515625 18.3125 4.515625 
Q 20.703125 7.515625 21.578125 11.078125 
L 26.125 28.8125 
Q 27.203125 33.640625 27.203125 35.40625 
Q 27.203125 37.890625 25.8125 39.75 
Q 24.421875 41.609375 21.921875 41.609375 
Q 18.75 41.609375 15.96875 39.625 
Q 13.1875 37.640625 11.28125 34.59375 
Q 9.375 31.546875 8.59375 28.421875 
Q 8.40625 27.78125 7.8125 27.78125 
L 6.59375 27.78125 
Q 5.8125 27.78125 5.8125 28.71875 
L 5.8125 29 
Q 6.78125 32.71875 9.125 36.25 
Q 11.46875 39.796875 14.859375 41.984375 
Q 18.265625 44.1875 22.125 44.1875 
Q 25.78125 44.1875 28.734375 42.234375 
Q 31.6875 40.28125 32.90625 36.921875 
Q 34.625 39.984375 37.28125 42.078125 
Q 39.9375 44.1875 43.109375 44.1875 
Q 45.265625 44.1875 47.5 43.421875 
Q 49.75 42.671875 51.171875 41.109375 
Q 52.59375 39.546875 52.59375 37.203125 
Q 52.59375 34.671875 50.953125 32.828125 
Q 49.3125 31 46.78125 31 
Q 45.171875 31 44.09375 32.03125 
Q 43.015625 33.0625 43.015625 34.625 
Q 43.015625 36.71875 44.453125 38.296875 
Q 45.90625 39.890625 47.90625 40.1875 
Q 46.09375 41.609375 42.921875 41.609375 
Q 39.703125 41.609375 37.328125 38.625 
Q 34.96875 35.640625 33.984375 31.984375 
L 29.59375 14.3125 
Q 28.515625 10.296875 28.515625 7.71875 
Q 28.515625 5.171875 29.953125 3.34375 
Q 31.390625 1.515625 33.796875 1.515625 
Q 38.484375 1.515625 42.15625 5.640625 
Q 45.84375 9.765625 47.015625 14.703125 
Q 47.21875 15.28125 47.796875 15.28125 
L 49.03125 15.28125 
Q 49.421875 15.28125 49.65625 15.015625 
Q 49.90625 14.75 49.90625 14.40625 
Q 49.90625 14.3125 49.8125 14.109375 
Q 48.390625 8.15625 43.84375 3.515625 
Q 39.3125 -1.125 33.59375 -1.125 
Q 29.9375 -1.125 26.984375 0.84375 
Q 24.03125 2.828125 22.796875 6.203125 
Q 21.234375 3.265625 18.46875 1.0625 
Q 15.71875 -1.125 12.59375 -1.125 
Q 10.453125 -1.125 8.171875 -0.359375 
Q 5.90625 0.390625 4.484375 1.953125 
Q 3.078125 3.515625 3.078125 5.90625 
Q 3.078125 8.25 4.703125 10.171875 
Q 6.34375 12.109375 8.796875 12.109375 
Q 10.453125 12.109375 11.578125 11.109375 
Q 12.703125 10.109375 12.703125 8.5 
Q 12.703125 6.390625 11.296875 4.828125 
Q 9.90625 3.265625 7.8125 2.875 
z
" id="Cmmi10-120"/>
       <path d="M 3.21875 0 
L 3.21875 3.515625 
Q 12.15625 3.515625 14.203125 9.421875 
L 35.203125 70.515625 
Q 35.5 71.578125 36.8125 71.578125 
L 38.09375 71.578125 
Q 39.40625 71.578125 39.703125 70.515625 
L 61.625 6.6875 
Q 62.546875 4.59375 65.15625 4.046875 
Q 67.78125 3.515625 71.6875 3.515625 
L 71.6875 0 
L 43.796875 0 
L 43.796875 3.515625 
Q 52.09375 3.515625 52.09375 6.203125 
L 52.09375 6.6875 
L 46.6875 22.3125 
L 22.40625 22.3125 
L 17.921875 9.421875 
Q 17.828125 9.078125 17.828125 8.40625 
Q 17.828125 5.90625 20.1875 4.703125 
Q 22.5625 3.515625 25.296875 3.515625 
L 25.296875 0 
z
M 23.578125 25.78125 
L 45.515625 25.78125 
L 34.515625 57.71875 
z
" id="Cmr10-65"/>
       <path d="M 5.609375 -23 
Q 5.609375 -22.703125 5.71875 -22.609375 
L 40.484375 73.78125 
Q 40.671875 74.359375 41.15625 74.671875 
Q 41.65625 75 42.28125 75 
Q 43.171875 75 43.71875 74.453125 
Q 44.28125 73.921875 44.28125 73 
L 44.28125 72.609375 
L 9.515625 -23.78125 
Q 8.9375 -25 7.625 -25 
Q 6.78125 -25 6.1875 -24.40625 
Q 5.609375 -23.828125 5.609375 -23 
z
" id="Cmmi10-61"/>
      </defs>
      <use xlink:href="#Cmmi10-72"/>
      <use transform="translate(83.105469 -17.00625)scale(0.7)" xlink:href="#Cmmi10-120"/>
      <use transform="translate(153.825998 0)" xlink:href="#Cmr10-40"/>
      <use transform="translate(192.644357 0)" xlink:href="#Cmr10-65"/>
      <use transform="translate(267.644357 0)" xlink:href="#Cmmi10-61"/>
      <use transform="translate(317.644357 0)" xlink:href="#Cmr10-109"/>
      <use transform="translate(400.945139 0)" xlink:href="#Cmr10-41"/>
     </g>
    </g>
   </g>
   <g id="line2d_69">
    <path clip-path="url(#p294ee3ffac)" d="M 43.86024 151.097984 
L 63.786004 150.570226 
L 83.711768 150.007444 
L 103.637532 149.205251 
L 123.563295 147.451654 
L 143.489059 139.151456 
L 163.414823 122.814937 
L 183.340587 92.276923 
L 203.266351 62.938359 
L 223.192115 51.951391 
L 243.117878 58.116567 
" style="fill:none;stroke:#000000;stroke-linecap:square;stroke-width:1.5;"/>
    <defs>
     <path d="M 0 1.5 
C 0.397805 1.5 0.77937 1.341951 1.06066 1.06066 
C 1.341951 0.77937 1.5 0.397805 1.5 0 
C 1.5 -0.397805 1.341951 -0.77937 1.06066 -1.06066 
C 0.77937 -1.341951 0.397805 -1.5 0 -1.5 
C -0.397805 -1.5 -0.77937 -1.341951 -1.06066 -1.06066 
C -1.341951 -0.77937 -1.5 -0.397805 -1.5 0 
C -1.5 0.397805 -1.341951 0.77937 -1.06066 1.06066 
C -0.77937 1.341951 -0.397805 1.5 0 1.5 
z
" id="mf7201e8739" style="stroke:#000000;"/>
    </defs>
    <g clip-path="url(#p294ee3ffac)">
     <use style="stroke:#000000;" x="43.86024" xlink:href="#mf7201e8739" y="151.097984"/>
     <use style="stroke:#000000;" x="63.786004" xlink:href="#mf7201e8739" y="150.570226"/>
     <use style="stroke:#000000;" x="83.711768" xlink:href="#mf7201e8739" y="150.007444"/>
     <use style="stroke:#000000;" x="103.637532" xlink:href="#mf7201e8739" y="149.205251"/>
     <use style="stroke:#000000;" x="123.563295" xlink:href="#mf7201e8739" y="147.451654"/>
     <use style="stroke:#000000;" x="143.489059" xlink:href="#mf7201e8739" y="139.151456"/>
     <use style="stroke:#000000;" x="163.414823" xlink:href="#mf7201e8739" y="122.814937"/>
     <use style="stroke:#000000;" x="183.340587" xlink:href="#mf7201e8739" y="92.276923"/>
     <use style="stroke:#000000;" x="203.266351" xlink:href="#mf7201e8739" y="62.938359"/>
     <use style="stroke:#000000;" x="223.192115" xlink:href="#mf7201e8739" y="51.951391"/>
     <use style="stroke:#000000;" x="243.117878" xlink:href="#mf7201e8739" y="58.116567"/>
    </g>
   </g>
   <g id="line2d_70">
    <path clip-path="url(#p294ee3ffac)" d="M 43.86024 151.097984 
L 63.786004 151.009705 
L 83.711768 150.913989 
L 103.637532 150.783009 
L 123.563295 150.318821 
L 143.489059 148.243292 
L 163.414823 143.90128 
L 183.340587 132.24262 
L 203.266351 118.281014 
L 223.192115 108.685408 
L 243.117878 111.060321 
" style="fill:none;stroke:#dc143c;stroke-linecap:square;stroke-width:1.5;"/>
    <defs>
     <path d="M 0 -1.5 
L -1.5 1.5 
L 1.5 1.5 
z
" id="m77fc40b89b" style="stroke:#dc143c;stroke-linejoin:miter;"/>
    </defs>
    <g clip-path="url(#p294ee3ffac)">
     <use style="fill:#dc143c;stroke:#dc143c;stroke-linejoin:miter;" x="43.86024" xlink:href="#m77fc40b89b" y="151.097984"/>
     <use style="fill:#dc143c;stroke:#dc143c;stroke-linejoin:miter;" x="63.786004" xlink:href="#m77fc40b89b" y="151.009705"/>
     <use style="fill:#dc143c;stroke:#dc143c;stroke-linejoin:miter;" x="83.711768" xlink:href="#m77fc40b89b" y="150.913989"/>
     <use style="fill:#dc143c;stroke:#dc143c;stroke-linejoin:miter;" x="103.637532" xlink:href="#m77fc40b89b" y="150.783009"/>
     <use style="fill:#dc143c;stroke:#dc143c;stroke-linejoin:miter;" x="123.563295" xlink:href="#m77fc40b89b" y="150.318821"/>
     <use style="fill:#dc143c;stroke:#dc143c;stroke-linejoin:miter;" x="143.489059" xlink:href="#m77fc40b89b" y="148.243292"/>
     <use style="fill:#dc143c;stroke:#dc143c;stroke-linejoin:miter;" x="163.414823" xlink:href="#m77fc40b89b" y="143.90128"/>
     <use style="fill:#dc143c;stroke:#dc143c;stroke-linejoin:miter;" x="183.340587" xlink:href="#m77fc40b89b" y="132.24262"/>
     <use style="fill:#dc143c;stroke:#dc143c;stroke-linejoin:miter;" x="203.266351" xlink:href="#m77fc40b89b" y="118.281014"/>
     <use style="fill:#dc143c;stroke:#dc143c;stroke-linejoin:miter;" x="223.192115" xlink:href="#m77fc40b89b" y="108.685408"/>
     <use style="fill:#dc143c;stroke:#dc143c;stroke-linejoin:miter;" x="243.117878" xlink:href="#m77fc40b89b" y="111.060321"/>
    </g>
   </g>
   <g id="line2d_71">
    <path clip-path="url(#p294ee3ffac)" d="M 43.86024 151.097984 
L 63.786004 151.052573 
L 83.711768 151.004667 
L 103.637532 150.93366 
L 123.563295 150.484825 
L 143.489059 148.195314 
L 163.414823 142.917731 
L 183.340587 128.284432 
L 203.266351 93.716264 
L 223.192115 45.546324 
L 243.117878 30.145378 
" style="fill:none;stroke:#0c5da5;stroke-linecap:square;stroke-width:1.5;"/>
    <defs>
     <path d="M -1.5 1.5 
L 1.5 1.5 
L 1.5 -1.5 
L -1.5 -1.5 
z
" id="mfc26364ad8" style="stroke:#0c5da5;stroke-linejoin:miter;"/>
    </defs>
    <g clip-path="url(#p294ee3ffac)">
     <use style="fill:#0c5da5;stroke:#0c5da5;stroke-linejoin:miter;" x="43.86024" xlink:href="#mfc26364ad8" y="151.097984"/>
     <use style="fill:#0c5da5;stroke:#0c5da5;stroke-linejoin:miter;" x="63.786004" xlink:href="#mfc26364ad8" y="151.052573"/>
     <use style="fill:#0c5da5;stroke:#0c5da5;stroke-linejoin:miter;" x="83.711768" xlink:href="#mfc26364ad8" y="151.004667"/>
     <use style="fill:#0c5da5;stroke:#0c5da5;stroke-linejoin:miter;" x="103.637532" xlink:href="#mfc26364ad8" y="150.93366"/>
     <use style="fill:#0c5da5;stroke:#0c5da5;stroke-linejoin:miter;" x="123.563295" xlink:href="#mfc26364ad8" y="150.484825"/>
     <use style="fill:#0c5da5;stroke:#0c5da5;stroke-linejoin:miter;" x="143.489059" xlink:href="#mfc26364ad8" y="148.195314"/>
     <use style="fill:#0c5da5;stroke:#0c5da5;stroke-linejoin:miter;" x="163.414823" xlink:href="#mfc26364ad8" y="142.917731"/>
     <use style="fill:#0c5da5;stroke:#0c5da5;stroke-linejoin:miter;" x="183.340587" xlink:href="#mfc26364ad8" y="128.284432"/>
     <use style="fill:#0c5da5;stroke:#0c5da5;stroke-linejoin:miter;" x="203.266351" xlink:href="#mfc26364ad8" y="93.716264"/>
     <use style="fill:#0c5da5;stroke:#0c5da5;stroke-linejoin:miter;" x="223.192115" xlink:href="#mfc26364ad8" y="45.546324"/>
     <use style="fill:#0c5da5;stroke:#0c5da5;stroke-linejoin:miter;" x="243.117878" xlink:href="#mfc26364ad8" y="30.145378"/>
    </g>
   </g>
   <g id="patch_3">
    <path d="M 43.86024 151.097984 
L 43.86024 5.954856 
" style="fill:none;stroke:#000000;stroke-linecap:square;stroke-linejoin:miter;stroke-width:0.5;"/>
   </g>
   <g id="patch_4">
    <path d="M 243.117878 151.097984 
L 243.117878 5.954856 
" style="fill:none;stroke:#000000;stroke-linecap:square;stroke-linejoin:miter;stroke-width:0.5;"/>
   </g>
   <g id="patch_5">
    <path d="M 43.86024 151.097984 
L 243.117878 151.097984 
" style="fill:none;stroke:#000000;stroke-linecap:square;stroke-linejoin:miter;stroke-width:0.5;"/>
   </g>
   <g id="patch_6">
    <path d="M 43.86024 5.954856 
L 243.117878 5.954856 
" style="fill:none;stroke:#000000;stroke-linecap:square;stroke-linejoin:miter;stroke-width:0.5;"/>
   </g>
   <g id="legend_1">
    <g id="line2d_72">
     <path d="M 54.66024 21.976731 
L 78.66024 21.976731 
" style="fill:none;stroke:#000000;stroke-linecap:square;stroke-width:1.5;"/>
    </g>
    <g id="line2d_73">
     <g>
      <use style="stroke:#000000;" x="66.66024" xlink:href="#mf7201e8739" y="21.976731"/>
     </g>
    </g>
    <g id="text_13">
     <!--  -->
     <g transform="translate(88.26024 26.176731)scale(0.12 -0.12)">
      <defs>
       <path d="M 38.28125 70.3125 
L 38.28125 41.015625 
L 62.5 41.015625 
L 62.5 70.3125 
z
M 68.359375 38.671875 
L 68.359375 8.203125 
Q 68.359375 0.78125 68.75 -6.25 
L 62.109375 -8.59375 
Q 62.5 3.125 62.5 11.328125 
L 62.5 38.671875 
L 38.28125 38.671875 
Q 37.890625 21.875 30.859375 10.734375 
Q 23.828125 -0.390625 7.03125 -9.375 
L 5.859375 -8.203125 
Q 18.75 0 25.390625 10.546875 
Q 32.03125 21.09375 32.421875 38.671875 
L 17.1875 38.671875 
Q 12.109375 38.671875 7.8125 37.5 
L 4.296875 41.015625 
L 32.421875 41.015625 
L 32.421875 70.3125 
L 22.65625 70.3125 
Q 17.578125 70.3125 13.28125 69.140625 
L 9.765625 72.65625 
L 76.5625 72.65625 
L 82.421875 78.515625 
L 90.625 70.3125 
L 68.359375 70.3125 
L 68.359375 41.015625 
L 80.859375 41.015625 
L 87.109375 47.265625 
L 95.703125 38.671875 
z
" id="SimSun-24320"/>
       <path d="M 13.28125 26.953125 
L 34.375 29.296875 
L 34.765625 27.734375 
Q 14.84375 23.4375 10.546875 19.53125 
L 6.640625 26.5625 
Q 9.375 27.34375 12.890625 31.046875 
Q 16.40625 34.765625 23.828125 47.65625 
Q 11.328125 44.53125 8.203125 42.1875 
L 5.078125 49.21875 
Q 7.8125 48.4375 13.46875 59.375 
Q 19.140625 70.3125 21.875 80.46875 
L 29.296875 75.390625 
L 25.78125 73.4375 
Q 17.578125 58.984375 9.765625 48.828125 
L 24.609375 49.609375 
Q 28.515625 56.25 30.859375 62.109375 
L 37.5 56.640625 
L 33.984375 54.6875 
Q 22.265625 39.0625 13.28125 26.953125 
z
M 4.296875 7.421875 
Q 8.59375 7.8125 16.984375 9.765625 
Q 25.390625 11.71875 35.9375 14.84375 
L 36.328125 12.890625 
Q 23.828125 8.203125 17.375 5.65625 
Q 10.9375 3.125 7.421875 0 
z
M 63.671875 67.96875 
Q 67.578125 60.9375 71.484375 57.03125 
Q 75.390625 61.328125 79.296875 67.96875 
z
M 71.875 51.5625 
Q 69.53125 50 69.140625 49.609375 
L 76.5625 45.3125 
L 73.828125 42.96875 
L 73.828125 38.671875 
L 81.640625 38.671875 
L 85.15625 42.1875 
L 90.625 36.328125 
L 73.828125 36.328125 
L 73.828125 27.34375 
L 80.078125 27.34375 
L 83.59375 30.859375 
L 89.0625 25 
L 73.828125 25 
L 73.828125 16.015625 
L 84.765625 16.015625 
L 88.671875 19.921875 
L 94.53125 13.671875 
L 73.828125 13.671875 
Q 73.828125 5.46875 74.21875 1.5625 
L 68.75 -0.390625 
Q 69.140625 7.03125 69.140625 13.671875 
L 61.71875 13.671875 
Q 56.640625 13.671875 52.34375 12.5 
L 48.828125 16.015625 
L 69.140625 16.015625 
L 69.140625 25 
L 66.015625 25 
Q 60.9375 25 56.640625 23.828125 
L 53.125 27.34375 
L 69.140625 27.34375 
L 69.140625 36.328125 
L 65.234375 36.328125 
Q 60.15625 36.328125 55.859375 35.15625 
L 52.34375 38.671875 
L 69.140625 38.671875 
L 69.140625 49.609375 
Q 60.15625 44.140625 48.4375 39.84375 
L 48.046875 41.40625 
Q 60.15625 46.875 69.140625 54.6875 
Q 66.015625 58.59375 62.5 66.796875 
Q 57.421875 58.203125 49.609375 50.78125 
L 48.4375 51.5625 
Q 54.296875 59.375 57.8125 66.984375 
Q 61.328125 74.609375 62.890625 82.03125 
L 70.3125 77.734375 
L 67.1875 75.78125 
L 64.453125 70.3125 
L 79.6875 70.3125 
L 82.8125 73.4375 
L 87.5 68.75 
L 84.375 66.796875 
Q 78.90625 58.59375 74.609375 54.296875 
Q 82.03125 48.828125 96.09375 47.265625 
L 96.09375 46.09375 
Q 90.234375 45.703125 89.453125 42.1875 
Q 78.515625 46.09375 71.875 51.5625 
z
M 35.546875 73.828125 
Q 45.703125 68.75 46.484375 65.421875 
Q 47.265625 62.109375 45.703125 60.34375 
Q 44.140625 58.59375 43.359375 58.59375 
Q 42.1875 58.59375 41.40625 61.71875 
Q 39.84375 66.40625 34.765625 73.046875 
z
M 32.421875 -7.03125 
L 27.34375 -2.734375 
Q 34.765625 2.34375 39.84375 5.46875 
L 39.84375 38.671875 
Q 35.546875 38.671875 31.25 37.5 
L 27.734375 41.015625 
L 39.0625 41.015625 
L 42.1875 44.921875 
L 48.046875 39.84375 
L 44.53125 37.890625 
L 44.53125 5.46875 
Q 51.5625 -2.34375 64.84375 -2.53125 
Q 78.125 -2.734375 96.09375 -0.78125 
L 96.09375 -1.953125 
Q 89.0625 -3.90625 89.453125 -7.421875 
Q 70.703125 -7.8125 64.25 -7.21875 
Q 57.8125 -6.640625 52.921875 -4.296875 
Q 48.046875 -1.953125 45.3125 1.5625 
Q 43.75 3.515625 42.1875 3.515625 
Q 41.015625 3.515625 38.671875 1.171875 
Q 36.328125 -1.171875 32.421875 -7.03125 
z
" id="SimSun-32541"/>
      </defs>
      <use xlink:href="#SimSun-24320"/>
      <use x="100" xlink:href="#SimSun-32541"/>
     </g>
    </g>
    <g id="line2d_74">
     <path d="M 54.66024 38.898606 
L 78.66024 38.898606 
" style="fill:none;stroke:#dc143c;stroke-linecap:square;stroke-width:1.5;"/>
    </g>
    <g id="line2d_75">
     <g>
      <use style="fill:#dc143c;stroke:#dc143c;stroke-linejoin:miter;" x="66.66024" xlink:href="#m77fc40b89b" y="38.898606"/>
     </g>
    </g>
    <g id="text_14">
     <!--  -->
     <g transform="translate(88.26024 43.098606)scale(0.12 -0.12)">
      <defs>
       <path d="M 19.921875 32.8125 
L 68.75 32.8125 
L 73.828125 37.5 
L 80.859375 30.46875 
L 52.734375 30.46875 
L 52.734375 -2.34375 
L 79.6875 -2.34375 
L 85.546875 3.515625 
L 93.359375 -4.6875 
L 19.921875 -4.6875 
Q 14.84375 -4.6875 10.546875 -5.859375 
L 7.03125 -2.34375 
L 46.875 -2.34375 
L 46.875 30.46875 
L 32.8125 30.46875 
Q 27.734375 30.46875 23.4375 29.296875 
z
M 41.40625 80.859375 
Q 50 78.515625 52.34375 76.171875 
Q 54.6875 73.828125 54.6875 71.484375 
Q 54.6875 69.53125 53.515625 67.578125 
Q 52.34375 65.625 51.5625 65.625 
Q 50.390625 65.625 49.21875 68.75 
Q 47.265625 73.828125 40.625 79.6875 
z
M 78.90625 51.5625 
L 83.59375 62.5 
L 18.359375 62.5 
Q 19.53125 53.125 16.59375 51.75 
Q 13.671875 50.390625 11.71875 50.390625 
Q 10.15625 50.390625 8.984375 50.78125 
Q 7.8125 51.171875 7.8125 51.953125 
Q 7.8125 52.34375 8.984375 53.90625 
Q 10.9375 55.859375 13.078125 59.171875 
Q 15.234375 62.5 16.40625 69.140625 
L 18.359375 69.140625 
L 18.359375 64.84375 
L 82.8125 64.84375 
L 86.328125 69.53125 
L 94.53125 61.328125 
Q 88.28125 61.328125 80.078125 50.78125 
z
M 44.140625 53.515625 
L 40.625 52.34375 
Q 22.265625 37.5 9.375 32.8125 
L 8.59375 33.984375 
Q 18.359375 39.84375 25.578125 46.28125 
Q 32.8125 52.734375 37.5 60.15625 
z
M 57.421875 57.421875 
Q 70.3125 53.125 77.734375 49.609375 
Q 85.15625 46.09375 85.9375 43.546875 
Q 86.71875 41.015625 86.71875 40.234375 
Q 86.71875 39.0625 86.125 37.5 
Q 85.546875 35.9375 84.765625 35.9375 
Q 83.203125 35.9375 81.25 38.28125 
Q 77.734375 41.796875 71.671875 46.484375 
Q 65.625 51.171875 56.640625 55.859375 
z
" id="SimSun-31354"/>
       <path d="M 27.34375 81.640625 
L 36.71875 76.171875 
L 32.8125 74.609375 
Q 29.6875 69.53125 27.734375 66.40625 
L 75 66.40625 
L 80.859375 72.265625 
L 89.0625 64.0625 
L 26.953125 64.0625 
Q 17.578125 48.046875 5.46875 37.890625 
L 4.296875 38.671875 
Q 14.453125 50.78125 20.109375 62.6875 
Q 25.78125 74.609375 27.34375 81.640625 
z
M 26.5625 54.296875 
L 68.359375 54.296875 
L 73.046875 58.984375 
L 80.078125 51.953125 
L 40.234375 51.953125 
Q 33.59375 51.953125 30.078125 50.78125 
z
M 16.796875 42.1875 
L 65.625 42.1875 
L 69.140625 46.484375 
L 75.78125 41.40625 
L 71.875 38.671875 
Q 71.875 30.859375 72.65625 22.0625 
Q 73.4375 13.28125 76.171875 7.421875 
Q 78.90625 1.5625 85.9375 -1.171875 
Q 87.5 2.734375 89.453125 14.0625 
L 91.015625 13.671875 
Q 90.625 8.203125 90.8125 1.75 
Q 91.015625 -4.6875 92.578125 -7.8125 
Q 93.359375 -9.375 91.796875 -9.375 
Q 90.234375 -9.375 84.765625 -7.609375 
Q 79.296875 -5.859375 74.609375 -0.390625 
Q 69.921875 5.078125 68.15625 14.640625 
Q 66.40625 24.21875 66.796875 39.84375 
L 29.6875 39.84375 
Q 24.609375 39.84375 20.3125 38.671875 
z
" id="SimSun-27668"/>
      </defs>
      <use xlink:href="#SimSun-31354"/>
      <use x="100" xlink:href="#SimSun-27668"/>
     </g>
    </g>
    <g id="line2d_76">
     <path d="M 54.66024 55.914231 
L 78.66024 55.914231 
" style="fill:none;stroke:#0c5da5;stroke-linecap:square;stroke-width:1.5;"/>
    </g>
    <g id="line2d_77">
     <g>
      <use style="fill:#0c5da5;stroke:#0c5da5;stroke-linejoin:miter;" x="66.66024" xlink:href="#mfc26364ad8" y="55.914231"/>
     </g>
    </g>
    <g id="text_15">
     <!--  -->
     <g transform="translate(88.26024 60.114231)scale(0.12 -0.12)">
      <defs>
       <path d="M 44.921875 -8.203125 
Q 45.3125 10.15625 45.3125 34.765625 
Q 45.3125 59.375 44.921875 75.78125 
L 50.78125 72.265625 
L 84.375 72.265625 
L 87.890625 75.78125 
L 93.359375 70.703125 
L 90.625 68.75 
L 90.625 0.78125 
Q 90.625 -1.953125 89.0625 -4.484375 
Q 87.5 -7.03125 83.203125 -8.59375 
Q 82.03125 -2.734375 72.265625 -0.390625 
L 72.265625 1.171875 
Q 81.640625 0 83.390625 0.1875 
Q 85.15625 0.390625 85.15625 2.34375 
L 85.15625 69.921875 
L 50.390625 69.921875 
L 50.390625 7.421875 
Q 50.390625 3.90625 50.78125 -5.46875 
z
M 53.515625 59.375 
Q 60.9375 52.34375 68.359375 43.75 
Q 72.65625 56.25 73.4375 64.453125 
L 81.25 60.15625 
L 78.515625 57.421875 
Q 75 46.484375 71.875 39.0625 
Q 77.34375 31.640625 79.6875 26.953125 
Q 82.03125 22.265625 81.828125 19.921875 
Q 81.640625 17.578125 80.46875 16.40625 
Q 79.296875 15.234375 78.90625 15.234375 
Q 77.734375 15.234375 76.171875 19.921875 
Q 73.828125 25.78125 69.53125 33.59375 
Q 63.28125 22.265625 52.734375 11.328125 
L 51.5625 12.5 
Q 61.71875 26.953125 66.40625 38.671875 
Q 61.328125 46.484375 52.734375 58.203125 
z
M 25.78125 5.46875 
L 42.578125 16.796875 
L 43.359375 15.625 
Q 28.90625 2.34375 23.4375 -5.078125 
L 18.75 0.78125 
Q 20.3125 2.734375 20.3125 6.640625 
L 20.3125 27.734375 
L 17.1875 27.734375 
Q 12.109375 27.734375 7.8125 26.5625 
L 4.296875 30.078125 
L 20.3125 30.078125 
L 20.3125 45.703125 
L 12.5 45.703125 
Q 8.59375 41.015625 4.296875 36.328125 
L 3.125 37.109375 
Q 15.625 55.46875 21.09375 80.46875 
L 28.90625 76.171875 
L 25.78125 73.4375 
Q 23.828125 69.140625 21.484375 63.28125 
L 33.984375 63.28125 
L 38.28125 67.578125 
L 44.53125 60.9375 
L 20.703125 60.9375 
Q 16.796875 53.125 13.671875 48.046875 
L 31.25 48.046875 
L 35.15625 51.953125 
L 41.015625 45.703125 
L 25.78125 45.703125 
L 25.78125 30.078125 
L 33.984375 30.078125 
L 38.28125 34.375 
L 44.53125 27.734375 
L 25.78125 27.734375 
z
" id="SimSun-38050"/>
       <path d="M 83.59375 46.875 
Q 76.953125 25.390625 69.53125 15.234375 
Q 80.46875 1.171875 95.3125 -2.34375 
L 95.3125 -3.90625 
Q 88.28125 -4.296875 87.109375 -8.59375 
Q 76.171875 -3.125 66.40625 11.328125 
Q 53.515625 -2.34375 34.765625 -8.203125 
L 33.984375 -7.03125 
Q 52.734375 1.5625 63.671875 15.234375 
Q 56.25 29.6875 53.90625 48.828125 
L 49.609375 48.828125 
Q 49.609375 39.0625 48.4375 28.125 
Q 47.265625 17.1875 43.359375 8.203125 
Q 39.453125 -0.78125 28.515625 -9.375 
L 27.34375 -8.203125 
Q 38.671875 3.125 41.40625 16.203125 
Q 44.140625 29.296875 44.140625 43.15625 
Q 44.140625 57.03125 43.75 71.484375 
L 49.609375 68.359375 
Q 67.578125 73.046875 72.453125 75.1875 
Q 77.34375 77.34375 81.25 79.6875 
L 87.109375 72.265625 
Q 82.421875 72.265625 75 70.703125 
Q 67.1875 69.140625 49.609375 66.40625 
L 49.609375 51.171875 
L 77.734375 51.171875 
L 81.640625 55.078125 
L 87.5 49.21875 
z
M 55.859375 48.828125 
Q 59.375 32.03125 66.796875 19.53125 
Q 73.828125 31.25 77.734375 48.828125 
z
M 25.78125 42.96875 
Q 25.78125 0.390625 26.171875 -7.8125 
L 19.921875 -10.546875 
Q 20.3125 7.03125 20.3125 38.671875 
Q 14.84375 23.046875 5.46875 11.71875 
L 4.296875 12.5 
Q 14.84375 31.25 19.53125 55.46875 
L 10.546875 55.46875 
L 7.421875 54.6875 
L 4.296875 57.8125 
L 20.3125 57.8125 
Q 20.3125 71.875 19.921875 81.25 
L 28.90625 76.5625 
L 25.78125 73.828125 
L 25.78125 57.8125 
L 30.46875 57.8125 
L 34.765625 62.109375 
L 41.40625 55.46875 
L 25.78125 55.46875 
L 25.78125 45.3125 
Q 34.765625 40.234375 36.71875 37.890625 
Q 38.671875 35.546875 38.671875 33.203125 
Q 38.671875 31.25 37.6875 28.90625 
Q 36.71875 26.5625 36.328125 26.5625 
Q 35.15625 26.5625 33.984375 30.46875 
Q 31.640625 36.328125 25.78125 42.96875 
z
" id="SimSun-26495"/>
      </defs>
      <use xlink:href="#SimSun-38050"/>
      <use x="100" xlink:href="#SimSun-26495"/>
     </g>
    </g>
   </g>
  </g>
 </g>
 <defs>
  <clipPath id="p294ee3ffac">
   <rect height="145.143128" width="199.257638" x="43.86024" y="5.954856"/>
  </clipPath>
 </defs>
</svg>
