<?xml version="1.0" encoding="utf-8" standalone="no"?>
<!DOCTYPE svg PUBLIC "-//W3C//DTD SVG 1.1//EN"
  "http://www.w3.org/Graphics/SVG/1.1/DTD/svg11.dtd">
<svg height="184.251974pt" version="1.1" viewBox="0 0 255.118118 184.251974" width="255.118118pt" xmlns="http://www.w3.org/2000/svg" xmlns:xlink="http://www.w3.org/1999/xlink">
 <metadata>
  <rdf:RDF xmlns:cc="http://creativecommons.org/ns#" xmlns:dc="http://purl.org/dc/elements/1.1/" xmlns:rdf="http://www.w3.org/1999/02/22-rdf-syntax-ns#">
   <cc:Work>
    <dc:type rdf:resource="http://purl.org/dc/dcmitype/StillImage"/>
    <dc:date>2021-06-17T17:21:34.603371</dc:date>
    <dc:format>image/svg+xml</dc:format>
    <dc:creator>
     <cc:Agent>
      <dc:title>Matplotlib v3.4.1, https://matplotlib.org/</dc:title>
     </cc:Agent>
    </dc:creator>
   </cc:Work>
  </rdf:RDF>
 </metadata>
 <defs>
  <style type="text/css">*{stroke-linecap:butt;stroke-linejoin:round;}</style>
 </defs>
 <g id="figure_1">
  <g id="patch_1">
   <path d="M 0 184.251974 
L 255.118118 184.251974 
L 255.118118 0 
L 0 0 
z
" style="fill:#ffffff;"/>
  </g>
  <g id="axes_1">
   <g id="patch_2">
    <path d="M 41.82024 152.412359 
L 243.117878 152.412359 
L 243.117878 5.946743 
L 41.82024 5.946743 
z
" style="fill:#ffffff;"/>
   </g>
   <g id="matplotlib.axis_1">
    <g id="xtick_1">
     <g id="line2d_1">
      <defs>
       <path d="M 0 0 
L 0 -3 
" id="m4653c54f94" style="stroke:#000000;stroke-width:0.5;"/>
      </defs>
      <g>
       <use style="stroke:#000000;stroke-width:0.5;" x="41.82024" xlink:href="#m4653c54f94" y="152.412359"/>
      </g>
     </g>
     <g id="line2d_2">
      <defs>
       <path d="M 0 0 
L 0 3 
" id="mdb5e2ac69b" style="stroke:#000000;stroke-width:0.5;"/>
      </defs>
      <g>
       <use style="stroke:#000000;stroke-width:0.5;" x="41.82024" xlink:href="#mdb5e2ac69b" y="5.946743"/>
      </g>
     </g>
     <g id="text_1">
      <!-- 0 -->
      <g transform="translate(38.82024 164.244859)scale(0.12 -0.12)">
       <defs>
        <path d="M 231 2094 
Q 231 2819 450 3342 
Q 669 3866 1031 4122 
Q 1313 4325 1613 4325 
Q 2100 4325 2488 3828 
Q 2972 3213 2972 2159 
Q 2972 1422 2759 906 
Q 2547 391 2217 158 
Q 1888 -75 1581 -75 
Q 975 -75 572 641 
Q 231 1244 231 2094 
z
M 844 2016 
Q 844 1141 1059 588 
Q 1238 122 1591 122 
Q 1759 122 1940 273 
Q 2122 425 2216 781 
Q 2359 1319 2359 2297 
Q 2359 3022 2209 3506 
Q 2097 3866 1919 4016 
Q 1791 4119 1609 4119 
Q 1397 4119 1231 3928 
Q 1006 3669 925 3112 
Q 844 2556 844 2016 
z
" id="TimesNewRomanPSMT-30" transform="scale(0.015625)"/>
       </defs>
       <use xlink:href="#TimesNewRomanPSMT-30"/>
      </g>
     </g>
    </g>
    <g id="xtick_2">
     <g id="line2d_3">
      <g>
       <use style="stroke:#000000;stroke-width:0.5;" x="82.079768" xlink:href="#m4653c54f94" y="152.412359"/>
      </g>
     </g>
     <g id="line2d_4">
      <g>
       <use style="stroke:#000000;stroke-width:0.5;" x="82.079768" xlink:href="#mdb5e2ac69b" y="5.946743"/>
      </g>
     </g>
     <g id="text_2">
      <!-- 20 -->
      <g transform="translate(76.079768 164.244859)scale(0.12 -0.12)">
       <defs>
        <path d="M 2934 816 
L 2638 0 
L 138 0 
L 138 116 
Q 1241 1122 1691 1759 
Q 2141 2397 2141 2925 
Q 2141 3328 1894 3587 
Q 1647 3847 1303 3847 
Q 991 3847 742 3664 
Q 494 3481 375 3128 
L 259 3128 
Q 338 3706 661 4015 
Q 984 4325 1469 4325 
Q 1984 4325 2329 3994 
Q 2675 3663 2675 3213 
Q 2675 2891 2525 2569 
Q 2294 2063 1775 1497 
Q 997 647 803 472 
L 1909 472 
Q 2247 472 2383 497 
Q 2519 522 2628 598 
Q 2738 675 2819 816 
L 2934 816 
z
" id="TimesNewRomanPSMT-32" transform="scale(0.015625)"/>
       </defs>
       <use xlink:href="#TimesNewRomanPSMT-32"/>
       <use x="50" xlink:href="#TimesNewRomanPSMT-30"/>
      </g>
     </g>
    </g>
    <g id="xtick_3">
     <g id="line2d_5">
      <g>
       <use style="stroke:#000000;stroke-width:0.5;" x="122.339295" xlink:href="#m4653c54f94" y="152.412359"/>
      </g>
     </g>
     <g id="line2d_6">
      <g>
       <use style="stroke:#000000;stroke-width:0.5;" x="122.339295" xlink:href="#mdb5e2ac69b" y="5.946743"/>
      </g>
     </g>
     <g id="text_3">
      <!-- 40 -->
      <g transform="translate(116.339295 164.244859)scale(0.12 -0.12)">
       <defs>
        <path d="M 2978 1563 
L 2978 1119 
L 2409 1119 
L 2409 0 
L 1894 0 
L 1894 1119 
L 100 1119 
L 100 1519 
L 2066 4325 
L 2409 4325 
L 2409 1563 
L 2978 1563 
z
M 1894 1563 
L 1894 3666 
L 406 1563 
L 1894 1563 
z
" id="TimesNewRomanPSMT-34" transform="scale(0.015625)"/>
       </defs>
       <use xlink:href="#TimesNewRomanPSMT-34"/>
       <use x="50" xlink:href="#TimesNewRomanPSMT-30"/>
      </g>
     </g>
    </g>
    <g id="xtick_4">
     <g id="line2d_7">
      <g>
       <use style="stroke:#000000;stroke-width:0.5;" x="162.598823" xlink:href="#m4653c54f94" y="152.412359"/>
      </g>
     </g>
     <g id="line2d_8">
      <g>
       <use style="stroke:#000000;stroke-width:0.5;" x="162.598823" xlink:href="#mdb5e2ac69b" y="5.946743"/>
      </g>
     </g>
     <g id="text_4">
      <!-- 60 -->
      <g transform="translate(156.598823 164.244859)scale(0.12 -0.12)">
       <defs>
        <path d="M 2869 4325 
L 2869 4209 
Q 2456 4169 2195 4045 
Q 1934 3922 1679 3669 
Q 1425 3416 1258 3105 
Q 1091 2794 978 2366 
Q 1428 2675 1881 2675 
Q 2316 2675 2634 2325 
Q 2953 1975 2953 1425 
Q 2953 894 2631 456 
Q 2244 -75 1606 -75 
Q 1172 -75 869 213 
Q 275 772 275 1663 
Q 275 2231 503 2743 
Q 731 3256 1154 3653 
Q 1578 4050 1965 4187 
Q 2353 4325 2688 4325 
L 2869 4325 
z
M 925 2138 
Q 869 1716 869 1456 
Q 869 1156 980 804 
Q 1091 453 1309 247 
Q 1469 100 1697 100 
Q 1969 100 2183 356 
Q 2397 613 2397 1088 
Q 2397 1622 2184 2012 
Q 1972 2403 1581 2403 
Q 1463 2403 1327 2353 
Q 1191 2303 925 2138 
z
" id="TimesNewRomanPSMT-36" transform="scale(0.015625)"/>
       </defs>
       <use xlink:href="#TimesNewRomanPSMT-36"/>
       <use x="50" xlink:href="#TimesNewRomanPSMT-30"/>
      </g>
     </g>
    </g>
    <g id="xtick_5">
     <g id="line2d_9">
      <g>
       <use style="stroke:#000000;stroke-width:0.5;" x="202.858351" xlink:href="#m4653c54f94" y="152.412359"/>
      </g>
     </g>
     <g id="line2d_10">
      <g>
       <use style="stroke:#000000;stroke-width:0.5;" x="202.858351" xlink:href="#mdb5e2ac69b" y="5.946743"/>
      </g>
     </g>
     <g id="text_5">
      <!-- 80 -->
      <g transform="translate(196.858351 164.244859)scale(0.12 -0.12)">
       <defs>
        <path d="M 1228 2134 
Q 725 2547 579 2797 
Q 434 3047 434 3316 
Q 434 3728 753 4026 
Q 1072 4325 1600 4325 
Q 2113 4325 2425 4047 
Q 2738 3769 2738 3413 
Q 2738 3175 2569 2928 
Q 2400 2681 1866 2347 
Q 2416 1922 2594 1678 
Q 2831 1359 2831 1006 
Q 2831 559 2490 242 
Q 2150 -75 1597 -75 
Q 994 -75 656 303 
Q 388 606 388 966 
Q 388 1247 577 1523 
Q 766 1800 1228 2134 
z
M 1719 2469 
Q 2094 2806 2194 3001 
Q 2294 3197 2294 3444 
Q 2294 3772 2109 3958 
Q 1925 4144 1606 4144 
Q 1288 4144 1088 3959 
Q 888 3775 888 3528 
Q 888 3366 970 3203 
Q 1053 3041 1206 2894 
L 1719 2469 
z
M 1375 2016 
Q 1116 1797 991 1539 
Q 866 1281 866 981 
Q 866 578 1086 336 
Q 1306 94 1647 94 
Q 1984 94 2187 284 
Q 2391 475 2391 747 
Q 2391 972 2272 1150 
Q 2050 1481 1375 2016 
z
" id="TimesNewRomanPSMT-38" transform="scale(0.015625)"/>
       </defs>
       <use xlink:href="#TimesNewRomanPSMT-38"/>
       <use x="50" xlink:href="#TimesNewRomanPSMT-30"/>
      </g>
     </g>
    </g>
    <g id="xtick_6">
     <g id="line2d_11">
      <g>
       <use style="stroke:#000000;stroke-width:0.5;" x="243.117878" xlink:href="#m4653c54f94" y="152.412359"/>
      </g>
     </g>
     <g id="line2d_12">
      <g>
       <use style="stroke:#000000;stroke-width:0.5;" x="243.117878" xlink:href="#mdb5e2ac69b" y="5.946743"/>
      </g>
     </g>
     <g id="text_6">
      <!-- 100 -->
      <g transform="translate(234.117878 164.244859)scale(0.12 -0.12)">
       <defs>
        <path d="M 750 3822 
L 1781 4325 
L 1884 4325 
L 1884 747 
Q 1884 391 1914 303 
Q 1944 216 2037 169 
Q 2131 122 2419 116 
L 2419 0 
L 825 0 
L 825 116 
Q 1125 122 1212 167 
Q 1300 213 1334 289 
Q 1369 366 1369 747 
L 1369 3034 
Q 1369 3497 1338 3628 
Q 1316 3728 1258 3775 
Q 1200 3822 1119 3822 
Q 1003 3822 797 3725 
L 750 3822 
z
" id="TimesNewRomanPSMT-31" transform="scale(0.015625)"/>
       </defs>
       <use xlink:href="#TimesNewRomanPSMT-31"/>
       <use x="50" xlink:href="#TimesNewRomanPSMT-30"/>
       <use x="100" xlink:href="#TimesNewRomanPSMT-30"/>
      </g>
     </g>
    </g>
    <g id="xtick_7">
     <g id="line2d_13">
      <defs>
       <path d="M 0 0 
L 0 -1.5 
" id="m463f38bf42" style="stroke:#000000;stroke-width:0.5;"/>
      </defs>
      <g>
       <use style="stroke:#000000;stroke-width:0.5;" x="51.885122" xlink:href="#m463f38bf42" y="152.412359"/>
      </g>
     </g>
     <g id="line2d_14">
      <defs>
       <path d="M 0 0 
L 0 1.5 
" id="m85054e8936" style="stroke:#000000;stroke-width:0.5;"/>
      </defs>
      <g>
       <use style="stroke:#000000;stroke-width:0.5;" x="51.885122" xlink:href="#m85054e8936" y="5.946743"/>
      </g>
     </g>
    </g>
    <g id="xtick_8">
     <g id="line2d_15">
      <g>
       <use style="stroke:#000000;stroke-width:0.5;" x="61.950004" xlink:href="#m463f38bf42" y="152.412359"/>
      </g>
     </g>
     <g id="line2d_16">
      <g>
       <use style="stroke:#000000;stroke-width:0.5;" x="61.950004" xlink:href="#m85054e8936" y="5.946743"/>
      </g>
     </g>
    </g>
    <g id="xtick_9">
     <g id="line2d_17">
      <g>
       <use style="stroke:#000000;stroke-width:0.5;" x="72.014886" xlink:href="#m463f38bf42" y="152.412359"/>
      </g>
     </g>
     <g id="line2d_18">
      <g>
       <use style="stroke:#000000;stroke-width:0.5;" x="72.014886" xlink:href="#m85054e8936" y="5.946743"/>
      </g>
     </g>
    </g>
    <g id="xtick_10">
     <g id="line2d_19">
      <g>
       <use style="stroke:#000000;stroke-width:0.5;" x="92.14465" xlink:href="#m463f38bf42" y="152.412359"/>
      </g>
     </g>
     <g id="line2d_20">
      <g>
       <use style="stroke:#000000;stroke-width:0.5;" x="92.14465" xlink:href="#m85054e8936" y="5.946743"/>
      </g>
     </g>
    </g>
    <g id="xtick_11">
     <g id="line2d_21">
      <g>
       <use style="stroke:#000000;stroke-width:0.5;" x="102.209532" xlink:href="#m463f38bf42" y="152.412359"/>
      </g>
     </g>
     <g id="line2d_22">
      <g>
       <use style="stroke:#000000;stroke-width:0.5;" x="102.209532" xlink:href="#m85054e8936" y="5.946743"/>
      </g>
     </g>
    </g>
    <g id="xtick_12">
     <g id="line2d_23">
      <g>
       <use style="stroke:#000000;stroke-width:0.5;" x="112.274413" xlink:href="#m463f38bf42" y="152.412359"/>
      </g>
     </g>
     <g id="line2d_24">
      <g>
       <use style="stroke:#000000;stroke-width:0.5;" x="112.274413" xlink:href="#m85054e8936" y="5.946743"/>
      </g>
     </g>
    </g>
    <g id="xtick_13">
     <g id="line2d_25">
      <g>
       <use style="stroke:#000000;stroke-width:0.5;" x="132.404177" xlink:href="#m463f38bf42" y="152.412359"/>
      </g>
     </g>
     <g id="line2d_26">
      <g>
       <use style="stroke:#000000;stroke-width:0.5;" x="132.404177" xlink:href="#m85054e8936" y="5.946743"/>
      </g>
     </g>
    </g>
    <g id="xtick_14">
     <g id="line2d_27">
      <g>
       <use style="stroke:#000000;stroke-width:0.5;" x="142.469059" xlink:href="#m463f38bf42" y="152.412359"/>
      </g>
     </g>
     <g id="line2d_28">
      <g>
       <use style="stroke:#000000;stroke-width:0.5;" x="142.469059" xlink:href="#m85054e8936" y="5.946743"/>
      </g>
     </g>
    </g>
    <g id="xtick_15">
     <g id="line2d_29">
      <g>
       <use style="stroke:#000000;stroke-width:0.5;" x="152.533941" xlink:href="#m463f38bf42" y="152.412359"/>
      </g>
     </g>
     <g id="line2d_30">
      <g>
       <use style="stroke:#000000;stroke-width:0.5;" x="152.533941" xlink:href="#m85054e8936" y="5.946743"/>
      </g>
     </g>
    </g>
    <g id="xtick_16">
     <g id="line2d_31">
      <g>
       <use style="stroke:#000000;stroke-width:0.5;" x="172.663705" xlink:href="#m463f38bf42" y="152.412359"/>
      </g>
     </g>
     <g id="line2d_32">
      <g>
       <use style="stroke:#000000;stroke-width:0.5;" x="172.663705" xlink:href="#m85054e8936" y="5.946743"/>
      </g>
     </g>
    </g>
    <g id="xtick_17">
     <g id="line2d_33">
      <g>
       <use style="stroke:#000000;stroke-width:0.5;" x="182.728587" xlink:href="#m463f38bf42" y="152.412359"/>
      </g>
     </g>
     <g id="line2d_34">
      <g>
       <use style="stroke:#000000;stroke-width:0.5;" x="182.728587" xlink:href="#m85054e8936" y="5.946743"/>
      </g>
     </g>
    </g>
    <g id="xtick_18">
     <g id="line2d_35">
      <g>
       <use style="stroke:#000000;stroke-width:0.5;" x="192.793469" xlink:href="#m463f38bf42" y="152.412359"/>
      </g>
     </g>
     <g id="line2d_36">
      <g>
       <use style="stroke:#000000;stroke-width:0.5;" x="192.793469" xlink:href="#m85054e8936" y="5.946743"/>
      </g>
     </g>
    </g>
    <g id="xtick_19">
     <g id="line2d_37">
      <g>
       <use style="stroke:#000000;stroke-width:0.5;" x="212.923233" xlink:href="#m463f38bf42" y="152.412359"/>
      </g>
     </g>
     <g id="line2d_38">
      <g>
       <use style="stroke:#000000;stroke-width:0.5;" x="212.923233" xlink:href="#m85054e8936" y="5.946743"/>
      </g>
     </g>
    </g>
    <g id="xtick_20">
     <g id="line2d_39">
      <g>
       <use style="stroke:#000000;stroke-width:0.5;" x="222.988115" xlink:href="#m463f38bf42" y="152.412359"/>
      </g>
     </g>
     <g id="line2d_40">
      <g>
       <use style="stroke:#000000;stroke-width:0.5;" x="222.988115" xlink:href="#m85054e8936" y="5.946743"/>
      </g>
     </g>
    </g>
    <g id="xtick_21">
     <g id="line2d_41">
      <g>
       <use style="stroke:#000000;stroke-width:0.5;" x="233.052996" xlink:href="#m463f38bf42" y="152.412359"/>
      </g>
     </g>
     <g id="line2d_42">
      <g>
       <use style="stroke:#000000;stroke-width:0.5;" x="233.052996" xlink:href="#m85054e8936" y="5.946743"/>
      </g>
     </g>
    </g>
    <g id="text_7">
     <!-- $\rm{The\;distance\;(mm)}$ -->
     <g transform="translate(97.529059 179.091734)scale(0.12 -0.12)">
      <defs>
       <path d="M 3795 3149 
L 3642 3149 
Q 3539 3674 3353 3821 
Q 3168 3968 2656 3968 
L 2278 3968 
L 2278 710 
Q 2278 346 2387 243 
Q 2496 141 2893 122 
L 2893 0 
L 1024 0 
L 1024 122 
Q 1427 147 1526 256 
Q 1626 365 1626 787 
L 1626 3968 
L 1242 3968 
Q 723 3968 540 3817 
Q 358 3667 262 3149 
L 109 3149 
L 154 4237 
L 3750 4237 
L 3795 3149 
z
" id="STIXGeneral-Regular-54" transform="scale(0.015625)"/>
       <path d="M 3117 0 
L 1760 0 
L 1760 96 
Q 2042 128 2118 224 
Q 2195 320 2195 653 
L 2195 1920 
Q 2195 2598 1722 2598 
Q 1530 2598 1370 2508 
Q 1210 2419 1005 2195 
L 1005 653 
Q 1005 320 1081 224 
Q 1158 128 1440 96 
L 1440 0 
L 58 0 
L 58 96 
Q 333 134 400 224 
Q 467 314 467 653 
L 467 3667 
Q 467 3872 406 3933 
Q 346 3994 141 3994 
Q 83 3994 64 3987 
L 64 4090 
L 237 4141 
Q 730 4288 973 4371 
L 1005 4352 
L 1005 2406 
Q 1229 2694 1446 2819 
Q 1664 2944 1946 2944 
Q 2733 2944 2733 1926 
L 2733 653 
Q 2733 320 2793 233 
Q 2854 147 3117 96 
L 3117 0 
z
" id="STIXGeneral-Regular-68" transform="scale(0.015625)"/>
       <path d="M 2611 1050 
L 2714 1005 
Q 2330 -64 1376 -64 
Q 813 -64 486 329 
Q 160 723 160 1389 
Q 160 2074 525 2509 
Q 890 2944 1485 2944 
Q 2061 2944 2374 2502 
Q 2560 2246 2592 1773 
L 621 1773 
Q 646 1370 700 1158 
Q 755 947 915 730 
Q 1184 378 1626 378 
Q 1939 378 2153 531 
Q 2368 685 2611 1050 
z
M 634 1978 
L 1939 1978 
Q 1882 2381 1750 2547 
Q 1619 2714 1312 2714 
Q 1043 2714 864 2525 
Q 685 2336 634 1978 
z
" id="STIXGeneral-Regular-65" transform="scale(0.015625)"/>
       <path d="M 3142 269 
L 2202 -64 
L 2176 -45 
L 2176 365 
Q 1869 -64 1357 -64 
Q 826 -64 499 317 
Q 173 698 173 1312 
Q 173 1990 563 2467 
Q 954 2944 1504 2944 
Q 1850 2944 2176 2669 
L 2176 3667 
Q 2176 3866 2118 3930 
Q 2061 3994 1882 3994 
Q 1792 3994 1741 3987 
L 1741 4090 
Q 2323 4243 2682 4371 
L 2714 4358 
L 2714 730 
Q 2714 506 2768 435 
Q 2822 365 2995 365 
Q 3034 365 3142 371 
L 3142 269 
z
M 2176 653 
L 2176 2125 
Q 2176 2381 1981 2573 
Q 1786 2765 1523 2765 
Q 1158 2765 940 2438 
Q 723 2112 723 1568 
Q 723 979 963 624 
Q 1203 269 1606 269 
Q 1907 269 2080 474 
Q 2176 582 2176 653 
z
" id="STIXGeneral-Regular-64" transform="scale(0.015625)"/>
       <path d="M 1152 4045 
Q 1152 3904 1056 3811 
Q 960 3718 819 3718 
Q 685 3718 592 3811 
Q 499 3904 499 4045 
Q 499 4179 595 4275 
Q 691 4371 826 4371 
Q 966 4371 1059 4275 
Q 1152 4179 1152 4045 
z
M 1619 0 
L 102 0 
L 102 96 
Q 435 115 521 211 
Q 608 307 608 666 
L 608 2118 
Q 608 2342 563 2432 
Q 518 2522 397 2522 
Q 243 2522 128 2490 
L 128 2592 
L 1120 2944 
L 1146 2918 
L 1146 672 
Q 1146 314 1226 218 
Q 1306 122 1619 96 
L 1619 0 
z
" id="STIXGeneral-Regular-69" transform="scale(0.015625)"/>
       <path d="M 998 1926 
L 1664 1523 
Q 1984 1331 2105 1164 
Q 2227 998 2227 736 
Q 2227 416 1961 176 
Q 1696 -64 1331 -64 
Q 1030 -64 864 -6 
Q 691 51 570 51 
Q 461 51 416 -26 
L 333 -26 
L 333 979 
L 435 979 
Q 538 512 730 294 
Q 922 77 1248 77 
Q 1485 77 1632 211 
Q 1779 346 1779 550 
Q 1779 845 1440 1030 
L 1094 1222 
Q 326 1651 326 2150 
Q 326 2522 566 2730 
Q 806 2938 1210 2938 
Q 1491 2938 1638 2867 
Q 1754 2816 1818 2816 
Q 1862 2816 1920 2880 
L 1990 2880 
L 2022 2010 
L 1926 2010 
Q 1818 2445 1654 2621 
Q 1491 2797 1203 2797 
Q 986 2797 854 2688 
Q 723 2579 723 2362 
Q 723 2253 796 2128 
Q 870 2003 998 1926 
z
" id="STIXGeneral-Regular-73" transform="scale(0.015625)"/>
       <path d="M 1702 493 
L 1786 422 
Q 1478 -64 1011 -64 
Q 448 -64 448 749 
L 448 2675 
L 109 2675 
Q 83 2694 83 2720 
Q 83 2771 192 2842 
Q 435 2982 813 3526 
Q 826 3546 874 3606 
Q 922 3667 941 3706 
Q 986 3706 986 3622 
L 986 2880 
L 1632 2880 
L 1632 2675 
L 986 2675 
L 986 845 
Q 986 538 1062 403 
Q 1139 269 1318 269 
Q 1510 269 1702 493 
z
" id="STIXGeneral-Regular-74" transform="scale(0.015625)"/>
       <path d="M 2829 422 
L 2829 243 
Q 2586 -64 2253 -64 
Q 1888 -64 1843 403 
L 1837 403 
Q 1427 -64 909 -64 
Q 608 -64 422 112 
Q 237 288 237 602 
Q 237 1050 685 1350 
Q 992 1555 1837 1869 
L 1837 2214 
Q 1837 2502 1699 2646 
Q 1562 2790 1338 2790 
Q 1146 2790 1018 2697 
Q 890 2605 890 2477 
Q 890 2419 909 2348 
Q 928 2278 928 2208 
Q 928 2112 841 2029 
Q 755 1946 634 1946 
Q 525 1946 441 2029 
Q 358 2112 358 2240 
Q 358 2547 685 2752 
Q 986 2944 1421 2944 
Q 1939 2944 2176 2656 
Q 2291 2522 2323 2384 
Q 2355 2246 2355 1946 
L 2355 723 
Q 2355 301 2554 301 
Q 2682 301 2829 422 
z
M 1837 813 
L 1837 1715 
Q 1248 1510 1018 1293 
Q 800 1094 800 800 
Q 800 557 921 432 
Q 1043 307 1242 307 
Q 1453 307 1613 410 
Q 1747 506 1792 589 
Q 1837 672 1837 813 
z
" id="STIXGeneral-Regular-61" transform="scale(0.015625)"/>
       <path d="M 3104 0 
L 1773 0 
L 1779 96 
Q 2016 115 2096 233 
Q 2176 352 2176 672 
L 2176 1946 
Q 2176 2592 1709 2592 
Q 1549 2592 1408 2515 
Q 1267 2438 1050 2227 
L 1050 461 
Q 1050 269 1136 192 
Q 1222 115 1466 96 
L 1466 0 
L 115 0 
L 115 96 
Q 358 115 435 214 
Q 512 314 512 602 
L 512 2157 
Q 512 2394 467 2483 
Q 422 2573 288 2573 
Q 160 2573 102 2547 
L 102 2656 
Q 550 2784 979 2944 
L 1030 2925 
L 1030 2426 
L 1037 2426 
Q 1491 2944 1958 2944 
Q 2323 2944 2518 2688 
Q 2714 2432 2714 1958 
L 2714 544 
Q 2714 288 2790 205 
Q 2867 122 3104 96 
L 3104 0 
z
" id="STIXGeneral-Regular-6e" transform="scale(0.015625)"/>
       <path d="M 2547 998 
L 2637 941 
Q 2362 403 2112 205 
Q 1786 -64 1376 -64 
Q 845 -64 502 336 
Q 160 736 160 1357 
Q 160 2170 698 2618 
Q 1094 2944 1562 2944 
Q 1965 2944 2256 2749 
Q 2547 2554 2547 2285 
Q 2547 2176 2457 2096 
Q 2368 2016 2246 2016 
Q 2022 2016 1939 2310 
L 1901 2451 
Q 1850 2630 1773 2694 
Q 1696 2758 1523 2758 
Q 1133 2758 893 2451 
Q 653 2144 653 1645 
Q 653 1094 928 745 
Q 1203 397 1645 397 
Q 1920 397 2118 528 
Q 2317 659 2547 998 
z
" id="STIXGeneral-Regular-63" transform="scale(0.015625)"/>
       <path d="M 1946 -1030 
L 1869 -1133 
Q 1126 -710 716 32 
Q 307 774 307 1613 
Q 307 3386 1888 4326 
L 1946 4224 
Q 1293 3667 1075 3126 
Q 858 2586 858 1632 
Q 858 685 1082 96 
Q 1306 -493 1946 -1030 
z
" id="STIXGeneral-Regular-28" transform="scale(0.015625)"/>
       <path d="M 4960 0 
L 3565 0 
L 3565 96 
Q 3834 122 3907 208 
Q 3981 294 3981 576 
L 3981 1894 
Q 3981 2278 3869 2444 
Q 3757 2611 3488 2611 
Q 3264 2611 3107 2521 
Q 2950 2432 2803 2221 
L 2803 608 
Q 2803 301 2896 201 
Q 2989 102 3264 96 
L 3264 0 
L 1830 0 
L 1830 96 
Q 2112 115 2189 188 
Q 2266 262 2266 550 
L 2266 1901 
Q 2266 2611 1850 2611 
Q 1670 2611 1468 2531 
Q 1267 2451 1171 2336 
Q 1088 2240 1088 2227 
L 1088 448 
Q 1088 243 1177 176 
Q 1267 109 1523 96 
L 1523 0 
L 102 0 
L 102 96 
Q 371 102 460 195 
Q 550 288 550 563 
L 550 2150 
Q 550 2387 499 2480 
Q 448 2573 326 2573 
Q 230 2573 122 2547 
L 122 2656 
Q 557 2778 1011 2944 
L 1062 2925 
L 1062 2451 
L 1075 2451 
Q 1363 2752 1584 2848 
Q 1805 2944 2054 2944 
Q 2560 2944 2733 2406 
Q 3232 2944 3776 2944 
Q 4518 2944 4518 1792 
L 4518 493 
Q 4518 282 4582 202 
Q 4646 122 4794 109 
L 4960 96 
L 4960 0 
z
" id="STIXGeneral-Regular-6d" transform="scale(0.015625)"/>
       <path d="M 186 4224 
L 262 4326 
Q 992 3891 1408 3148 
Q 1824 2406 1824 1581 
Q 1824 -166 243 -1133 
L 186 -1030 
Q 845 -486 1059 54 
Q 1274 595 1274 1562 
Q 1274 2534 1059 3120 
Q 845 3706 186 4224 
z
" id="STIXGeneral-Regular-29" transform="scale(0.015625)"/>
      </defs>
      <use transform="translate(0 0.703125)" xlink:href="#STIXGeneral-Regular-54"/>
      <use transform="translate(61.099991 0.703125)" xlink:href="#STIXGeneral-Regular-68"/>
      <use transform="translate(111.099976 0.703125)" xlink:href="#STIXGeneral-Regular-65"/>
      <use transform="translate(177.11125 0.703125)" xlink:href="#STIXGeneral-Regular-64"/>
      <use transform="translate(227.111235 0.703125)" xlink:href="#STIXGeneral-Regular-69"/>
      <use transform="translate(254.911223 0.703125)" xlink:href="#STIXGeneral-Regular-73"/>
      <use transform="translate(293.811217 0.703125)" xlink:href="#STIXGeneral-Regular-74"/>
      <use transform="translate(321.611204 0.703125)" xlink:href="#STIXGeneral-Regular-61"/>
      <use transform="translate(366.011198 0.703125)" xlink:href="#STIXGeneral-Regular-6e"/>
      <use transform="translate(416.011183 0.703125)" xlink:href="#STIXGeneral-Regular-63"/>
      <use transform="translate(460.411177 0.703125)" xlink:href="#STIXGeneral-Regular-65"/>
      <use transform="translate(526.422451 0.703125)" xlink:href="#STIXGeneral-Regular-28"/>
      <use transform="translate(559.722439 0.703125)" xlink:href="#STIXGeneral-Regular-6d"/>
      <use transform="translate(637.522427 0.703125)" xlink:href="#STIXGeneral-Regular-6d"/>
      <use transform="translate(715.322415 0.703125)" xlink:href="#STIXGeneral-Regular-29"/>
     </g>
    </g>
   </g>
   <g id="matplotlib.axis_2">
    <g id="ytick_1">
     <g id="line2d_43">
      <defs>
       <path d="M 0 0 
L 3 0 
" id="me12e7d804b" style="stroke:#000000;stroke-width:0.5;"/>
      </defs>
      <g>
       <use style="stroke:#000000;stroke-width:0.5;" x="41.82024" xlink:href="#me12e7d804b" y="152.412359"/>
      </g>
     </g>
     <g id="line2d_44">
      <defs>
       <path d="M 0 0 
L -3 0 
" id="m272fe29a8e" style="stroke:#000000;stroke-width:0.5;"/>
      </defs>
      <g>
       <use style="stroke:#000000;stroke-width:0.5;" x="243.117878" xlink:href="#m272fe29a8e" y="152.412359"/>
      </g>
     </g>
     <g id="text_8">
      <!-- 0.00 -->
      <g transform="translate(17.32024 156.578609)scale(0.12 -0.12)">
       <defs>
        <path d="M 800 606 
Q 947 606 1047 504 
Q 1147 403 1147 259 
Q 1147 116 1045 14 
Q 944 -88 800 -88 
Q 656 -88 554 14 
Q 453 116 453 259 
Q 453 406 554 506 
Q 656 606 800 606 
z
" id="TimesNewRomanPSMT-2e" transform="scale(0.015625)"/>
       </defs>
       <use xlink:href="#TimesNewRomanPSMT-30"/>
       <use x="50" xlink:href="#TimesNewRomanPSMT-2e"/>
       <use x="75" xlink:href="#TimesNewRomanPSMT-30"/>
       <use x="125" xlink:href="#TimesNewRomanPSMT-30"/>
      </g>
     </g>
    </g>
    <g id="ytick_2">
     <g id="line2d_45">
      <g>
       <use style="stroke:#000000;stroke-width:0.5;" x="41.82024" xlink:href="#me12e7d804b" y="103.997175"/>
      </g>
     </g>
     <g id="line2d_46">
      <g>
       <use style="stroke:#000000;stroke-width:0.5;" x="243.117878" xlink:href="#m272fe29a8e" y="103.997175"/>
      </g>
     </g>
     <g id="text_9">
      <!-- 0.02 -->
      <g transform="translate(17.32024 108.163425)scale(0.12 -0.12)">
       <use xlink:href="#TimesNewRomanPSMT-30"/>
       <use x="50" xlink:href="#TimesNewRomanPSMT-2e"/>
       <use x="75" xlink:href="#TimesNewRomanPSMT-30"/>
       <use x="125" xlink:href="#TimesNewRomanPSMT-32"/>
      </g>
     </g>
    </g>
    <g id="ytick_3">
     <g id="line2d_47">
      <g>
       <use style="stroke:#000000;stroke-width:0.5;" x="41.82024" xlink:href="#me12e7d804b" y="55.58199"/>
      </g>
     </g>
     <g id="line2d_48">
      <g>
       <use style="stroke:#000000;stroke-width:0.5;" x="243.117878" xlink:href="#m272fe29a8e" y="55.58199"/>
      </g>
     </g>
     <g id="text_10">
      <!-- 0.04 -->
      <g transform="translate(17.32024 59.74824)scale(0.12 -0.12)">
       <use xlink:href="#TimesNewRomanPSMT-30"/>
       <use x="50" xlink:href="#TimesNewRomanPSMT-2e"/>
       <use x="75" xlink:href="#TimesNewRomanPSMT-30"/>
       <use x="125" xlink:href="#TimesNewRomanPSMT-34"/>
      </g>
     </g>
    </g>
    <g id="ytick_4">
     <g id="line2d_49">
      <g>
       <use style="stroke:#000000;stroke-width:0.5;" x="41.82024" xlink:href="#me12e7d804b" y="7.166806"/>
      </g>
     </g>
     <g id="line2d_50">
      <g>
       <use style="stroke:#000000;stroke-width:0.5;" x="243.117878" xlink:href="#m272fe29a8e" y="7.166806"/>
      </g>
     </g>
     <g id="text_11">
      <!-- 0.06 -->
      <g transform="translate(17.32024 11.333056)scale(0.12 -0.12)">
       <use xlink:href="#TimesNewRomanPSMT-30"/>
       <use x="50" xlink:href="#TimesNewRomanPSMT-2e"/>
       <use x="75" xlink:href="#TimesNewRomanPSMT-30"/>
       <use x="125" xlink:href="#TimesNewRomanPSMT-36"/>
      </g>
     </g>
    </g>
    <g id="ytick_5">
     <g id="line2d_51">
      <defs>
       <path d="M 0 0 
L 1.5 0 
" id="m145f70d5c8" style="stroke:#000000;stroke-width:0.5;"/>
      </defs>
      <g>
       <use style="stroke:#000000;stroke-width:0.5;" x="41.82024" xlink:href="#m145f70d5c8" y="140.308563"/>
      </g>
     </g>
     <g id="line2d_52">
      <defs>
       <path d="M 0 0 
L -1.5 0 
" id="m4618931dd5" style="stroke:#000000;stroke-width:0.5;"/>
      </defs>
      <g>
       <use style="stroke:#000000;stroke-width:0.5;" x="243.117878" xlink:href="#m4618931dd5" y="140.308563"/>
      </g>
     </g>
    </g>
    <g id="ytick_6">
     <g id="line2d_53">
      <g>
       <use style="stroke:#000000;stroke-width:0.5;" x="41.82024" xlink:href="#m145f70d5c8" y="128.204767"/>
      </g>
     </g>
     <g id="line2d_54">
      <g>
       <use style="stroke:#000000;stroke-width:0.5;" x="243.117878" xlink:href="#m4618931dd5" y="128.204767"/>
      </g>
     </g>
    </g>
    <g id="ytick_7">
     <g id="line2d_55">
      <g>
       <use style="stroke:#000000;stroke-width:0.5;" x="41.82024" xlink:href="#m145f70d5c8" y="116.100971"/>
      </g>
     </g>
     <g id="line2d_56">
      <g>
       <use style="stroke:#000000;stroke-width:0.5;" x="243.117878" xlink:href="#m4618931dd5" y="116.100971"/>
      </g>
     </g>
    </g>
    <g id="ytick_8">
     <g id="line2d_57">
      <g>
       <use style="stroke:#000000;stroke-width:0.5;" x="41.82024" xlink:href="#m145f70d5c8" y="91.893379"/>
      </g>
     </g>
     <g id="line2d_58">
      <g>
       <use style="stroke:#000000;stroke-width:0.5;" x="243.117878" xlink:href="#m4618931dd5" y="91.893379"/>
      </g>
     </g>
    </g>
    <g id="ytick_9">
     <g id="line2d_59">
      <g>
       <use style="stroke:#000000;stroke-width:0.5;" x="41.82024" xlink:href="#m145f70d5c8" y="79.789583"/>
      </g>
     </g>
     <g id="line2d_60">
      <g>
       <use style="stroke:#000000;stroke-width:0.5;" x="243.117878" xlink:href="#m4618931dd5" y="79.789583"/>
      </g>
     </g>
    </g>
    <g id="ytick_10">
     <g id="line2d_61">
      <g>
       <use style="stroke:#000000;stroke-width:0.5;" x="41.82024" xlink:href="#m145f70d5c8" y="67.685787"/>
      </g>
     </g>
     <g id="line2d_62">
      <g>
       <use style="stroke:#000000;stroke-width:0.5;" x="243.117878" xlink:href="#m4618931dd5" y="67.685787"/>
      </g>
     </g>
    </g>
    <g id="ytick_11">
     <g id="line2d_63">
      <g>
       <use style="stroke:#000000;stroke-width:0.5;" x="41.82024" xlink:href="#m145f70d5c8" y="43.478194"/>
      </g>
     </g>
     <g id="line2d_64">
      <g>
       <use style="stroke:#000000;stroke-width:0.5;" x="243.117878" xlink:href="#m4618931dd5" y="43.478194"/>
      </g>
     </g>
    </g>
    <g id="ytick_12">
     <g id="line2d_65">
      <g>
       <use style="stroke:#000000;stroke-width:0.5;" x="41.82024" xlink:href="#m145f70d5c8" y="31.374398"/>
      </g>
     </g>
     <g id="line2d_66">
      <g>
       <use style="stroke:#000000;stroke-width:0.5;" x="243.117878" xlink:href="#m4618931dd5" y="31.374398"/>
      </g>
     </g>
    </g>
    <g id="ytick_13">
     <g id="line2d_67">
      <g>
       <use style="stroke:#000000;stroke-width:0.5;" x="41.82024" xlink:href="#m145f70d5c8" y="19.270602"/>
      </g>
     </g>
     <g id="line2d_68">
      <g>
       <use style="stroke:#000000;stroke-width:0.5;" x="243.117878" xlink:href="#m4618931dd5" y="19.270602"/>
      </g>
     </g>
    </g>
    <g id="text_12">
     <!-- $H_x\;\rm{(A/m)}$ -->
     <g transform="translate(11.16024 101.559551)rotate(-90)scale(0.12 -0.12)">
      <defs>
       <path d="M 4922 4179 
L 4922 4077 
Q 4640 4026 4550 3949 
Q 4461 3872 4384 3603 
L 3539 525 
Q 3520 448 3520 371 
Q 3520 237 3616 185 
Q 3712 134 4026 102 
L 4026 0 
L 2272 0 
L 2272 102 
Q 2598 128 2729 237 
Q 2861 346 2925 595 
L 3334 2086 
L 1510 2086 
L 1088 525 
Q 1069 461 1069 384 
Q 1069 243 1149 192 
Q 1229 141 1517 102 
L 1517 0 
L -51 0 
L -51 102 
Q 211 128 310 230 
Q 410 333 499 653 
L 1254 3405 
Q 1331 3699 1331 3814 
Q 1331 3949 1238 3997 
Q 1146 4045 838 4077 
L 838 4179 
L 2573 4179 
L 2573 4077 
Q 2285 4058 2141 3955 
Q 1997 3853 1933 3622 
L 1587 2355 
L 3411 2355 
L 3706 3405 
Q 3795 3738 3795 3808 
Q 3795 3930 3692 3994 
Q 3590 4058 3334 4077 
L 3334 4179 
L 4922 4179 
z
" id="STIXGeneral-Italic-48" transform="scale(0.015625)"/>
       <path d="M 1555 2272 
L 1632 1907 
Q 1971 2426 2179 2624 
Q 2387 2822 2598 2822 
Q 2714 2822 2787 2755 
Q 2861 2688 2861 2585 
Q 2861 2483 2800 2419 
Q 2739 2355 2643 2355 
Q 2586 2355 2490 2409 
Q 2394 2464 2310 2464 
Q 2125 2464 1683 1690 
Q 1683 1606 1734 1402 
L 1939 544 
Q 2003 282 2131 282 
Q 2234 282 2432 538 
Q 2451 563 2476 598 
Q 2502 634 2521 662 
Q 2541 691 2566 717 
L 2662 659 
Q 2387 230 2227 80 
Q 2067 -70 1882 -70 
Q 1728 -70 1645 26 
Q 1562 122 1504 365 
L 1318 1126 
L 755 365 
Q 557 96 432 13 
Q 307 -70 147 -70 
Q 0 -70 -86 0 
Q -173 70 -173 198 
Q -173 294 -112 361 
Q -51 429 45 429 
Q 122 429 250 358 
Q 346 301 416 301 
Q 525 301 742 614 
L 1267 1357 
L 1088 2150 
Q 1024 2432 969 2509 
Q 915 2586 794 2586 
Q 717 2586 544 2541 
L 429 2509 
L 410 2611 
L 480 2637 
Q 992 2822 1229 2822 
Q 1350 2822 1420 2707 
Q 1491 2592 1555 2272 
z
" id="STIXGeneral-Italic-78" transform="scale(0.015625)"/>
       <path d="M 4525 0 
L 2893 0 
L 2893 122 
Q 3149 122 3245 179 
Q 3334 224 3334 333 
Q 3334 499 3213 781 
L 2950 1382 
L 1274 1382 
L 979 653 
Q 922 506 922 384 
Q 922 237 1027 179 
Q 1133 122 1370 122 
L 1370 0 
L 96 0 
L 96 122 
Q 365 147 486 316 
Q 608 486 902 1190 
L 2221 4314 
L 2349 4314 
L 3923 710 
Q 4064 378 4176 262 
Q 4288 147 4525 122 
L 4525 0 
z
M 2861 1645 
L 2118 3405 
L 1382 1645 
L 2861 1645 
z
" id="STIXGeneral-Regular-41" transform="scale(0.015625)"/>
       <path d="M 1837 4326 
L 378 -90 
L -58 -90 
L 1408 4326 
L 1837 4326 
z
" id="STIXGeneral-Regular-2f" transform="scale(0.015625)"/>
      </defs>
      <use transform="translate(0 0.40625)" xlink:href="#STIXGeneral-Italic-48"/>
      <use transform="translate(72.199982 -12.821875)scale(0.7)" xlink:href="#STIXGeneral-Italic-78"/>
      <use transform="translate(127.745063 0.40625)" xlink:href="#STIXGeneral-Regular-28"/>
      <use transform="translate(161.045051 0.40625)" xlink:href="#STIXGeneral-Regular-41"/>
      <use transform="translate(233.245033 0.40625)" xlink:href="#STIXGeneral-Regular-2f"/>
      <use transform="translate(261.045021 0.40625)" xlink:href="#STIXGeneral-Regular-6d"/>
      <use transform="translate(338.845008 0.40625)" xlink:href="#STIXGeneral-Regular-29"/>
     </g>
    </g>
   </g>
   <g id="line2d_69">
    <path clip-path="url(#pb3e2a494ac)" d="M 41.82024 152.412359 
L 61.950004 151.879792 
L 82.079768 151.311882 
L 102.209532 150.50238 
L 122.339295 148.732805 
L 142.469059 140.356978 
L 162.598823 123.871608 
L 182.728587 93.055343 
L 202.858351 63.449458 
L 222.988115 52.362381 
L 243.117878 58.583732 
" style="fill:none;stroke:#000000;stroke-linecap:square;stroke-width:1.5;"/>
    <defs>
     <path d="M 0 1.5 
C 0.397805 1.5 0.77937 1.341951 1.06066 1.06066 
C 1.341951 0.77937 1.5 0.397805 1.5 0 
C 1.5 -0.397805 1.341951 -0.77937 1.06066 -1.06066 
C 0.77937 -1.341951 0.397805 -1.5 0 -1.5 
C -0.397805 -1.5 -0.77937 -1.341951 -1.06066 -1.06066 
C -1.341951 -0.77937 -1.5 -0.397805 -1.5 0 
C -1.5 0.397805 -1.341951 0.77937 -1.06066 1.06066 
C -0.77937 1.341951 -0.397805 1.5 0 1.5 
z
" id="mc70a651891" style="stroke:#000000;"/>
    </defs>
    <g clip-path="url(#pb3e2a494ac)">
     <use style="stroke:#000000;" x="41.82024" xlink:href="#mc70a651891" y="152.412359"/>
     <use style="stroke:#000000;" x="61.950004" xlink:href="#mc70a651891" y="151.879792"/>
     <use style="stroke:#000000;" x="82.079768" xlink:href="#mc70a651891" y="151.311882"/>
     <use style="stroke:#000000;" x="102.209532" xlink:href="#mc70a651891" y="150.50238"/>
     <use style="stroke:#000000;" x="122.339295" xlink:href="#mc70a651891" y="148.732805"/>
     <use style="stroke:#000000;" x="142.469059" xlink:href="#mc70a651891" y="140.356978"/>
     <use style="stroke:#000000;" x="162.598823" xlink:href="#mc70a651891" y="123.871608"/>
     <use style="stroke:#000000;" x="182.728587" xlink:href="#mc70a651891" y="93.055343"/>
     <use style="stroke:#000000;" x="202.858351" xlink:href="#mc70a651891" y="63.449458"/>
     <use style="stroke:#000000;" x="222.988115" xlink:href="#mc70a651891" y="52.362381"/>
     <use style="stroke:#000000;" x="243.117878" xlink:href="#mc70a651891" y="58.583732"/>
    </g>
   </g>
   <g id="line2d_70">
    <path clip-path="url(#pb3e2a494ac)" d="M 41.82024 152.412359 
L 61.950004 152.323275 
L 82.079768 152.226687 
L 102.209532 152.094514 
L 122.339295 151.626097 
L 142.469059 149.531656 
L 162.598823 145.150082 
L 182.728587 133.385192 
L 202.858351 119.296373 
L 222.988115 109.613336 
L 243.117878 112.009888 
" style="fill:none;stroke:#dc143c;stroke-linecap:square;stroke-width:1.5;"/>
    <defs>
     <path d="M 0 -1.5 
L -1.5 1.5 
L 1.5 1.5 
z
" id="m99c15fefe0" style="stroke:#dc143c;stroke-linejoin:miter;"/>
    </defs>
    <g clip-path="url(#pb3e2a494ac)">
     <use style="fill:#dc143c;stroke:#dc143c;stroke-linejoin:miter;" x="41.82024" xlink:href="#m99c15fefe0" y="152.412359"/>
     <use style="fill:#dc143c;stroke:#dc143c;stroke-linejoin:miter;" x="61.950004" xlink:href="#m99c15fefe0" y="152.323275"/>
     <use style="fill:#dc143c;stroke:#dc143c;stroke-linejoin:miter;" x="82.079768" xlink:href="#m99c15fefe0" y="152.226687"/>
     <use style="fill:#dc143c;stroke:#dc143c;stroke-linejoin:miter;" x="102.209532" xlink:href="#m99c15fefe0" y="152.094514"/>
     <use style="fill:#dc143c;stroke:#dc143c;stroke-linejoin:miter;" x="122.339295" xlink:href="#m99c15fefe0" y="151.626097"/>
     <use style="fill:#dc143c;stroke:#dc143c;stroke-linejoin:miter;" x="142.469059" xlink:href="#m99c15fefe0" y="149.531656"/>
     <use style="fill:#dc143c;stroke:#dc143c;stroke-linejoin:miter;" x="162.598823" xlink:href="#m99c15fefe0" y="145.150082"/>
     <use style="fill:#dc143c;stroke:#dc143c;stroke-linejoin:miter;" x="182.728587" xlink:href="#m99c15fefe0" y="133.385192"/>
     <use style="fill:#dc143c;stroke:#dc143c;stroke-linejoin:miter;" x="202.858351" xlink:href="#m99c15fefe0" y="119.296373"/>
     <use style="fill:#dc143c;stroke:#dc143c;stroke-linejoin:miter;" x="222.988115" xlink:href="#m99c15fefe0" y="109.613336"/>
     <use style="fill:#dc143c;stroke:#dc143c;stroke-linejoin:miter;" x="243.117878" xlink:href="#m99c15fefe0" y="112.009888"/>
    </g>
   </g>
   <g id="line2d_71">
    <path clip-path="url(#pb3e2a494ac)" d="M 41.82024 152.412359 
L 61.950004 152.366534 
L 82.079768 152.318192 
L 102.209532 152.246537 
L 122.339295 151.793613 
L 142.469059 149.483241 
L 162.598823 144.15757 
L 182.728587 129.390939 
L 202.858351 94.507799 
L 222.988115 45.898954 
L 243.117878 30.357679 
" style="fill:none;stroke:#0c5da5;stroke-linecap:square;stroke-width:1.5;"/>
    <defs>
     <path d="M -1.5 1.5 
L 1.5 1.5 
L 1.5 -1.5 
L -1.5 -1.5 
z
" id="m06a0671dac" style="stroke:#0c5da5;stroke-linejoin:miter;"/>
    </defs>
    <g clip-path="url(#pb3e2a494ac)">
     <use style="fill:#0c5da5;stroke:#0c5da5;stroke-linejoin:miter;" x="41.82024" xlink:href="#m06a0671dac" y="152.412359"/>
     <use style="fill:#0c5da5;stroke:#0c5da5;stroke-linejoin:miter;" x="61.950004" xlink:href="#m06a0671dac" y="152.366534"/>
     <use style="fill:#0c5da5;stroke:#0c5da5;stroke-linejoin:miter;" x="82.079768" xlink:href="#m06a0671dac" y="152.318192"/>
     <use style="fill:#0c5da5;stroke:#0c5da5;stroke-linejoin:miter;" x="102.209532" xlink:href="#m06a0671dac" y="152.246537"/>
     <use style="fill:#0c5da5;stroke:#0c5da5;stroke-linejoin:miter;" x="122.339295" xlink:href="#m06a0671dac" y="151.793613"/>
     <use style="fill:#0c5da5;stroke:#0c5da5;stroke-linejoin:miter;" x="142.469059" xlink:href="#m06a0671dac" y="149.483241"/>
     <use style="fill:#0c5da5;stroke:#0c5da5;stroke-linejoin:miter;" x="162.598823" xlink:href="#m06a0671dac" y="144.15757"/>
     <use style="fill:#0c5da5;stroke:#0c5da5;stroke-linejoin:miter;" x="182.728587" xlink:href="#m06a0671dac" y="129.390939"/>
     <use style="fill:#0c5da5;stroke:#0c5da5;stroke-linejoin:miter;" x="202.858351" xlink:href="#m06a0671dac" y="94.507799"/>
     <use style="fill:#0c5da5;stroke:#0c5da5;stroke-linejoin:miter;" x="222.988115" xlink:href="#m06a0671dac" y="45.898954"/>
     <use style="fill:#0c5da5;stroke:#0c5da5;stroke-linejoin:miter;" x="243.117878" xlink:href="#m06a0671dac" y="30.357679"/>
    </g>
   </g>
   <g id="patch_3">
    <path d="M 41.82024 152.412359 
L 41.82024 5.946743 
" style="fill:none;stroke:#000000;stroke-linecap:square;stroke-linejoin:miter;stroke-width:0.5;"/>
   </g>
   <g id="patch_4">
    <path d="M 243.117878 152.412359 
L 243.117878 5.946743 
" style="fill:none;stroke:#000000;stroke-linecap:square;stroke-linejoin:miter;stroke-width:0.5;"/>
   </g>
   <g id="patch_5">
    <path d="M 41.82024 152.412359 
L 243.117878 152.412359 
" style="fill:none;stroke:#000000;stroke-linecap:square;stroke-linejoin:miter;stroke-width:0.5;"/>
   </g>
   <g id="patch_6">
    <path d="M 41.82024 5.946743 
L 243.117878 5.946743 
" style="fill:none;stroke:#000000;stroke-linecap:square;stroke-linejoin:miter;stroke-width:0.5;"/>
   </g>
   <g id="legend_1">
    <g id="line2d_72">
     <path d="M 52.62024 21.968618 
L 76.62024 21.968618 
" style="fill:none;stroke:#000000;stroke-linecap:square;stroke-width:1.5;"/>
    </g>
    <g id="line2d_73">
     <g>
      <use style="stroke:#000000;" x="64.62024" xlink:href="#mc70a651891" y="21.968618"/>
     </g>
    </g>
    <g id="text_13">
     <!-- 开缝 -->
     <g transform="translate(86.22024 26.168618)scale(0.12 -0.12)">
      <defs>
       <path d="M 2450 4500 
L 2450 2625 
L 4000 2625 
L 4000 4500 
L 2450 4500 
z
M 4375 2475 
L 4375 525 
Q 4375 50 4400 -400 
L 3975 -550 
Q 4000 200 4000 725 
L 4000 2475 
L 2450 2475 
Q 2425 1400 1975 687 
Q 1525 -25 450 -600 
L 375 -525 
Q 1200 0 1625 675 
Q 2050 1350 2075 2475 
L 1100 2475 
Q 775 2475 500 2400 
L 275 2625 
L 2075 2625 
L 2075 4500 
L 1450 4500 
Q 1125 4500 850 4425 
L 625 4650 
L 4900 4650 
L 5275 5025 
L 5800 4500 
L 4375 4500 
L 4375 2625 
L 5175 2625 
L 5575 3025 
L 6125 2475 
L 4375 2475 
z
" id="SimSun-5f00" transform="scale(0.015625)"/>
       <path d="M 850 1725 
L 2200 1875 
L 2225 1775 
Q 950 1500 675 1250 
L 425 1700 
Q 600 1750 825 1987 
Q 1050 2225 1525 3050 
Q 725 2850 525 2700 
L 325 3150 
Q 500 3100 862 3800 
Q 1225 4500 1400 5150 
L 1875 4825 
L 1650 4700 
Q 1125 3775 625 3125 
L 1575 3175 
Q 1825 3600 1975 3975 
L 2400 3625 
L 2175 3500 
Q 1425 2500 850 1725 
z
M 275 475 
Q 550 500 1087 625 
Q 1625 750 2300 950 
L 2325 825 
Q 1525 525 1112 362 
Q 700 200 475 0 
L 275 475 
z
M 4075 4350 
Q 4325 3900 4575 3650 
Q 4825 3925 5075 4350 
L 4075 4350 
z
M 4600 3300 
Q 4450 3200 4425 3175 
L 4900 2900 
L 4725 2750 
L 4725 2475 
L 5225 2475 
L 5450 2700 
L 5800 2325 
L 4725 2325 
L 4725 1750 
L 5125 1750 
L 5350 1975 
L 5700 1600 
L 4725 1600 
L 4725 1025 
L 5425 1025 
L 5675 1275 
L 6050 875 
L 4725 875 
Q 4725 350 4750 100 
L 4400 -25 
Q 4425 450 4425 875 
L 3950 875 
Q 3625 875 3350 800 
L 3125 1025 
L 4425 1025 
L 4425 1600 
L 4225 1600 
Q 3900 1600 3625 1525 
L 3400 1750 
L 4425 1750 
L 4425 2325 
L 4175 2325 
Q 3850 2325 3575 2250 
L 3350 2475 
L 4425 2475 
L 4425 3175 
Q 3850 2825 3100 2550 
L 3075 2650 
Q 3850 3000 4425 3500 
Q 4225 3750 4000 4275 
Q 3675 3725 3175 3250 
L 3100 3300 
Q 3475 3800 3700 4287 
Q 3925 4775 4025 5250 
L 4500 4975 
L 4300 4850 
L 4125 4500 
L 5100 4500 
L 5300 4700 
L 5600 4400 
L 5400 4275 
Q 5050 3750 4775 3475 
Q 5250 3125 6150 3025 
L 6150 2950 
Q 5775 2925 5725 2700 
Q 5025 2950 4600 3300 
z
M 2275 4725 
Q 2925 4400 2975 4187 
Q 3025 3975 2925 3862 
Q 2825 3750 2775 3750 
Q 2700 3750 2650 3950 
Q 2550 4250 2225 4675 
L 2275 4725 
z
M 2075 -450 
L 1750 -175 
Q 2225 150 2550 350 
L 2550 2475 
Q 2275 2475 2000 2400 
L 1775 2625 
L 2500 2625 
L 2700 2875 
L 3075 2550 
L 2850 2425 
L 2850 350 
Q 3300 -150 4150 -162 
Q 5000 -175 6150 -50 
L 6150 -125 
Q 5700 -250 5725 -475 
Q 4525 -500 4112 -462 
Q 3700 -425 3387 -275 
Q 3075 -125 2900 100 
Q 2800 225 2700 225 
Q 2625 225 2475 75 
Q 2325 -75 2075 -450 
z
" id="SimSun-7f1d" transform="scale(0.015625)"/>
      </defs>
      <use xlink:href="#SimSun-5f00"/>
      <use x="100" xlink:href="#SimSun-7f1d"/>
     </g>
    </g>
    <g id="line2d_74">
     <path d="M 52.62024 38.890493 
L 76.62024 38.890493 
" style="fill:none;stroke:#dc143c;stroke-linecap:square;stroke-width:1.5;"/>
    </g>
    <g id="line2d_75">
     <g>
      <use style="fill:#dc143c;stroke:#dc143c;stroke-linejoin:miter;" x="64.62024" xlink:href="#m99c15fefe0" y="38.890493"/>
     </g>
    </g>
    <g id="text_14">
     <!-- 空气 -->
     <g transform="translate(86.22024 43.090493)scale(0.12 -0.12)">
      <defs>
       <path d="M 1275 2100 
L 4400 2100 
L 4725 2400 
L 5175 1950 
L 3375 1950 
L 3375 -150 
L 5100 -150 
L 5475 225 
L 5975 -300 
L 1275 -300 
Q 950 -300 675 -375 
L 450 -150 
L 3000 -150 
L 3000 1950 
L 2100 1950 
Q 1775 1950 1500 1875 
L 1275 2100 
z
M 2650 5175 
Q 3200 5025 3350 4875 
Q 3500 4725 3500 4575 
Q 3500 4450 3425 4325 
Q 3350 4200 3300 4200 
Q 3225 4200 3150 4400 
Q 3025 4725 2600 5100 
L 2650 5175 
z
M 5050 3300 
L 5350 4000 
L 1175 4000 
Q 1250 3400 1062 3312 
Q 875 3225 750 3225 
Q 650 3225 575 3250 
Q 500 3275 500 3325 
Q 500 3350 575 3450 
Q 700 3575 837 3787 
Q 975 4000 1050 4425 
L 1175 4425 
L 1175 4150 
L 5300 4150 
L 5525 4450 
L 6050 3925 
Q 5650 3925 5125 3250 
L 5050 3300 
z
M 2825 3425 
L 2600 3350 
Q 1425 2400 600 2100 
L 550 2175 
Q 1175 2550 1637 2962 
Q 2100 3375 2400 3850 
L 2825 3425 
z
M 3675 3675 
Q 4500 3400 4975 3175 
Q 5450 2950 5500 2787 
Q 5550 2625 5550 2575 
Q 5550 2500 5512 2400 
Q 5475 2300 5425 2300 
Q 5325 2300 5200 2450 
Q 4975 2675 4587 2975 
Q 4200 3275 3625 3575 
L 3675 3675 
z
" id="SimSun-7a7a" transform="scale(0.015625)"/>
       <path d="M 1750 5225 
L 2350 4875 
L 2100 4775 
Q 1900 4450 1775 4250 
L 4800 4250 
L 5175 4625 
L 5700 4100 
L 1725 4100 
Q 1125 3075 350 2425 
L 275 2475 
Q 925 3250 1287 4012 
Q 1650 4775 1750 5225 
z
M 1700 3475 
L 4375 3475 
L 4675 3775 
L 5125 3325 
L 2575 3325 
Q 2150 3325 1925 3250 
L 1700 3475 
z
M 1075 2700 
L 4200 2700 
L 4425 2975 
L 4850 2650 
L 4600 2475 
Q 4600 1975 4650 1412 
Q 4700 850 4875 475 
Q 5050 100 5500 -75 
Q 5600 175 5725 900 
L 5825 875 
Q 5800 525 5812 112 
Q 5825 -300 5925 -500 
Q 5975 -600 5875 -600 
Q 5775 -600 5425 -487 
Q 5075 -375 4775 -25 
Q 4475 325 4362 937 
Q 4250 1550 4275 2550 
L 1900 2550 
Q 1575 2550 1300 2475 
L 1075 2700 
z
" id="SimSun-6c14" transform="scale(0.015625)"/>
      </defs>
      <use xlink:href="#SimSun-7a7a"/>
      <use x="100" xlink:href="#SimSun-6c14"/>
     </g>
    </g>
    <g id="line2d_76">
     <path d="M 52.62024 55.906118 
L 76.62024 55.906118 
" style="fill:none;stroke:#0c5da5;stroke-linecap:square;stroke-width:1.5;"/>
    </g>
    <g id="line2d_77">
     <g>
      <use style="fill:#0c5da5;stroke:#0c5da5;stroke-linejoin:miter;" x="64.62024" xlink:href="#m06a0671dac" y="55.906118"/>
     </g>
    </g>
    <g id="text_15">
     <!-- 钢板 -->
     <g transform="translate(86.22024 60.106118)scale(0.12 -0.12)">
      <defs>
       <path d="M 2875 -525 
Q 2900 650 2900 2225 
Q 2900 3800 2875 4850 
L 3250 4625 
L 5400 4625 
L 5625 4850 
L 5975 4525 
L 5800 4400 
L 5800 50 
Q 5800 -125 5700 -287 
Q 5600 -450 5325 -550 
Q 5250 -175 4625 -25 
L 4625 75 
Q 5225 0 5337 12 
Q 5450 25 5450 150 
L 5450 4475 
L 3225 4475 
L 3225 475 
Q 3225 250 3250 -350 
L 2875 -525 
z
M 3425 3800 
Q 3900 3350 4375 2800 
Q 4650 3600 4700 4125 
L 5200 3850 
L 5025 3675 
Q 4800 2975 4600 2500 
Q 4950 2025 5100 1725 
Q 5250 1425 5237 1275 
Q 5225 1125 5150 1050 
Q 5075 975 5050 975 
Q 4975 975 4875 1275 
Q 4725 1650 4450 2150 
Q 4050 1425 3375 725 
L 3300 800 
Q 3950 1725 4250 2475 
Q 3925 2975 3375 3725 
L 3425 3800 
z
M 1650 350 
L 2725 1075 
L 2775 1000 
Q 1850 150 1500 -325 
L 1200 50 
Q 1300 175 1300 425 
L 1300 1775 
L 1100 1775 
Q 775 1775 500 1700 
L 275 1925 
L 1300 1925 
L 1300 2925 
L 800 2925 
Q 550 2625 275 2325 
L 200 2375 
Q 1000 3550 1350 5150 
L 1850 4875 
L 1650 4700 
Q 1525 4425 1375 4050 
L 2175 4050 
L 2450 4325 
L 2850 3900 
L 1325 3900 
Q 1075 3400 875 3075 
L 2000 3075 
L 2250 3325 
L 2625 2925 
L 1650 2925 
L 1650 1925 
L 2175 1925 
L 2450 2200 
L 2850 1775 
L 1650 1775 
L 1650 350 
z
" id="SimSun-94a2" transform="scale(0.015625)"/>
       <path d="M 5350 3000 
Q 4925 1625 4450 975 
Q 5150 75 6100 -150 
L 6100 -250 
Q 5650 -275 5575 -550 
Q 4875 -200 4250 725 
Q 3425 -150 2225 -525 
L 2175 -450 
Q 3375 100 4075 975 
Q 3600 1900 3450 3125 
L 3175 3125 
Q 3175 2500 3100 1800 
Q 3025 1100 2775 525 
Q 2525 -50 1825 -600 
L 1750 -525 
Q 2475 200 2650 1037 
Q 2825 1875 2825 2762 
Q 2825 3650 2800 4575 
L 3175 4375 
Q 4325 4675 4637 4812 
Q 4950 4950 5200 5100 
L 5575 4625 
Q 5275 4625 4800 4525 
Q 4300 4425 3175 4250 
L 3175 3275 
L 4975 3275 
L 5225 3525 
L 5600 3150 
L 5350 3000 
z
M 3575 3125 
Q 3800 2050 4275 1250 
Q 4725 2000 4975 3125 
L 3575 3125 
z
M 1650 2750 
Q 1650 25 1675 -500 
L 1275 -675 
Q 1300 450 1300 2475 
Q 950 1475 350 750 
L 275 800 
Q 950 2000 1250 3550 
L 675 3550 
L 475 3500 
L 275 3700 
L 1300 3700 
Q 1300 4600 1275 5200 
L 1850 4900 
L 1650 4725 
L 1650 3700 
L 1950 3700 
L 2225 3975 
L 2650 3550 
L 1650 3550 
L 1650 2900 
Q 2225 2575 2350 2425 
Q 2475 2275 2475 2125 
Q 2475 2000 2412 1850 
Q 2350 1700 2325 1700 
Q 2250 1700 2175 1950 
Q 2025 2325 1650 2750 
z
" id="SimSun-677f" transform="scale(0.015625)"/>
      </defs>
      <use xlink:href="#SimSun-94a2"/>
      <use x="100" xlink:href="#SimSun-677f"/>
     </g>
    </g>
   </g>
  </g>
 </g>
 <defs>
  <clipPath id="pb3e2a494ac">
   <rect height="146.465616" width="201.297638" x="41.82024" y="5.946743"/>
  </clipPath>
 </defs>
</svg>
