<?xml version="1.0" encoding="utf-8" standalone="no"?>
<!DOCTYPE svg PUBLIC "-//W3C//DTD SVG 1.1//EN"
  "http://www.w3.org/Graphics/SVG/1.1/DTD/svg11.dtd">
<svg xmlns:xlink="http://www.w3.org/1999/xlink" width="255.118118pt" height="184.251974pt" viewBox="0 0 255.118118 184.251974" xmlns="http://www.w3.org/2000/svg" version="1.1">
 <metadata>
  <rdf:RDF xmlns:dc="http://purl.org/dc/elements/1.1/" xmlns:cc="http://creativecommons.org/ns#" xmlns:rdf="http://www.w3.org/1999/02/22-rdf-syntax-ns#">
   <cc:Work>
    <dc:type rdf:resource="http://purl.org/dc/dcmitype/StillImage"/>
    <dc:date>2022-07-13T10:20:54.710618</dc:date>
    <dc:format>image/svg+xml</dc:format>
    <dc:creator>
     <cc:Agent>
      <dc:title>Matplotlib v3.5.2, https://matplotlib.org/</dc:title>
     </cc:Agent>
    </dc:creator>
   </cc:Work>
  </rdf:RDF>
 </metadata>
 <defs>
  <style type="text/css">*{stroke-linejoin: round; stroke-linecap: butt}</style>
 </defs>
 <g id="figure_1">
  <g id="patch_1">
   <path d="M 0 184.251974 
L 255.118118 184.251974 
L 255.118118 0 
L 0 0 
z
" style="fill: #ffffff"/>
  </g>
  <g id="axes_1">
   <g id="patch_2">
    <path d="M 47.82024 152.412359 
L 252.117878 152.412359 
L 252.117878 3.00024 
L 47.82024 3.00024 
z
" style="fill: #ffffff"/>
   </g>
   <g id="matplotlib.axis_1">
    <g id="xtick_1">
     <g id="line2d_1">
      <defs>
       <path id="m86d881e9f2" d="M 0 0 
L 0 -4 
" style="stroke: #000000; stroke-width: 0.8"/>
      </defs>
      <g>
       <use xlink:href="#m86d881e9f2" x="64.845043" y="152.412359" style="stroke: #000000; stroke-width: 0.8"/>
      </g>
     </g>
     <g id="line2d_2">
      <defs>
       <path id="m461cf175fa" d="M 0 0 
L 0 4 
" style="stroke: #000000; stroke-width: 0.8"/>
      </defs>
      <g>
       <use xlink:href="#m461cf175fa" x="64.845043" y="3.00024" style="stroke: #000000; stroke-width: 0.8"/>
      </g>
     </g>
     <g id="text_1">
      <!-- 0 -->
      <g transform="translate(61.845043 164.244859)scale(0.12 -0.12)">
       <defs>
        <path id="TimesNewRomanPSMT-30" d="M 231 2094 
Q 231 2819 450 3342 
Q 669 3866 1031 4122 
Q 1313 4325 1613 4325 
Q 2100 4325 2488 3828 
Q 2972 3213 2972 2159 
Q 2972 1422 2759 906 
Q 2547 391 2217 158 
Q 1888 -75 1581 -75 
Q 975 -75 572 641 
Q 231 1244 231 2094 
z
M 844 2016 
Q 844 1141 1059 588 
Q 1238 122 1591 122 
Q 1759 122 1940 273 
Q 2122 425 2216 781 
Q 2359 1319 2359 2297 
Q 2359 3022 2209 3506 
Q 2097 3866 1919 4016 
Q 1791 4119 1609 4119 
Q 1397 4119 1231 3928 
Q 1006 3669 925 3112 
Q 844 2556 844 2016 
z
" transform="scale(0.015625)"/>
       </defs>
       <use xlink:href="#TimesNewRomanPSMT-30"/>
      </g>
     </g>
    </g>
    <g id="xtick_2">
     <g id="line2d_3">
      <g>
       <use xlink:href="#m86d881e9f2" x="107.407051" y="152.412359" style="stroke: #000000; stroke-width: 0.8"/>
      </g>
     </g>
     <g id="line2d_4">
      <g>
       <use xlink:href="#m461cf175fa" x="107.407051" y="3.00024" style="stroke: #000000; stroke-width: 0.8"/>
      </g>
     </g>
     <g id="text_2">
      <!-- 25 -->
      <g transform="translate(101.407051 164.244859)scale(0.12 -0.12)">
       <defs>
        <path id="TimesNewRomanPSMT-32" d="M 2934 816 
L 2638 0 
L 138 0 
L 138 116 
Q 1241 1122 1691 1759 
Q 2141 2397 2141 2925 
Q 2141 3328 1894 3587 
Q 1647 3847 1303 3847 
Q 991 3847 742 3664 
Q 494 3481 375 3128 
L 259 3128 
Q 338 3706 661 4015 
Q 984 4325 1469 4325 
Q 1984 4325 2329 3994 
Q 2675 3663 2675 3213 
Q 2675 2891 2525 2569 
Q 2294 2063 1775 1497 
Q 997 647 803 472 
L 1909 472 
Q 2247 472 2383 497 
Q 2519 522 2628 598 
Q 2738 675 2819 816 
L 2934 816 
z
" transform="scale(0.015625)"/>
        <path id="TimesNewRomanPSMT-35" d="M 2778 4238 
L 2534 3706 
L 1259 3706 
L 981 3138 
Q 1809 3016 2294 2522 
Q 2709 2097 2709 1522 
Q 2709 1188 2573 903 
Q 2438 619 2231 419 
Q 2025 219 1772 97 
Q 1413 -75 1034 -75 
Q 653 -75 479 54 
Q 306 184 306 341 
Q 306 428 378 495 
Q 450 563 559 563 
Q 641 563 702 538 
Q 763 513 909 409 
Q 1144 247 1384 247 
Q 1750 247 2026 523 
Q 2303 800 2303 1197 
Q 2303 1581 2056 1914 
Q 1809 2247 1375 2428 
Q 1034 2569 447 2591 
L 1259 4238 
L 2778 4238 
z
" transform="scale(0.015625)"/>
       </defs>
       <use xlink:href="#TimesNewRomanPSMT-32"/>
       <use xlink:href="#TimesNewRomanPSMT-35" x="50"/>
      </g>
     </g>
    </g>
    <g id="xtick_3">
     <g id="line2d_5">
      <g>
       <use xlink:href="#m86d881e9f2" x="149.969059" y="152.412359" style="stroke: #000000; stroke-width: 0.8"/>
      </g>
     </g>
     <g id="line2d_6">
      <g>
       <use xlink:href="#m461cf175fa" x="149.969059" y="3.00024" style="stroke: #000000; stroke-width: 0.8"/>
      </g>
     </g>
     <g id="text_3">
      <!-- 50 -->
      <g transform="translate(143.969059 164.244859)scale(0.12 -0.12)">
       <use xlink:href="#TimesNewRomanPSMT-35"/>
       <use xlink:href="#TimesNewRomanPSMT-30" x="50"/>
      </g>
     </g>
    </g>
    <g id="xtick_4">
     <g id="line2d_7">
      <g>
       <use xlink:href="#m86d881e9f2" x="192.531067" y="152.412359" style="stroke: #000000; stroke-width: 0.8"/>
      </g>
     </g>
     <g id="line2d_8">
      <g>
       <use xlink:href="#m461cf175fa" x="192.531067" y="3.00024" style="stroke: #000000; stroke-width: 0.8"/>
      </g>
     </g>
     <g id="text_4">
      <!-- 75 -->
      <g transform="translate(186.531067 164.244859)scale(0.12 -0.12)">
       <defs>
        <path id="TimesNewRomanPSMT-37" d="M 644 4238 
L 2916 4238 
L 2916 4119 
L 1503 -88 
L 1153 -88 
L 2419 3728 
L 1253 3728 
Q 900 3728 750 3644 
Q 488 3500 328 3200 
L 238 3234 
L 644 4238 
z
" transform="scale(0.015625)"/>
       </defs>
       <use xlink:href="#TimesNewRomanPSMT-37"/>
       <use xlink:href="#TimesNewRomanPSMT-35" x="50"/>
      </g>
     </g>
    </g>
    <g id="xtick_5">
     <g id="line2d_9">
      <g>
       <use xlink:href="#m86d881e9f2" x="235.093075" y="152.412359" style="stroke: #000000; stroke-width: 0.8"/>
      </g>
     </g>
     <g id="line2d_10">
      <g>
       <use xlink:href="#m461cf175fa" x="235.093075" y="3.00024" style="stroke: #000000; stroke-width: 0.8"/>
      </g>
     </g>
     <g id="text_5">
      <!-- 100 -->
      <g transform="translate(226.093075 164.244859)scale(0.12 -0.12)">
       <defs>
        <path id="TimesNewRomanPSMT-31" d="M 750 3822 
L 1781 4325 
L 1884 4325 
L 1884 747 
Q 1884 391 1914 303 
Q 1944 216 2037 169 
Q 2131 122 2419 116 
L 2419 0 
L 825 0 
L 825 116 
Q 1125 122 1212 167 
Q 1300 213 1334 289 
Q 1369 366 1369 747 
L 1369 3034 
Q 1369 3497 1338 3628 
Q 1316 3728 1258 3775 
Q 1200 3822 1119 3822 
Q 1003 3822 797 3725 
L 750 3822 
z
" transform="scale(0.015625)"/>
       </defs>
       <use xlink:href="#TimesNewRomanPSMT-31"/>
       <use xlink:href="#TimesNewRomanPSMT-30" x="50"/>
       <use xlink:href="#TimesNewRomanPSMT-30" x="100"/>
      </g>
     </g>
    </g>
    <g id="xtick_6">
     <g id="line2d_11">
      <defs>
       <path id="mb6f5377588" d="M 0 0 
L 0 -2 
" style="stroke: #000000; stroke-width: 0.8"/>
      </defs>
      <g>
       <use xlink:href="#mb6f5377588" x="56.332642" y="152.412359" style="stroke: #000000; stroke-width: 0.8"/>
      </g>
     </g>
     <g id="line2d_12">
      <defs>
       <path id="m133db508c7" d="M 0 0 
L 0 2 
" style="stroke: #000000; stroke-width: 0.8"/>
      </defs>
      <g>
       <use xlink:href="#m133db508c7" x="56.332642" y="3.00024" style="stroke: #000000; stroke-width: 0.8"/>
      </g>
     </g>
    </g>
    <g id="xtick_7">
     <g id="line2d_13">
      <g>
       <use xlink:href="#mb6f5377588" x="73.357445" y="152.412359" style="stroke: #000000; stroke-width: 0.8"/>
      </g>
     </g>
     <g id="line2d_14">
      <g>
       <use xlink:href="#m133db508c7" x="73.357445" y="3.00024" style="stroke: #000000; stroke-width: 0.8"/>
      </g>
     </g>
    </g>
    <g id="xtick_8">
     <g id="line2d_15">
      <g>
       <use xlink:href="#mb6f5377588" x="81.869846" y="152.412359" style="stroke: #000000; stroke-width: 0.8"/>
      </g>
     </g>
     <g id="line2d_16">
      <g>
       <use xlink:href="#m133db508c7" x="81.869846" y="3.00024" style="stroke: #000000; stroke-width: 0.8"/>
      </g>
     </g>
    </g>
    <g id="xtick_9">
     <g id="line2d_17">
      <g>
       <use xlink:href="#mb6f5377588" x="90.382248" y="152.412359" style="stroke: #000000; stroke-width: 0.8"/>
      </g>
     </g>
     <g id="line2d_18">
      <g>
       <use xlink:href="#m133db508c7" x="90.382248" y="3.00024" style="stroke: #000000; stroke-width: 0.8"/>
      </g>
     </g>
    </g>
    <g id="xtick_10">
     <g id="line2d_19">
      <g>
       <use xlink:href="#mb6f5377588" x="98.89465" y="152.412359" style="stroke: #000000; stroke-width: 0.8"/>
      </g>
     </g>
     <g id="line2d_20">
      <g>
       <use xlink:href="#m133db508c7" x="98.89465" y="3.00024" style="stroke: #000000; stroke-width: 0.8"/>
      </g>
     </g>
    </g>
    <g id="xtick_11">
     <g id="line2d_21">
      <g>
       <use xlink:href="#mb6f5377588" x="115.919453" y="152.412359" style="stroke: #000000; stroke-width: 0.8"/>
      </g>
     </g>
     <g id="line2d_22">
      <g>
       <use xlink:href="#m133db508c7" x="115.919453" y="3.00024" style="stroke: #000000; stroke-width: 0.8"/>
      </g>
     </g>
    </g>
    <g id="xtick_12">
     <g id="line2d_23">
      <g>
       <use xlink:href="#mb6f5377588" x="124.431854" y="152.412359" style="stroke: #000000; stroke-width: 0.8"/>
      </g>
     </g>
     <g id="line2d_24">
      <g>
       <use xlink:href="#m133db508c7" x="124.431854" y="3.00024" style="stroke: #000000; stroke-width: 0.8"/>
      </g>
     </g>
    </g>
    <g id="xtick_13">
     <g id="line2d_25">
      <g>
       <use xlink:href="#mb6f5377588" x="132.944256" y="152.412359" style="stroke: #000000; stroke-width: 0.8"/>
      </g>
     </g>
     <g id="line2d_26">
      <g>
       <use xlink:href="#m133db508c7" x="132.944256" y="3.00024" style="stroke: #000000; stroke-width: 0.8"/>
      </g>
     </g>
    </g>
    <g id="xtick_14">
     <g id="line2d_27">
      <g>
       <use xlink:href="#mb6f5377588" x="141.456658" y="152.412359" style="stroke: #000000; stroke-width: 0.8"/>
      </g>
     </g>
     <g id="line2d_28">
      <g>
       <use xlink:href="#m133db508c7" x="141.456658" y="3.00024" style="stroke: #000000; stroke-width: 0.8"/>
      </g>
     </g>
    </g>
    <g id="xtick_15">
     <g id="line2d_29">
      <g>
       <use xlink:href="#mb6f5377588" x="158.481461" y="152.412359" style="stroke: #000000; stroke-width: 0.8"/>
      </g>
     </g>
     <g id="line2d_30">
      <g>
       <use xlink:href="#m133db508c7" x="158.481461" y="3.00024" style="stroke: #000000; stroke-width: 0.8"/>
      </g>
     </g>
    </g>
    <g id="xtick_16">
     <g id="line2d_31">
      <g>
       <use xlink:href="#mb6f5377588" x="166.993862" y="152.412359" style="stroke: #000000; stroke-width: 0.8"/>
      </g>
     </g>
     <g id="line2d_32">
      <g>
       <use xlink:href="#m133db508c7" x="166.993862" y="3.00024" style="stroke: #000000; stroke-width: 0.8"/>
      </g>
     </g>
    </g>
    <g id="xtick_17">
     <g id="line2d_33">
      <g>
       <use xlink:href="#mb6f5377588" x="175.506264" y="152.412359" style="stroke: #000000; stroke-width: 0.8"/>
      </g>
     </g>
     <g id="line2d_34">
      <g>
       <use xlink:href="#m133db508c7" x="175.506264" y="3.00024" style="stroke: #000000; stroke-width: 0.8"/>
      </g>
     </g>
    </g>
    <g id="xtick_18">
     <g id="line2d_35">
      <g>
       <use xlink:href="#mb6f5377588" x="184.018666" y="152.412359" style="stroke: #000000; stroke-width: 0.8"/>
      </g>
     </g>
     <g id="line2d_36">
      <g>
       <use xlink:href="#m133db508c7" x="184.018666" y="3.00024" style="stroke: #000000; stroke-width: 0.8"/>
      </g>
     </g>
    </g>
    <g id="xtick_19">
     <g id="line2d_37">
      <g>
       <use xlink:href="#mb6f5377588" x="201.043469" y="152.412359" style="stroke: #000000; stroke-width: 0.8"/>
      </g>
     </g>
     <g id="line2d_38">
      <g>
       <use xlink:href="#m133db508c7" x="201.043469" y="3.00024" style="stroke: #000000; stroke-width: 0.8"/>
      </g>
     </g>
    </g>
    <g id="xtick_20">
     <g id="line2d_39">
      <g>
       <use xlink:href="#mb6f5377588" x="209.55587" y="152.412359" style="stroke: #000000; stroke-width: 0.8"/>
      </g>
     </g>
     <g id="line2d_40">
      <g>
       <use xlink:href="#m133db508c7" x="209.55587" y="3.00024" style="stroke: #000000; stroke-width: 0.8"/>
      </g>
     </g>
    </g>
    <g id="xtick_21">
     <g id="line2d_41">
      <g>
       <use xlink:href="#mb6f5377588" x="218.068272" y="152.412359" style="stroke: #000000; stroke-width: 0.8"/>
      </g>
     </g>
     <g id="line2d_42">
      <g>
       <use xlink:href="#m133db508c7" x="218.068272" y="3.00024" style="stroke: #000000; stroke-width: 0.8"/>
      </g>
     </g>
    </g>
    <g id="xtick_22">
     <g id="line2d_43">
      <g>
       <use xlink:href="#mb6f5377588" x="226.580674" y="152.412359" style="stroke: #000000; stroke-width: 0.8"/>
      </g>
     </g>
     <g id="line2d_44">
      <g>
       <use xlink:href="#m133db508c7" x="226.580674" y="3.00024" style="stroke: #000000; stroke-width: 0.8"/>
      </g>
     </g>
    </g>
    <g id="xtick_23">
     <g id="line2d_45">
      <g>
       <use xlink:href="#mb6f5377588" x="243.605477" y="152.412359" style="stroke: #000000; stroke-width: 0.8"/>
      </g>
     </g>
     <g id="line2d_46">
      <g>
       <use xlink:href="#m133db508c7" x="243.605477" y="3.00024" style="stroke: #000000; stroke-width: 0.8"/>
      </g>
     </g>
    </g>
    <g id="xtick_24">
     <g id="line2d_47">
      <g>
       <use xlink:href="#mb6f5377588" x="252.117878" y="152.412359" style="stroke: #000000; stroke-width: 0.8"/>
      </g>
     </g>
     <g id="line2d_48">
      <g>
       <use xlink:href="#m133db508c7" x="252.117878" y="3.00024" style="stroke: #000000; stroke-width: 0.8"/>
      </g>
     </g>
    </g>
    <g id="text_6">
     <!-- $\rm{The\;distance\;(mm)}$ -->
     <g transform="translate(105.029059 179.091734)scale(0.12 -0.12)">
      <defs>
       <path id="STIXGeneral-Regular-54" d="M 3795 3149 
L 3642 3149 
Q 3539 3674 3353 3821 
Q 3168 3968 2656 3968 
L 2278 3968 
L 2278 710 
Q 2278 346 2387 243 
Q 2496 141 2893 122 
L 2893 0 
L 1024 0 
L 1024 122 
Q 1427 147 1526 256 
Q 1626 365 1626 787 
L 1626 3968 
L 1242 3968 
Q 723 3968 540 3817 
Q 358 3667 262 3149 
L 109 3149 
L 154 4237 
L 3750 4237 
L 3795 3149 
z
" transform="scale(0.015625)"/>
       <path id="STIXGeneral-Regular-68" d="M 3117 0 
L 1760 0 
L 1760 96 
Q 2042 128 2118 224 
Q 2195 320 2195 653 
L 2195 1920 
Q 2195 2598 1722 2598 
Q 1530 2598 1370 2508 
Q 1210 2419 1005 2195 
L 1005 653 
Q 1005 320 1081 224 
Q 1158 128 1440 96 
L 1440 0 
L 58 0 
L 58 96 
Q 333 134 400 224 
Q 467 314 467 653 
L 467 3667 
Q 467 3872 406 3933 
Q 346 3994 141 3994 
Q 83 3994 64 3987 
L 64 4090 
L 237 4141 
Q 730 4288 973 4371 
L 1005 4352 
L 1005 2406 
Q 1229 2694 1446 2819 
Q 1664 2944 1946 2944 
Q 2733 2944 2733 1926 
L 2733 653 
Q 2733 320 2793 233 
Q 2854 147 3117 96 
L 3117 0 
z
" transform="scale(0.015625)"/>
       <path id="STIXGeneral-Regular-65" d="M 2611 1050 
L 2714 1005 
Q 2330 -64 1376 -64 
Q 813 -64 486 329 
Q 160 723 160 1389 
Q 160 2074 525 2509 
Q 890 2944 1485 2944 
Q 2061 2944 2374 2502 
Q 2560 2246 2592 1773 
L 621 1773 
Q 646 1370 700 1158 
Q 755 947 915 730 
Q 1184 378 1626 378 
Q 1939 378 2153 531 
Q 2368 685 2611 1050 
z
M 634 1978 
L 1939 1978 
Q 1882 2381 1750 2547 
Q 1619 2714 1312 2714 
Q 1043 2714 864 2525 
Q 685 2336 634 1978 
z
" transform="scale(0.015625)"/>
       <path id="STIXGeneral-Regular-64" d="M 3142 269 
L 2202 -64 
L 2176 -45 
L 2176 365 
Q 1869 -64 1357 -64 
Q 826 -64 499 317 
Q 173 698 173 1312 
Q 173 1990 563 2467 
Q 954 2944 1504 2944 
Q 1850 2944 2176 2669 
L 2176 3667 
Q 2176 3866 2118 3930 
Q 2061 3994 1882 3994 
Q 1792 3994 1741 3987 
L 1741 4090 
Q 2323 4243 2682 4371 
L 2714 4358 
L 2714 730 
Q 2714 506 2768 435 
Q 2822 365 2995 365 
Q 3034 365 3142 371 
L 3142 269 
z
M 2176 653 
L 2176 2125 
Q 2176 2381 1981 2573 
Q 1786 2765 1523 2765 
Q 1158 2765 940 2438 
Q 723 2112 723 1568 
Q 723 979 963 624 
Q 1203 269 1606 269 
Q 1907 269 2080 474 
Q 2176 582 2176 653 
z
" transform="scale(0.015625)"/>
       <path id="STIXGeneral-Regular-69" d="M 1152 4045 
Q 1152 3904 1056 3811 
Q 960 3718 819 3718 
Q 685 3718 592 3811 
Q 499 3904 499 4045 
Q 499 4179 595 4275 
Q 691 4371 826 4371 
Q 966 4371 1059 4275 
Q 1152 4179 1152 4045 
z
M 1619 0 
L 102 0 
L 102 96 
Q 435 115 521 211 
Q 608 307 608 666 
L 608 2118 
Q 608 2342 563 2432 
Q 518 2522 397 2522 
Q 243 2522 128 2490 
L 128 2592 
L 1120 2944 
L 1146 2918 
L 1146 672 
Q 1146 314 1226 218 
Q 1306 122 1619 96 
L 1619 0 
z
" transform="scale(0.015625)"/>
       <path id="STIXGeneral-Regular-73" d="M 998 1926 
L 1664 1523 
Q 1984 1331 2105 1164 
Q 2227 998 2227 736 
Q 2227 416 1961 176 
Q 1696 -64 1331 -64 
Q 1030 -64 864 -6 
Q 691 51 570 51 
Q 461 51 416 -26 
L 333 -26 
L 333 979 
L 435 979 
Q 538 512 730 294 
Q 922 77 1248 77 
Q 1485 77 1632 211 
Q 1779 346 1779 550 
Q 1779 845 1440 1030 
L 1094 1222 
Q 326 1651 326 2150 
Q 326 2522 566 2730 
Q 806 2938 1210 2938 
Q 1491 2938 1638 2867 
Q 1754 2816 1818 2816 
Q 1862 2816 1920 2880 
L 1990 2880 
L 2022 2010 
L 1926 2010 
Q 1818 2445 1654 2621 
Q 1491 2797 1203 2797 
Q 986 2797 854 2688 
Q 723 2579 723 2362 
Q 723 2253 796 2128 
Q 870 2003 998 1926 
z
" transform="scale(0.015625)"/>
       <path id="STIXGeneral-Regular-74" d="M 1702 493 
L 1786 422 
Q 1478 -64 1011 -64 
Q 448 -64 448 749 
L 448 2675 
L 109 2675 
Q 83 2694 83 2720 
Q 83 2771 192 2842 
Q 435 2982 813 3526 
Q 826 3546 874 3606 
Q 922 3667 941 3706 
Q 986 3706 986 3622 
L 986 2880 
L 1632 2880 
L 1632 2675 
L 986 2675 
L 986 845 
Q 986 538 1062 403 
Q 1139 269 1318 269 
Q 1510 269 1702 493 
z
" transform="scale(0.015625)"/>
       <path id="STIXGeneral-Regular-61" d="M 2829 422 
L 2829 243 
Q 2586 -64 2253 -64 
Q 1888 -64 1843 403 
L 1837 403 
Q 1427 -64 909 -64 
Q 608 -64 422 112 
Q 237 288 237 602 
Q 237 1050 685 1350 
Q 992 1555 1837 1869 
L 1837 2214 
Q 1837 2502 1699 2646 
Q 1562 2790 1338 2790 
Q 1146 2790 1018 2697 
Q 890 2605 890 2477 
Q 890 2419 909 2348 
Q 928 2278 928 2208 
Q 928 2112 841 2029 
Q 755 1946 634 1946 
Q 525 1946 441 2029 
Q 358 2112 358 2240 
Q 358 2547 685 2752 
Q 986 2944 1421 2944 
Q 1939 2944 2176 2656 
Q 2291 2522 2323 2384 
Q 2355 2246 2355 1946 
L 2355 723 
Q 2355 301 2554 301 
Q 2682 301 2829 422 
z
M 1837 813 
L 1837 1715 
Q 1248 1510 1018 1293 
Q 800 1094 800 800 
Q 800 557 921 432 
Q 1043 307 1242 307 
Q 1453 307 1613 410 
Q 1747 506 1792 589 
Q 1837 672 1837 813 
z
" transform="scale(0.015625)"/>
       <path id="STIXGeneral-Regular-6e" d="M 3104 0 
L 1773 0 
L 1779 96 
Q 2016 115 2096 233 
Q 2176 352 2176 672 
L 2176 1946 
Q 2176 2592 1709 2592 
Q 1549 2592 1408 2515 
Q 1267 2438 1050 2227 
L 1050 461 
Q 1050 269 1136 192 
Q 1222 115 1466 96 
L 1466 0 
L 115 0 
L 115 96 
Q 358 115 435 214 
Q 512 314 512 602 
L 512 2157 
Q 512 2394 467 2483 
Q 422 2573 288 2573 
Q 160 2573 102 2547 
L 102 2656 
Q 550 2784 979 2944 
L 1030 2925 
L 1030 2426 
L 1037 2426 
Q 1491 2944 1958 2944 
Q 2323 2944 2518 2688 
Q 2714 2432 2714 1958 
L 2714 544 
Q 2714 288 2790 205 
Q 2867 122 3104 96 
L 3104 0 
z
" transform="scale(0.015625)"/>
       <path id="STIXGeneral-Regular-63" d="M 2547 998 
L 2637 941 
Q 2362 403 2112 205 
Q 1786 -64 1376 -64 
Q 845 -64 502 336 
Q 160 736 160 1357 
Q 160 2170 698 2618 
Q 1094 2944 1562 2944 
Q 1965 2944 2256 2749 
Q 2547 2554 2547 2285 
Q 2547 2176 2457 2096 
Q 2368 2016 2246 2016 
Q 2022 2016 1939 2310 
L 1901 2451 
Q 1850 2630 1773 2694 
Q 1696 2758 1523 2758 
Q 1133 2758 893 2451 
Q 653 2144 653 1645 
Q 653 1094 928 745 
Q 1203 397 1645 397 
Q 1920 397 2118 528 
Q 2317 659 2547 998 
z
" transform="scale(0.015625)"/>
       <path id="STIXGeneral-Regular-28" d="M 1946 -1030 
L 1869 -1133 
Q 1126 -710 716 32 
Q 307 774 307 1613 
Q 307 3386 1888 4326 
L 1946 4224 
Q 1293 3667 1075 3126 
Q 858 2586 858 1632 
Q 858 685 1082 96 
Q 1306 -493 1946 -1030 
z
" transform="scale(0.015625)"/>
       <path id="STIXGeneral-Regular-6d" d="M 4960 0 
L 3565 0 
L 3565 96 
Q 3834 122 3907 208 
Q 3981 294 3981 576 
L 3981 1894 
Q 3981 2278 3869 2444 
Q 3757 2611 3488 2611 
Q 3264 2611 3107 2521 
Q 2950 2432 2803 2221 
L 2803 608 
Q 2803 301 2896 201 
Q 2989 102 3264 96 
L 3264 0 
L 1830 0 
L 1830 96 
Q 2112 115 2189 188 
Q 2266 262 2266 550 
L 2266 1901 
Q 2266 2611 1850 2611 
Q 1670 2611 1468 2531 
Q 1267 2451 1171 2336 
Q 1088 2240 1088 2227 
L 1088 448 
Q 1088 243 1177 176 
Q 1267 109 1523 96 
L 1523 0 
L 102 0 
L 102 96 
Q 371 102 460 195 
Q 550 288 550 563 
L 550 2150 
Q 550 2387 499 2480 
Q 448 2573 326 2573 
Q 230 2573 122 2547 
L 122 2656 
Q 557 2778 1011 2944 
L 1062 2925 
L 1062 2451 
L 1075 2451 
Q 1363 2752 1584 2848 
Q 1805 2944 2054 2944 
Q 2560 2944 2733 2406 
Q 3232 2944 3776 2944 
Q 4518 2944 4518 1792 
L 4518 493 
Q 4518 282 4582 202 
Q 4646 122 4794 109 
L 4960 96 
L 4960 0 
z
" transform="scale(0.015625)"/>
       <path id="STIXGeneral-Regular-29" d="M 186 4224 
L 262 4326 
Q 992 3891 1408 3148 
Q 1824 2406 1824 1581 
Q 1824 -166 243 -1133 
L 186 -1030 
Q 845 -486 1059 54 
Q 1274 595 1274 1562 
Q 1274 2534 1059 3120 
Q 845 3706 186 4224 
z
" transform="scale(0.015625)"/>
      </defs>
      <use xlink:href="#STIXGeneral-Regular-54" transform="translate(0 0.703125)"/>
      <use xlink:href="#STIXGeneral-Regular-68" transform="translate(61.099991 0.703125)"/>
      <use xlink:href="#STIXGeneral-Regular-65" transform="translate(111.099976 0.703125)"/>
      <use xlink:href="#STIXGeneral-Regular-64" transform="translate(177.11125 0.703125)"/>
      <use xlink:href="#STIXGeneral-Regular-69" transform="translate(227.111235 0.703125)"/>
      <use xlink:href="#STIXGeneral-Regular-73" transform="translate(254.911223 0.703125)"/>
      <use xlink:href="#STIXGeneral-Regular-74" transform="translate(293.811217 0.703125)"/>
      <use xlink:href="#STIXGeneral-Regular-61" transform="translate(321.611204 0.703125)"/>
      <use xlink:href="#STIXGeneral-Regular-6e" transform="translate(366.011198 0.703125)"/>
      <use xlink:href="#STIXGeneral-Regular-63" transform="translate(416.011183 0.703125)"/>
      <use xlink:href="#STIXGeneral-Regular-65" transform="translate(460.411177 0.703125)"/>
      <use xlink:href="#STIXGeneral-Regular-28" transform="translate(526.422451 0.703125)"/>
      <use xlink:href="#STIXGeneral-Regular-6d" transform="translate(559.722439 0.703125)"/>
      <use xlink:href="#STIXGeneral-Regular-6d" transform="translate(637.522427 0.703125)"/>
      <use xlink:href="#STIXGeneral-Regular-29" transform="translate(715.322415 0.703125)"/>
     </g>
    </g>
   </g>
   <g id="matplotlib.axis_2">
    <g id="ytick_1">
     <g id="line2d_49">
      <defs>
       <path id="mdaf844ae5f" d="M 0 0 
L 4 0 
" style="stroke: #000000; stroke-width: 0.8"/>
      </defs>
      <g>
       <use xlink:href="#mdaf844ae5f" x="47.82024" y="139.961349" style="stroke: #000000; stroke-width: 0.8"/>
      </g>
     </g>
     <g id="line2d_50">
      <defs>
       <path id="ma87c845bcb" d="M 0 0 
L -4 0 
" style="stroke: #000000; stroke-width: 0.8"/>
      </defs>
      <g>
       <use xlink:href="#ma87c845bcb" x="252.117878" y="139.961349" style="stroke: #000000; stroke-width: 0.8"/>
      </g>
     </g>
     <g id="text_7">
      <!-- 0.000 -->
      <g transform="translate(17.32024 144.127599)scale(0.12 -0.12)">
       <defs>
        <path id="TimesNewRomanPSMT-2e" d="M 800 606 
Q 947 606 1047 504 
Q 1147 403 1147 259 
Q 1147 116 1045 14 
Q 944 -88 800 -88 
Q 656 -88 554 14 
Q 453 116 453 259 
Q 453 406 554 506 
Q 656 606 800 606 
z
" transform="scale(0.015625)"/>
       </defs>
       <use xlink:href="#TimesNewRomanPSMT-30"/>
       <use xlink:href="#TimesNewRomanPSMT-2e" x="50"/>
       <use xlink:href="#TimesNewRomanPSMT-30" x="75"/>
       <use xlink:href="#TimesNewRomanPSMT-30" x="125"/>
       <use xlink:href="#TimesNewRomanPSMT-30" x="175"/>
      </g>
     </g>
    </g>
    <g id="ytick_2">
     <g id="line2d_51">
      <g>
       <use xlink:href="#mdaf844ae5f" x="47.82024" y="102.919471" style="stroke: #000000; stroke-width: 0.8"/>
      </g>
     </g>
     <g id="line2d_52">
      <g>
       <use xlink:href="#ma87c845bcb" x="252.117878" y="102.919471" style="stroke: #000000; stroke-width: 0.8"/>
      </g>
     </g>
     <g id="text_8">
      <!-- 0.015 -->
      <g transform="translate(17.32024 107.085721)scale(0.12 -0.12)">
       <use xlink:href="#TimesNewRomanPSMT-30"/>
       <use xlink:href="#TimesNewRomanPSMT-2e" x="50"/>
       <use xlink:href="#TimesNewRomanPSMT-30" x="75"/>
       <use xlink:href="#TimesNewRomanPSMT-31" x="125"/>
       <use xlink:href="#TimesNewRomanPSMT-35" x="175"/>
      </g>
     </g>
    </g>
    <g id="ytick_3">
     <g id="line2d_53">
      <g>
       <use xlink:href="#mdaf844ae5f" x="47.82024" y="65.877593" style="stroke: #000000; stroke-width: 0.8"/>
      </g>
     </g>
     <g id="line2d_54">
      <g>
       <use xlink:href="#ma87c845bcb" x="252.117878" y="65.877593" style="stroke: #000000; stroke-width: 0.8"/>
      </g>
     </g>
     <g id="text_9">
      <!-- 0.030 -->
      <g transform="translate(17.32024 70.043843)scale(0.12 -0.12)">
       <defs>
        <path id="TimesNewRomanPSMT-33" d="M 325 3431 
Q 506 3859 782 4092 
Q 1059 4325 1472 4325 
Q 1981 4325 2253 3994 
Q 2459 3747 2459 3466 
Q 2459 3003 1878 2509 
Q 2269 2356 2469 2072 
Q 2669 1788 2669 1403 
Q 2669 853 2319 450 
Q 1863 -75 997 -75 
Q 569 -75 414 31 
Q 259 138 259 259 
Q 259 350 332 419 
Q 406 488 509 488 
Q 588 488 669 463 
Q 722 447 909 348 
Q 1097 250 1169 231 
Q 1284 197 1416 197 
Q 1734 197 1970 444 
Q 2206 691 2206 1028 
Q 2206 1275 2097 1509 
Q 2016 1684 1919 1775 
Q 1784 1900 1550 2001 
Q 1316 2103 1072 2103 
L 972 2103 
L 972 2197 
Q 1219 2228 1467 2375 
Q 1716 2522 1828 2728 
Q 1941 2934 1941 3181 
Q 1941 3503 1739 3701 
Q 1538 3900 1238 3900 
Q 753 3900 428 3381 
L 325 3431 
z
" transform="scale(0.015625)"/>
       </defs>
       <use xlink:href="#TimesNewRomanPSMT-30"/>
       <use xlink:href="#TimesNewRomanPSMT-2e" x="50"/>
       <use xlink:href="#TimesNewRomanPSMT-30" x="75"/>
       <use xlink:href="#TimesNewRomanPSMT-33" x="125"/>
       <use xlink:href="#TimesNewRomanPSMT-30" x="175"/>
      </g>
     </g>
    </g>
    <g id="ytick_4">
     <g id="line2d_55">
      <g>
       <use xlink:href="#mdaf844ae5f" x="47.82024" y="28.835715" style="stroke: #000000; stroke-width: 0.8"/>
      </g>
     </g>
     <g id="line2d_56">
      <g>
       <use xlink:href="#ma87c845bcb" x="252.117878" y="28.835715" style="stroke: #000000; stroke-width: 0.8"/>
      </g>
     </g>
     <g id="text_10">
      <!-- 0.045 -->
      <g transform="translate(17.32024 33.001965)scale(0.12 -0.12)">
       <defs>
        <path id="TimesNewRomanPSMT-34" d="M 2978 1563 
L 2978 1119 
L 2409 1119 
L 2409 0 
L 1894 0 
L 1894 1119 
L 100 1119 
L 100 1519 
L 2066 4325 
L 2409 4325 
L 2409 1563 
L 2978 1563 
z
M 1894 1563 
L 1894 3666 
L 406 1563 
L 1894 1563 
z
" transform="scale(0.015625)"/>
       </defs>
       <use xlink:href="#TimesNewRomanPSMT-30"/>
       <use xlink:href="#TimesNewRomanPSMT-2e" x="50"/>
       <use xlink:href="#TimesNewRomanPSMT-30" x="75"/>
       <use xlink:href="#TimesNewRomanPSMT-34" x="125"/>
       <use xlink:href="#TimesNewRomanPSMT-35" x="175"/>
      </g>
     </g>
    </g>
    <g id="ytick_5">
     <g id="line2d_57">
      <defs>
       <path id="mb6f8fcd1ed" d="M 0 0 
L 2 0 
" style="stroke: #000000; stroke-width: 0.8"/>
      </defs>
      <g>
       <use xlink:href="#mb6f8fcd1ed" x="47.82024" y="149.221819" style="stroke: #000000; stroke-width: 0.8"/>
      </g>
     </g>
     <g id="line2d_58">
      <defs>
       <path id="m715edcfac8" d="M 0 0 
L -2 0 
" style="stroke: #000000; stroke-width: 0.8"/>
      </defs>
      <g>
       <use xlink:href="#m715edcfac8" x="252.117878" y="149.221819" style="stroke: #000000; stroke-width: 0.8"/>
      </g>
     </g>
    </g>
    <g id="ytick_6">
     <g id="line2d_59">
      <g>
       <use xlink:href="#mb6f8fcd1ed" x="47.82024" y="130.70088" style="stroke: #000000; stroke-width: 0.8"/>
      </g>
     </g>
     <g id="line2d_60">
      <g>
       <use xlink:href="#m715edcfac8" x="252.117878" y="130.70088" style="stroke: #000000; stroke-width: 0.8"/>
      </g>
     </g>
    </g>
    <g id="ytick_7">
     <g id="line2d_61">
      <g>
       <use xlink:href="#mb6f8fcd1ed" x="47.82024" y="121.44041" style="stroke: #000000; stroke-width: 0.8"/>
      </g>
     </g>
     <g id="line2d_62">
      <g>
       <use xlink:href="#m715edcfac8" x="252.117878" y="121.44041" style="stroke: #000000; stroke-width: 0.8"/>
      </g>
     </g>
    </g>
    <g id="ytick_8">
     <g id="line2d_63">
      <g>
       <use xlink:href="#mb6f8fcd1ed" x="47.82024" y="112.179941" style="stroke: #000000; stroke-width: 0.8"/>
      </g>
     </g>
     <g id="line2d_64">
      <g>
       <use xlink:href="#m715edcfac8" x="252.117878" y="112.179941" style="stroke: #000000; stroke-width: 0.8"/>
      </g>
     </g>
    </g>
    <g id="ytick_9">
     <g id="line2d_65">
      <g>
       <use xlink:href="#mb6f8fcd1ed" x="47.82024" y="93.659002" style="stroke: #000000; stroke-width: 0.8"/>
      </g>
     </g>
     <g id="line2d_66">
      <g>
       <use xlink:href="#m715edcfac8" x="252.117878" y="93.659002" style="stroke: #000000; stroke-width: 0.8"/>
      </g>
     </g>
    </g>
    <g id="ytick_10">
     <g id="line2d_67">
      <g>
       <use xlink:href="#mb6f8fcd1ed" x="47.82024" y="84.398532" style="stroke: #000000; stroke-width: 0.8"/>
      </g>
     </g>
     <g id="line2d_68">
      <g>
       <use xlink:href="#m715edcfac8" x="252.117878" y="84.398532" style="stroke: #000000; stroke-width: 0.8"/>
      </g>
     </g>
    </g>
    <g id="ytick_11">
     <g id="line2d_69">
      <g>
       <use xlink:href="#mb6f8fcd1ed" x="47.82024" y="75.138063" style="stroke: #000000; stroke-width: 0.8"/>
      </g>
     </g>
     <g id="line2d_70">
      <g>
       <use xlink:href="#m715edcfac8" x="252.117878" y="75.138063" style="stroke: #000000; stroke-width: 0.8"/>
      </g>
     </g>
    </g>
    <g id="ytick_12">
     <g id="line2d_71">
      <g>
       <use xlink:href="#mb6f8fcd1ed" x="47.82024" y="56.617124" style="stroke: #000000; stroke-width: 0.8"/>
      </g>
     </g>
     <g id="line2d_72">
      <g>
       <use xlink:href="#m715edcfac8" x="252.117878" y="56.617124" style="stroke: #000000; stroke-width: 0.8"/>
      </g>
     </g>
    </g>
    <g id="ytick_13">
     <g id="line2d_73">
      <g>
       <use xlink:href="#mb6f8fcd1ed" x="47.82024" y="47.356654" style="stroke: #000000; stroke-width: 0.8"/>
      </g>
     </g>
     <g id="line2d_74">
      <g>
       <use xlink:href="#m715edcfac8" x="252.117878" y="47.356654" style="stroke: #000000; stroke-width: 0.8"/>
      </g>
     </g>
    </g>
    <g id="ytick_14">
     <g id="line2d_75">
      <g>
       <use xlink:href="#mb6f8fcd1ed" x="47.82024" y="38.096185" style="stroke: #000000; stroke-width: 0.8"/>
      </g>
     </g>
     <g id="line2d_76">
      <g>
       <use xlink:href="#m715edcfac8" x="252.117878" y="38.096185" style="stroke: #000000; stroke-width: 0.8"/>
      </g>
     </g>
    </g>
    <g id="ytick_15">
     <g id="line2d_77">
      <g>
       <use xlink:href="#mb6f8fcd1ed" x="47.82024" y="19.575246" style="stroke: #000000; stroke-width: 0.8"/>
      </g>
     </g>
     <g id="line2d_78">
      <g>
       <use xlink:href="#m715edcfac8" x="252.117878" y="19.575246" style="stroke: #000000; stroke-width: 0.8"/>
      </g>
     </g>
    </g>
    <g id="ytick_16">
     <g id="line2d_79">
      <g>
       <use xlink:href="#mb6f8fcd1ed" x="47.82024" y="10.314776" style="stroke: #000000; stroke-width: 0.8"/>
      </g>
     </g>
     <g id="line2d_80">
      <g>
       <use xlink:href="#m715edcfac8" x="252.117878" y="10.314776" style="stroke: #000000; stroke-width: 0.8"/>
      </g>
     </g>
    </g>
    <g id="text_11">
     <!-- $H_x\;\rm{(A/m)}$ -->
     <g transform="translate(11.16024 100.0863)rotate(-90)scale(0.12 -0.12)">
      <defs>
       <path id="STIXGeneral-Italic-48" d="M 4922 4179 
L 4922 4077 
Q 4640 4026 4550 3949 
Q 4461 3872 4384 3603 
L 3539 525 
Q 3520 448 3520 371 
Q 3520 237 3616 185 
Q 3712 134 4026 102 
L 4026 0 
L 2272 0 
L 2272 102 
Q 2598 128 2729 237 
Q 2861 346 2925 595 
L 3334 2086 
L 1510 2086 
L 1088 525 
Q 1069 461 1069 384 
Q 1069 243 1149 192 
Q 1229 141 1517 102 
L 1517 0 
L -51 0 
L -51 102 
Q 211 128 310 230 
Q 410 333 499 653 
L 1254 3405 
Q 1331 3699 1331 3814 
Q 1331 3949 1238 3997 
Q 1146 4045 838 4077 
L 838 4179 
L 2573 4179 
L 2573 4077 
Q 2285 4058 2141 3955 
Q 1997 3853 1933 3622 
L 1587 2355 
L 3411 2355 
L 3706 3405 
Q 3795 3738 3795 3808 
Q 3795 3930 3692 3994 
Q 3590 4058 3334 4077 
L 3334 4179 
L 4922 4179 
z
" transform="scale(0.015625)"/>
       <path id="STIXGeneral-Italic-78" d="M 1555 2272 
L 1632 1907 
Q 1971 2426 2179 2624 
Q 2387 2822 2598 2822 
Q 2714 2822 2787 2755 
Q 2861 2688 2861 2585 
Q 2861 2483 2800 2419 
Q 2739 2355 2643 2355 
Q 2586 2355 2490 2409 
Q 2394 2464 2310 2464 
Q 2125 2464 1683 1690 
Q 1683 1606 1734 1402 
L 1939 544 
Q 2003 282 2131 282 
Q 2234 282 2432 538 
Q 2451 563 2476 598 
Q 2502 634 2521 662 
Q 2541 691 2566 717 
L 2662 659 
Q 2387 230 2227 80 
Q 2067 -70 1882 -70 
Q 1728 -70 1645 26 
Q 1562 122 1504 365 
L 1318 1126 
L 755 365 
Q 557 96 432 13 
Q 307 -70 147 -70 
Q 0 -70 -86 0 
Q -173 70 -173 198 
Q -173 294 -112 361 
Q -51 429 45 429 
Q 122 429 250 358 
Q 346 301 416 301 
Q 525 301 742 614 
L 1267 1357 
L 1088 2150 
Q 1024 2432 969 2509 
Q 915 2586 794 2586 
Q 717 2586 544 2541 
L 429 2509 
L 410 2611 
L 480 2637 
Q 992 2822 1229 2822 
Q 1350 2822 1420 2707 
Q 1491 2592 1555 2272 
z
" transform="scale(0.015625)"/>
       <path id="STIXGeneral-Regular-41" d="M 4525 0 
L 2893 0 
L 2893 122 
Q 3149 122 3245 179 
Q 3334 224 3334 333 
Q 3334 499 3213 781 
L 2950 1382 
L 1274 1382 
L 979 653 
Q 922 506 922 384 
Q 922 237 1027 179 
Q 1133 122 1370 122 
L 1370 0 
L 96 0 
L 96 122 
Q 365 147 486 316 
Q 608 486 902 1190 
L 2221 4314 
L 2349 4314 
L 3923 710 
Q 4064 378 4176 262 
Q 4288 147 4525 122 
L 4525 0 
z
M 2861 1645 
L 2118 3405 
L 1382 1645 
L 2861 1645 
z
" transform="scale(0.015625)"/>
       <path id="STIXGeneral-Regular-2f" d="M 1837 4326 
L 378 -90 
L -58 -90 
L 1408 4326 
L 1837 4326 
z
" transform="scale(0.015625)"/>
      </defs>
      <use xlink:href="#STIXGeneral-Italic-48" transform="translate(0 0.40625)"/>
      <use xlink:href="#STIXGeneral-Italic-78" transform="translate(72.199982 -12.821875)scale(0.7)"/>
      <use xlink:href="#STIXGeneral-Regular-28" transform="translate(127.745063 0.40625)"/>
      <use xlink:href="#STIXGeneral-Regular-41" transform="translate(161.045051 0.40625)"/>
      <use xlink:href="#STIXGeneral-Regular-2f" transform="translate(233.245033 0.40625)"/>
      <use xlink:href="#STIXGeneral-Regular-6d" transform="translate(261.045021 0.40625)"/>
      <use xlink:href="#STIXGeneral-Regular-29" transform="translate(338.845008 0.40625)"/>
     </g>
    </g>
   </g>
   <g id="line2d_81">
    <path d="M 64.845043 139.961349 
L 81.869846 139.418069 
L 98.89465 138.838734 
L 115.919453 138.012947 
L 132.944256 136.207772 
L 149.969059 127.663446 
L 166.993862 110.846433 
L 184.018666 79.410226 
L 201.043469 49.208748 
L 218.068272 37.898628 
L 235.093075 44.245137 
" clip-path="url(#p4cd19b279b)" style="fill: none; stroke: #000000; stroke-width: 1.5; stroke-linecap: square"/>
    <defs>
     <path id="m102e77e066" d="M 0 1.5 
C 0.397805 1.5 0.77937 1.341951 1.06066 1.06066 
C 1.341951 0.77937 1.5 0.397805 1.5 0 
C 1.5 -0.397805 1.341951 -0.77937 1.06066 -1.06066 
C 0.77937 -1.341951 0.397805 -1.5 0 -1.5 
C -0.397805 -1.5 -0.77937 -1.341951 -1.06066 -1.06066 
C -1.341951 -0.77937 -1.5 -0.397805 -1.5 0 
C -1.5 0.397805 -1.341951 0.77937 -1.06066 1.06066 
C -0.77937 1.341951 -0.397805 1.5 0 1.5 
z
" style="stroke: #000000"/>
    </defs>
    <g clip-path="url(#p4cd19b279b)">
     <use xlink:href="#m102e77e066" x="64.845043" y="139.961349" style="stroke: #000000"/>
     <use xlink:href="#m102e77e066" x="81.869846" y="139.418069" style="stroke: #000000"/>
     <use xlink:href="#m102e77e066" x="98.89465" y="138.838734" style="stroke: #000000"/>
     <use xlink:href="#m102e77e066" x="115.919453" y="138.012947" style="stroke: #000000"/>
     <use xlink:href="#m102e77e066" x="132.944256" y="136.207772" style="stroke: #000000"/>
     <use xlink:href="#m102e77e066" x="149.969059" y="127.663446" style="stroke: #000000"/>
     <use xlink:href="#m102e77e066" x="166.993862" y="110.846433" style="stroke: #000000"/>
     <use xlink:href="#m102e77e066" x="184.018666" y="79.410226" style="stroke: #000000"/>
     <use xlink:href="#m102e77e066" x="201.043469" y="49.208748" style="stroke: #000000"/>
     <use xlink:href="#m102e77e066" x="218.068272" y="37.898628" style="stroke: #000000"/>
     <use xlink:href="#m102e77e066" x="235.093075" y="44.245137" style="stroke: #000000"/>
    </g>
   </g>
   <g id="line2d_82">
    <path d="M 64.845043 139.961349 
L 81.869846 139.870473 
L 98.89465 139.771942 
L 115.919453 139.63711 
L 132.944256 139.159269 
L 149.969059 137.022694 
L 166.993862 132.552974 
L 184.018666 120.551405 
L 201.043469 106.179157 
L 218.068272 96.301322 
L 235.093075 98.746086 
" clip-path="url(#p4cd19b279b)" style="fill: none; stroke: #dc143c; stroke-width: 1.5; stroke-linecap: square"/>
    <defs>
     <path id="m64e58233a9" d="M 0 -1.5 
L -1.5 1.5 
L 1.5 1.5 
z
" style="stroke: #dc143c; stroke-linejoin: miter"/>
    </defs>
    <g clip-path="url(#p4cd19b279b)">
     <use xlink:href="#m64e58233a9" x="64.845043" y="139.961349" style="fill: #dc143c; stroke: #dc143c; stroke-linejoin: miter"/>
     <use xlink:href="#m64e58233a9" x="81.869846" y="139.870473" style="fill: #dc143c; stroke: #dc143c; stroke-linejoin: miter"/>
     <use xlink:href="#m64e58233a9" x="98.89465" y="139.771942" style="fill: #dc143c; stroke: #dc143c; stroke-linejoin: miter"/>
     <use xlink:href="#m64e58233a9" x="115.919453" y="139.63711" style="fill: #dc143c; stroke: #dc143c; stroke-linejoin: miter"/>
     <use xlink:href="#m64e58233a9" x="132.944256" y="139.159269" style="fill: #dc143c; stroke: #dc143c; stroke-linejoin: miter"/>
     <use xlink:href="#m64e58233a9" x="149.969059" y="137.022694" style="fill: #dc143c; stroke: #dc143c; stroke-linejoin: miter"/>
     <use xlink:href="#m64e58233a9" x="166.993862" y="132.552974" style="fill: #dc143c; stroke: #dc143c; stroke-linejoin: miter"/>
     <use xlink:href="#m64e58233a9" x="184.018666" y="120.551405" style="fill: #dc143c; stroke: #dc143c; stroke-linejoin: miter"/>
     <use xlink:href="#m64e58233a9" x="201.043469" y="106.179157" style="fill: #dc143c; stroke: #dc143c; stroke-linejoin: miter"/>
     <use xlink:href="#m64e58233a9" x="218.068272" y="96.301322" style="fill: #dc143c; stroke: #dc143c; stroke-linejoin: miter"/>
     <use xlink:href="#m64e58233a9" x="235.093075" y="98.746086" style="fill: #dc143c; stroke: #dc143c; stroke-linejoin: miter"/>
    </g>
   </g>
   <g id="line2d_83">
    <path d="M 64.845043 139.961349 
L 81.869846 139.914603 
L 98.89465 139.865288 
L 115.919453 139.792192 
L 132.944256 139.330156 
L 149.969059 136.973305 
L 166.993862 131.540496 
L 184.018666 116.476799 
L 201.043469 80.891901 
L 218.068272 31.305174 
L 235.093075 15.45125 
" clip-path="url(#p4cd19b279b)" style="fill: none; stroke: #0c5da5; stroke-width: 1.5; stroke-linecap: square"/>
    <defs>
     <path id="m1e86116d6d" d="M -1.5 1.5 
L 1.5 1.5 
L 1.5 -1.5 
L -1.5 -1.5 
z
" style="stroke: #0c5da5; stroke-linejoin: miter"/>
    </defs>
    <g clip-path="url(#p4cd19b279b)">
     <use xlink:href="#m1e86116d6d" x="64.845043" y="139.961349" style="fill: #0c5da5; stroke: #0c5da5; stroke-linejoin: miter"/>
     <use xlink:href="#m1e86116d6d" x="81.869846" y="139.914603" style="fill: #0c5da5; stroke: #0c5da5; stroke-linejoin: miter"/>
     <use xlink:href="#m1e86116d6d" x="98.89465" y="139.865288" style="fill: #0c5da5; stroke: #0c5da5; stroke-linejoin: miter"/>
     <use xlink:href="#m1e86116d6d" x="115.919453" y="139.792192" style="fill: #0c5da5; stroke: #0c5da5; stroke-linejoin: miter"/>
     <use xlink:href="#m1e86116d6d" x="132.944256" y="139.330156" style="fill: #0c5da5; stroke: #0c5da5; stroke-linejoin: miter"/>
     <use xlink:href="#m1e86116d6d" x="149.969059" y="136.973305" style="fill: #0c5da5; stroke: #0c5da5; stroke-linejoin: miter"/>
     <use xlink:href="#m1e86116d6d" x="166.993862" y="131.540496" style="fill: #0c5da5; stroke: #0c5da5; stroke-linejoin: miter"/>
     <use xlink:href="#m1e86116d6d" x="184.018666" y="116.476799" style="fill: #0c5da5; stroke: #0c5da5; stroke-linejoin: miter"/>
     <use xlink:href="#m1e86116d6d" x="201.043469" y="80.891901" style="fill: #0c5da5; stroke: #0c5da5; stroke-linejoin: miter"/>
     <use xlink:href="#m1e86116d6d" x="218.068272" y="31.305174" style="fill: #0c5da5; stroke: #0c5da5; stroke-linejoin: miter"/>
     <use xlink:href="#m1e86116d6d" x="235.093075" y="15.45125" style="fill: #0c5da5; stroke: #0c5da5; stroke-linejoin: miter"/>
    </g>
   </g>
   <g id="patch_3">
    <path d="M 47.82024 152.412359 
L 47.82024 3.00024 
" style="fill: none; stroke: #000000; stroke-linejoin: miter; stroke-linecap: square"/>
   </g>
   <g id="patch_4">
    <path d="M 252.117878 152.412359 
L 252.117878 3.00024 
" style="fill: none; stroke: #000000; stroke-linejoin: miter; stroke-linecap: square"/>
   </g>
   <g id="patch_5">
    <path d="M 47.82024 152.412359 
L 252.117878 152.412359 
" style="fill: none; stroke: #000000; stroke-linejoin: miter; stroke-linecap: square"/>
   </g>
   <g id="patch_6">
    <path d="M 47.82024 3.00024 
L 252.117878 3.00024 
" style="fill: none; stroke: #000000; stroke-linejoin: miter; stroke-linecap: square"/>
   </g>
   <g id="legend_1">
    <g id="line2d_84">
     <path d="M 58.62024 19.06899 
L 70.62024 19.06899 
L 82.62024 19.06899 
" style="fill: none; stroke: #000000; stroke-width: 1.5; stroke-linecap: square"/>
     <g>
      <use xlink:href="#m102e77e066" x="70.62024" y="19.06899" style="stroke: #000000"/>
     </g>
    </g>
    <g id="text_12">
     <!-- 开缝 -->
     <g transform="translate(92.22024 23.26899)scale(0.12 -0.12)">
      <defs>
       <path id="SimSun-5f00" d="M 2500 4425 
L 4075 4425 
L 4075 2525 
L 2500 2525 
L 2500 4425 
z
M 4425 2400 
L 6125 2400 
L 5650 2900 
L 5300 2525 
L 4425 2525 
L 4425 4425 
L 5850 4425 
L 5375 4875 
L 5050 4575 
L 675 4575 
L 900 4350 
Q 1050 4425 1275 4425 
L 2150 4425 
L 2150 2525 
L 450 2525 
L 650 2325 
Q 850 2400 1075 2400 
L 2150 2400 
Q 2125 1275 1762 662 
Q 1400 50 425 -525 
L 475 -600 
Q 1650 -75 2062 600 
Q 2475 1275 2500 2400 
L 4075 2400 
L 4075 625 
Q 4075 100 4050 -650 
L 4450 -500 
Q 4425 -50 4425 425 
L 4425 2400 
z
" transform="scale(0.015625)"/>
       <path id="SimSun-7f1d" d="M 850 1700 
Q 1425 2475 2175 3475 
L 2400 3600 
L 1975 3950 
Q 1825 3575 1575 3150 
L 625 3100 
Q 1125 3750 1650 4675 
L 1875 4800 
L 1400 5125 
Q 1225 4475 862 3775 
Q 500 3075 325 3125 
L 525 2675 
Q 725 2825 1525 3025 
Q 1050 2200 825 1962 
Q 600 1725 425 1675 
L 675 1225 
Q 950 1475 2225 1750 
L 2200 1850 
L 850 1700 
z
M 275 450 
L 475 -25 
Q 700 175 1112 337 
Q 1525 500 2325 800 
L 2300 925 
Q 1625 725 1087 600 
Q 550 475 275 450 
z
M 4075 4350 
L 5075 4350 
Q 4825 3900 4575 3625 
Q 4325 3875 4075 4350 
z
M 4600 3275 
Q 5025 2925 5725 2675 
Q 5775 2900 6150 2925 
L 6150 3000 
Q 5250 3100 4775 3450 
Q 5050 3725 5400 4250 
L 5600 4375 
L 5300 4675 
L 5100 4475 
L 4125 4475 
L 4300 4825 
L 4500 4950 
L 4025 5225 
Q 3925 4750 3700 4262 
Q 3475 3775 3100 3275 
L 3175 3225 
Q 3675 3700 4000 4250 
Q 4225 3725 4425 3475 
Q 3850 2975 3075 2625 
L 3100 2525 
Q 3850 2800 4425 3150 
L 4425 2450 
L 3350 2450 
L 3550 2250 
L 3775 2325 
L 4425 2325 
L 4425 1725 
L 3400 1725 
L 3600 1525 
L 3825 1600 
L 4425 1600 
L 4425 1000 
L 3125 1000 
L 3325 800 
L 3550 875 
L 4425 875 
Q 4425 425 4400 -50 
L 4750 75 
Q 4725 325 4725 875 
L 6050 875 
L 5675 1250 
L 5425 1000 
L 4725 1000 
L 4725 1600 
L 5700 1600 
L 5350 1950 
L 5125 1725 
L 4725 1725 
L 4725 2325 
L 5800 2325 
L 5450 2675 
L 5225 2450 
L 4725 2450 
L 4725 2725 
L 4900 2875 
L 4425 3150 
Q 4450 3175 4600 3275 
z
M 2275 4700 
L 2225 4650 
Q 2575 4200 2662 3912 
Q 2750 3625 2887 3775 
Q 3025 3925 2962 4150 
Q 2900 4375 2275 4700 
z
M 2075 -475 
Q 2325 -100 2525 100 
Q 2725 300 2900 75 
Q 3075 -150 3387 -300 
Q 3700 -450 4112 -487 
Q 4525 -525 5725 -500 
Q 5700 -275 6150 -150 
L 6150 -75 
Q 5000 -200 4150 -187 
Q 3300 -175 2850 325 
L 2850 2400 
L 3050 2550 
L 2750 2850 
L 2500 2600 
L 1775 2600 
L 1975 2400 
L 2200 2475 
L 2550 2475 
L 2550 325 
Q 2225 125 1750 -200 
L 2075 -475 
z
" transform="scale(0.015625)"/>
      </defs>
      <use xlink:href="#SimSun-5f00"/>
      <use xlink:href="#SimSun-7f1d" x="100"/>
     </g>
    </g>
    <g id="line2d_85">
     <path d="M 58.62024 36.084615 
L 70.62024 36.084615 
L 82.62024 36.084615 
" style="fill: none; stroke: #dc143c; stroke-width: 1.5; stroke-linecap: square"/>
     <g>
      <use xlink:href="#m64e58233a9" x="70.62024" y="36.084615" style="fill: #dc143c; stroke: #dc143c; stroke-linejoin: miter"/>
     </g>
    </g>
    <g id="text_13">
     <!-- 空气 -->
     <g transform="translate(92.22024 40.284615)scale(0.12 -0.12)">
      <defs>
       <path id="SimSun-7a7a" d="M 1475 2150 
L 1675 1950 
L 1900 2025 
L 3050 2025 
L 3050 -150 
L 500 -150 
L 700 -350 
Q 925 -275 1200 -275 
L 6025 -275 
L 5525 225 
L 5150 -150 
L 3425 -150 
L 3425 2025 
L 5075 2025 
L 4625 2475 
L 4300 2150 
L 1475 2150 
z
M 2700 5225 
L 2650 5150 
Q 3075 4775 3200 4450 
Q 3325 4125 3487 4400 
Q 3650 4675 3450 4875 
Q 3250 5075 2700 5225 
z
M 5100 3400 
L 5175 3350 
Q 5700 4050 6075 4075 
L 5625 4525 
L 5350 4250 
L 1225 4250 
L 1225 4525 
L 1100 4525 
Q 1025 4100 887 3887 
Q 750 3675 625 3537 
Q 500 3400 637 3325 
Q 775 3250 1037 3350 
Q 1300 3450 1225 4125 
L 5400 4125 
L 5100 3400 
z
M 2875 3300 
L 2400 3750 
Q 2075 3250 1587 2825 
Q 1100 2400 450 2025 
L 500 1925 
Q 1300 2250 2000 2800 
Q 2700 3350 2875 3300 
z
M 3725 3625 
L 3675 3525 
Q 4250 3225 4625 2950 
Q 5000 2675 5225 2375 
Q 5450 2075 5537 2287 
Q 5625 2500 5575 2725 
Q 5525 2950 5025 3162 
Q 4525 3375 3725 3625 
z
" transform="scale(0.015625)"/>
       <path id="SimSun-6c14" d="M 1700 5200 
Q 1600 4750 1250 3987 
Q 900 3225 225 2475 
L 275 2400 
Q 875 2925 1150 3300 
Q 1425 3675 1700 4100 
L 5700 4100 
L 5200 4625 
L 4800 4225 
L 1750 4225 
Q 1900 4525 2012 4675 
Q 2125 4825 2300 4925 
L 1700 5200 
z
M 1700 3450 
L 1900 3250 
Q 2125 3325 2400 3325 
L 5200 3325 
L 4750 3800 
L 4300 3450 
L 1700 3450 
z
M 1075 2675 
L 1275 2475 
Q 1500 2550 1775 2550 
L 4250 2550 
Q 4225 1525 4337 900 
Q 4450 275 4775 -100 
Q 5100 -475 5562 -562 
Q 6025 -650 5950 -512 
Q 5875 -375 5837 62 
Q 5800 500 5825 875 
L 5725 875 
Q 5600 150 5500 -150 
Q 5050 25 4862 425 
Q 4675 825 4625 1387 
Q 4575 1950 4625 2425 
L 4900 2600 
L 4500 2975 
L 4200 2675 
L 1075 2675 
z
" transform="scale(0.015625)"/>
      </defs>
      <use xlink:href="#SimSun-7a7a"/>
      <use xlink:href="#SimSun-6c14" x="100"/>
     </g>
    </g>
    <g id="line2d_86">
     <path d="M 58.62024 53.10024 
L 70.62024 53.10024 
L 82.62024 53.10024 
" style="fill: none; stroke: #0c5da5; stroke-width: 1.5; stroke-linecap: square"/>
     <g>
      <use xlink:href="#m1e86116d6d" x="70.62024" y="53.10024" style="fill: #0c5da5; stroke: #0c5da5; stroke-linejoin: miter"/>
     </g>
    </g>
    <g id="text_14">
     <!-- 钢板 -->
     <g transform="translate(92.22024 57.30024)scale(0.12 -0.12)">
      <defs>
       <path id="SimSun-94a2" d="M 2975 -550 
L 3325 -375 
Q 3300 225 3300 450 
L 3300 4575 
L 5375 4575 
L 5375 125 
Q 5375 25 5262 0 
Q 5150 -25 4550 50 
L 4550 -50 
Q 5175 -200 5275 -550 
Q 5500 -450 5600 -300 
Q 5700 -150 5700 25 
L 5700 4475 
L 5875 4600 
L 5550 4925 
L 5325 4700 
L 3300 4700 
L 2975 4925 
Q 3000 3875 3000 2250 
Q 3000 625 2975 -550 
z
M 3525 3800 
L 3475 3725 
Q 4000 2975 4275 2475 
Q 4075 1775 3450 800 
L 3525 750 
Q 4050 1350 4450 2200 
Q 4650 1800 4737 1325 
Q 4825 850 4950 950 
Q 5075 1050 5100 1250 
Q 5125 1450 5000 1750 
Q 4875 2050 4575 2525 
Q 4725 2950 4975 3700 
L 5125 3825 
L 4675 4100 
Q 4600 3575 4375 2775 
Q 3900 3400 3525 3800 
z
M 1650 325 
L 1650 1775 
L 2850 1775 
L 2450 2175 
L 2175 1900 
L 1650 1900 
L 1650 2925 
L 2625 2925 
L 2250 3300 
L 2000 3050 
L 875 3050 
Q 1075 3375 1325 3900 
L 2850 3900 
L 2450 4300 
L 2175 4025 
L 1375 4025 
Q 1525 4400 1650 4675 
L 1850 4850 
L 1350 5125 
Q 1000 3525 200 2350 
L 275 2300 
Q 550 2600 800 2925 
L 1300 2925 
L 1300 1900 
L 275 1900 
L 475 1700 
Q 700 1775 975 1775 
L 1300 1775 
L 1300 400 
Q 1300 150 1200 25 
L 1500 -350 
Q 1850 125 2775 975 
L 2725 1050 
L 1650 325 
z
" transform="scale(0.015625)"/>
       <path id="SimSun-677f" d="M 5350 3025 
L 5600 3150 
L 5225 3550 
L 4975 3300 
L 3175 3300 
L 3175 4275 
Q 4300 4450 4787 4550 
Q 5275 4650 5575 4650 
L 5200 5125 
Q 4950 4975 4637 4837 
Q 4325 4700 3175 4400 
L 2800 4600 
Q 2825 3675 2825 2787 
Q 2825 1900 2650 1062 
Q 2475 225 1750 -500 
L 1825 -575 
Q 2525 -25 2775 550 
Q 3025 1125 3100 1825 
Q 3175 2525 3175 3175 
L 3450 3175 
Q 3600 1925 4075 1000 
Q 3375 125 2175 -425 
L 2225 -500 
Q 3425 -125 4250 750 
Q 4800 50 5525 -425 
Q 5700 -100 6100 -125 
L 6100 -25 
Q 5125 250 4450 1000 
Q 4925 1650 5350 3025 
z
M 3575 3175 
L 4975 3175 
Q 4725 2025 4275 1275 
Q 3800 2075 3575 3175 
z
M 1650 2750 
Q 2025 2300 2162 1950 
Q 2300 1600 2425 1912 
Q 2550 2225 2387 2412 
Q 2225 2600 1650 2925 
L 1650 3600 
L 2650 3600 
L 2250 4075 
L 1950 3725 
L 1650 3725 
L 1650 4750 
L 1900 4975 
L 1275 5225 
Q 1300 4625 1300 3725 
L 275 3725 
L 475 3525 
L 675 3600 
L 1250 3600 
Q 950 2025 275 825 
L 350 775 
Q 950 1500 1300 2500 
Q 1300 475 1275 -650 
L 1675 -475 
Q 1650 50 1650 2750 
z
" transform="scale(0.015625)"/>
      </defs>
      <use xlink:href="#SimSun-94a2"/>
      <use xlink:href="#SimSun-677f" x="100"/>
     </g>
    </g>
   </g>
  </g>
 </g>
 <defs>
  <clipPath id="p4cd19b279b">
   <rect x="47.82024" y="3.00024" width="204.297638" height="149.412119"/>
  </clipPath>
 </defs>
</svg>
