<?xml version="1.0" encoding="utf-8" standalone="no"?>
<!DOCTYPE svg PUBLIC "-//W3C//DTD SVG 1.1//EN"
  "http://www.w3.org/Graphics/SVG/1.1/DTD/svg11.dtd">
<!-- Created with matplotlib (https://matplotlib.org/) -->
<svg height="100.8pt" version="1.1" viewBox="0 0 504 100.8" width="504pt" xmlns="http://www.w3.org/2000/svg" xmlns:xlink="http://www.w3.org/1999/xlink">
 <metadata>
  <rdf:RDF xmlns:cc="http://creativecommons.org/ns#" xmlns:dc="http://purl.org/dc/elements/1.1/" xmlns:rdf="http://www.w3.org/1999/02/22-rdf-syntax-ns#">
   <cc:Work>
    <dc:type rdf:resource="http://purl.org/dc/dcmitype/StillImage"/>
    <dc:date>2020-12-26T17:25:36.574790</dc:date>
    <dc:format>image/svg+xml</dc:format>
    <dc:creator>
     <cc:Agent>
      <dc:title>Matplotlib v3.3.3, https://matplotlib.org/</dc:title>
     </cc:Agent>
    </dc:creator>
   </cc:Work>
  </rdf:RDF>
 </metadata>
 <defs>
  <style type="text/css">*{stroke-linecap:butt;stroke-linejoin:round;}</style>
 </defs>
 <g id="figure_1">
  <g id="patch_1">
   <path d="M 0 100.8 
L 504 100.8 
L 504 0 
L 0 0 
z
" style="fill:#ffffff;"/>
  </g>
  <g id="axes_1">
   <g id="patch_2">
    <path d="M 14.06024 86.309448 
L 500.99976 86.309448 
L 500.99976 3.00024 
L 14.06024 3.00024 
z
" style="fill:#ffffff;"/>
   </g>
   <g id="matplotlib.axis_1">
    <g id="xtick_1">
     <g id="line2d_1">
      <defs>
       <path d="M 0 0 
L 0 -3 
" id="md96e7ce5d7" style="stroke:#000000;stroke-width:0.5;"/>
      </defs>
      <g>
       <use style="stroke:#000000;stroke-width:0.5;" x="36.193855" xlink:href="#md96e7ce5d7" y="86.309448"/>
      </g>
     </g>
     <g id="line2d_2">
      <defs>
       <path d="M 0 0 
L 0 3 
" id="mf31eb95bbe" style="stroke:#000000;stroke-width:0.5;"/>
      </defs>
      <g>
       <use style="stroke:#000000;stroke-width:0.5;" x="36.193855" xlink:href="#mf31eb95bbe" y="3.00024"/>
      </g>
     </g>
     <g id="text_1">
      <!-- $\mathdefault{0.0}$ -->
      <g transform="translate(30.433855 96.054604)scale(0.09 -0.09)">
       <defs>
        <path d="M 25 -2.203125 
Q 12.75 -2.203125 8.328125 7.875 
Q 3.90625 17.96875 3.90625 31.890625 
Q 3.90625 40.578125 5.484375 48.234375 
Q 7.078125 55.90625 11.78125 61.25 
Q 16.5 66.609375 25 66.609375 
Q 31.59375 66.609375 35.78125 63.375 
Q 39.984375 60.15625 42.1875 55.046875 
Q 44.390625 49.953125 45.1875 44.109375 
Q 46 38.28125 46 31.890625 
Q 46 23.296875 44.40625 15.796875 
Q 42.828125 8.296875 38.1875 3.046875 
Q 33.546875 -2.203125 25 -2.203125 
z
M 25 0.390625 
Q 30.5625 0.390625 33.296875 6.09375 
Q 36.03125 11.8125 36.671875 18.75 
Q 37.3125 25.6875 37.3125 33.5 
Q 37.3125 41.015625 36.671875 47.359375 
Q 36.03125 53.71875 33.3125 58.859375 
Q 30.609375 64.015625 25 64.015625 
Q 19.34375 64.015625 16.609375 58.828125 
Q 13.875 53.65625 13.234375 47.328125 
Q 12.59375 41.015625 12.59375 33.5 
Q 12.59375 27.9375 12.859375 23 
Q 13.140625 18.0625 14.3125 12.8125 
Q 15.484375 7.5625 18.09375 3.96875 
Q 20.703125 0.390625 25 0.390625 
z
" id="Cmr10-48"/>
        <path d="M 8.40625 5.515625 
Q 8.40625 7.765625 10.0625 9.375 
Q 11.71875 10.984375 13.921875 10.984375 
Q 15.28125 10.984375 16.59375 10.25 
Q 17.921875 9.515625 18.65625 8.203125 
Q 19.390625 6.890625 19.390625 5.515625 
Q 19.390625 3.328125 17.765625 1.65625 
Q 16.15625 0 13.921875 0 
Q 11.71875 0 10.0625 1.65625 
Q 8.40625 3.328125 8.40625 5.515625 
z
" id="Cmr10-46"/>
       </defs>
       <use transform="translate(0 0.390625)" xlink:href="#Cmr10-48"/>
       <use transform="translate(50 0.390625)" xlink:href="#Cmr10-46"/>
       <use transform="translate(77.685547 0.390625)" xlink:href="#Cmr10-48"/>
      </g>
     </g>
    </g>
    <g id="xtick_2">
     <g id="line2d_3">
      <g>
       <use style="stroke:#000000;stroke-width:0.5;" x="95.003106" xlink:href="#md96e7ce5d7" y="86.309448"/>
      </g>
     </g>
     <g id="line2d_4">
      <g>
       <use style="stroke:#000000;stroke-width:0.5;" x="95.003106" xlink:href="#mf31eb95bbe" y="3.00024"/>
      </g>
     </g>
     <g id="text_2">
      <!-- $\mathdefault{2.5}$ -->
      <g transform="translate(89.243106 96.054604)scale(0.09 -0.09)">
       <defs>
        <path d="M 4.984375 0 
L 4.984375 2.6875 
Q 4.984375 2.9375 5.171875 3.21875 
L 20.703125 20.40625 
Q 24.21875 24.21875 26.40625 26.796875 
Q 28.609375 29.390625 30.75 32.765625 
Q 32.90625 36.140625 34.15625 39.625 
Q 35.40625 43.109375 35.40625 47.015625 
Q 35.40625 51.125 33.890625 54.859375 
Q 32.375 58.59375 29.375 60.84375 
Q 26.375 63.09375 22.125 63.09375 
Q 17.78125 63.09375 14.3125 60.46875 
Q 10.84375 57.859375 9.421875 53.71875 
Q 9.8125 53.8125 10.5 53.8125 
Q 12.75 53.8125 14.328125 52.296875 
Q 15.921875 50.78125 15.921875 48.390625 
Q 15.921875 46.09375 14.328125 44.5 
Q 12.75 42.921875 10.5 42.921875 
Q 8.15625 42.921875 6.5625 44.546875 
Q 4.984375 46.1875 4.984375 48.390625 
Q 4.984375 52.15625 6.390625 55.4375 
Q 7.8125 58.734375 10.46875 61.296875 
Q 13.140625 63.875 16.484375 65.234375 
Q 19.828125 66.609375 23.578125 66.609375 
Q 29.296875 66.609375 34.21875 64.1875 
Q 39.15625 61.765625 42.03125 57.34375 
Q 44.921875 52.9375 44.921875 47.015625 
Q 44.921875 42.671875 43.015625 38.765625 
Q 41.109375 34.859375 38.125 31.65625 
Q 35.15625 28.46875 30.515625 24.40625 
Q 25.875 20.359375 24.421875 19 
L 13.09375 8.109375 
L 22.703125 8.109375 
Q 29.78125 8.109375 34.546875 8.21875 
Q 39.3125 8.34375 39.59375 8.59375 
Q 40.765625 9.859375 42 17.828125 
L 44.921875 17.828125 
L 42.09375 0 
z
" id="Cmr10-50"/>
        <path d="M 8.6875 11.375 
Q 9.71875 8.453125 11.84375 6.046875 
Q 13.96875 3.65625 16.875 2.3125 
Q 19.78125 0.984375 22.90625 0.984375 
Q 30.125 0.984375 32.859375 6.59375 
Q 35.59375 12.203125 35.59375 20.21875 
Q 35.59375 23.6875 35.46875 26.046875 
Q 35.359375 28.421875 34.8125 30.609375 
Q 33.890625 34.125 31.5625 36.765625 
Q 29.25 39.40625 25.875 39.40625 
Q 22.515625 39.40625 20.09375 38.375 
Q 17.671875 37.359375 16.15625 35.984375 
Q 14.65625 34.625 13.484375 33.109375 
Q 12.3125 31.59375 12.015625 31.5 
L 10.890625 31.5 
Q 10.640625 31.5 10.265625 31.8125 
Q 9.90625 32.125 9.90625 32.421875 
L 9.90625 65.828125 
Q 9.90625 66.0625 10.21875 66.328125 
Q 10.546875 66.609375 10.890625 66.609375 
L 11.1875 66.609375 
Q 17.921875 63.375 25.484375 63.375 
Q 32.90625 63.375 39.796875 66.609375 
L 40.09375 66.609375 
Q 40.4375 66.609375 40.71875 66.359375 
Q 41.015625 66.109375 41.015625 65.828125 
L 41.015625 64.890625 
Q 41.015625 64.40625 40.828125 64.40625 
Q 37.40625 59.859375 32.25 57.3125 
Q 27.09375 54.78125 21.578125 54.78125 
Q 17.578125 54.78125 13.375 55.90625 
L 13.375 37.015625 
Q 16.703125 39.703125 19.3125 40.84375 
Q 21.921875 42 25.984375 42 
Q 31.5 42 35.859375 38.8125 
Q 40.234375 35.640625 42.578125 30.53125 
Q 44.921875 25.4375 44.921875 20.125 
Q 44.921875 14.109375 41.96875 8.984375 
Q 39.015625 3.859375 33.9375 0.828125 
Q 28.859375 -2.203125 22.90625 -2.203125 
Q 17.96875 -2.203125 13.84375 0.328125 
Q 9.71875 2.875 7.34375 7.171875 
Q 4.984375 11.46875 4.984375 16.3125 
Q 4.984375 18.5625 6.4375 19.96875 
Q 7.90625 21.390625 10.109375 21.390625 
Q 12.3125 21.390625 13.796875 19.9375 
Q 15.28125 18.5 15.28125 16.3125 
Q 15.28125 14.15625 13.796875 12.671875 
Q 12.3125 11.1875 10.109375 11.1875 
Q 9.765625 11.1875 9.328125 11.25 
Q 8.890625 11.328125 8.6875 11.375 
z
" id="Cmr10-53"/>
       </defs>
       <use transform="translate(0 0.390625)" xlink:href="#Cmr10-50"/>
       <use transform="translate(50 0.390625)" xlink:href="#Cmr10-46"/>
       <use transform="translate(77.685547 0.390625)" xlink:href="#Cmr10-53"/>
      </g>
     </g>
    </g>
    <g id="xtick_3">
     <g id="line2d_5">
      <g>
       <use style="stroke:#000000;stroke-width:0.5;" x="153.812357" xlink:href="#md96e7ce5d7" y="86.309448"/>
      </g>
     </g>
     <g id="line2d_6">
      <g>
       <use style="stroke:#000000;stroke-width:0.5;" x="153.812357" xlink:href="#mf31eb95bbe" y="3.00024"/>
      </g>
     </g>
     <g id="text_3">
      <!-- $\mathdefault{5.0}$ -->
      <g transform="translate(148.052357 96.054604)scale(0.09 -0.09)">
       <use transform="translate(0 0.390625)" xlink:href="#Cmr10-53"/>
       <use transform="translate(50 0.390625)" xlink:href="#Cmr10-46"/>
       <use transform="translate(77.685547 0.390625)" xlink:href="#Cmr10-48"/>
      </g>
     </g>
    </g>
    <g id="xtick_4">
     <g id="line2d_7">
      <g>
       <use style="stroke:#000000;stroke-width:0.5;" x="212.621609" xlink:href="#md96e7ce5d7" y="86.309448"/>
      </g>
     </g>
     <g id="line2d_8">
      <g>
       <use style="stroke:#000000;stroke-width:0.5;" x="212.621609" xlink:href="#mf31eb95bbe" y="3.00024"/>
      </g>
     </g>
     <g id="text_4">
      <!-- $\mathdefault{7.5}$ -->
      <g transform="translate(206.861609 96.054604)scale(0.09 -0.09)">
       <defs>
        <path d="M 17.390625 2.59375 
Q 17.390625 8.15625 18.359375 13.46875 
Q 19.34375 18.796875 21.21875 24 
Q 23.09375 29.203125 25.75 34.203125 
Q 28.421875 39.203125 31.59375 43.609375 
L 40.71875 56.296875 
L 29.296875 56.296875 
Q 11.53125 56.296875 10.984375 55.8125 
Q 9.671875 54.203125 8.5 46.578125 
L 5.609375 46.578125 
L 8.890625 67.578125 
L 11.8125 67.578125 
L 11.8125 67.28125 
Q 11.8125 65.484375 17.921875 64.9375 
Q 24.03125 64.40625 29.890625 64.40625 
L 48.484375 64.40625 
L 48.484375 61.8125 
Q 48.484375 61.71875 48.453125 61.671875 
Q 48.4375 61.625 48.390625 61.53125 
L 34.625 42.1875 
Q 29.546875 34.671875 28.265625 25.484375 
Q 27 16.3125 27 2.59375 
Q 27 0.640625 25.578125 -0.78125 
Q 24.171875 -2.203125 22.21875 -2.203125 
Q 20.21875 -2.203125 18.796875 -0.78125 
Q 17.390625 0.640625 17.390625 2.59375 
z
" id="Cmr10-55"/>
       </defs>
       <use transform="translate(0 0.421875)" xlink:href="#Cmr10-55"/>
       <use transform="translate(50 0.421875)" xlink:href="#Cmr10-46"/>
       <use transform="translate(77.685547 0.421875)" xlink:href="#Cmr10-53"/>
      </g>
     </g>
    </g>
    <g id="xtick_5">
     <g id="line2d_9">
      <g>
       <use style="stroke:#000000;stroke-width:0.5;" x="271.43086" xlink:href="#md96e7ce5d7" y="86.309448"/>
      </g>
     </g>
     <g id="line2d_10">
      <g>
       <use style="stroke:#000000;stroke-width:0.5;" x="271.43086" xlink:href="#mf31eb95bbe" y="3.00024"/>
      </g>
     </g>
     <g id="text_5">
      <!-- $\mathdefault{10.0}$ -->
      <g transform="translate(263.42086 96.054604)scale(0.09 -0.09)">
       <defs>
        <path d="M 9.28125 0 
L 9.28125 3.515625 
Q 21.78125 3.515625 21.78125 6.6875 
L 21.78125 59.1875 
Q 16.609375 56.6875 8.6875 56.6875 
L 8.6875 60.203125 
Q 20.953125 60.203125 27.203125 66.609375 
L 28.609375 66.609375 
Q 28.953125 66.609375 29.265625 66.328125 
Q 29.59375 66.0625 29.59375 65.71875 
L 29.59375 6.6875 
Q 29.59375 3.515625 42.09375 3.515625 
L 42.09375 0 
z
" id="Cmr10-49"/>
       </defs>
       <use transform="translate(0 0.390625)" xlink:href="#Cmr10-49"/>
       <use transform="translate(50 0.390625)" xlink:href="#Cmr10-48"/>
       <use transform="translate(100 0.390625)" xlink:href="#Cmr10-46"/>
       <use transform="translate(127.685547 0.390625)" xlink:href="#Cmr10-48"/>
      </g>
     </g>
    </g>
    <g id="xtick_6">
     <g id="line2d_11">
      <g>
       <use style="stroke:#000000;stroke-width:0.5;" x="330.240112" xlink:href="#md96e7ce5d7" y="86.309448"/>
      </g>
     </g>
     <g id="line2d_12">
      <g>
       <use style="stroke:#000000;stroke-width:0.5;" x="330.240112" xlink:href="#mf31eb95bbe" y="3.00024"/>
      </g>
     </g>
     <g id="text_6">
      <!-- $\mathdefault{12.5}$ -->
      <g transform="translate(322.230112 96.054604)scale(0.09 -0.09)">
       <use transform="translate(0 0.390625)" xlink:href="#Cmr10-49"/>
       <use transform="translate(50 0.390625)" xlink:href="#Cmr10-50"/>
       <use transform="translate(100 0.390625)" xlink:href="#Cmr10-46"/>
       <use transform="translate(127.685547 0.390625)" xlink:href="#Cmr10-53"/>
      </g>
     </g>
    </g>
    <g id="xtick_7">
     <g id="line2d_13">
      <g>
       <use style="stroke:#000000;stroke-width:0.5;" x="389.049363" xlink:href="#md96e7ce5d7" y="86.309448"/>
      </g>
     </g>
     <g id="line2d_14">
      <g>
       <use style="stroke:#000000;stroke-width:0.5;" x="389.049363" xlink:href="#mf31eb95bbe" y="3.00024"/>
      </g>
     </g>
     <g id="text_7">
      <!-- $\mathdefault{15.0}$ -->
      <g transform="translate(381.039363 96.054604)scale(0.09 -0.09)">
       <use transform="translate(0 0.390625)" xlink:href="#Cmr10-49"/>
       <use transform="translate(50 0.390625)" xlink:href="#Cmr10-53"/>
       <use transform="translate(100 0.390625)" xlink:href="#Cmr10-46"/>
       <use transform="translate(127.685547 0.390625)" xlink:href="#Cmr10-48"/>
      </g>
     </g>
    </g>
    <g id="xtick_8">
     <g id="line2d_15">
      <g>
       <use style="stroke:#000000;stroke-width:0.5;" x="447.858615" xlink:href="#md96e7ce5d7" y="86.309448"/>
      </g>
     </g>
     <g id="line2d_16">
      <g>
       <use style="stroke:#000000;stroke-width:0.5;" x="447.858615" xlink:href="#mf31eb95bbe" y="3.00024"/>
      </g>
     </g>
     <g id="text_8">
      <!-- $\mathdefault{17.5}$ -->
      <g transform="translate(439.848615 96.054604)scale(0.09 -0.09)">
       <use transform="translate(0 0.421875)" xlink:href="#Cmr10-49"/>
       <use transform="translate(50 0.421875)" xlink:href="#Cmr10-55"/>
       <use transform="translate(100 0.421875)" xlink:href="#Cmr10-46"/>
       <use transform="translate(127.685547 0.421875)" xlink:href="#Cmr10-53"/>
      </g>
     </g>
    </g>
    <g id="xtick_9">
     <g id="line2d_17">
      <defs>
       <path d="M 0 0 
L 0 -1.5 
" id="m9a8d4dafce" style="stroke:#000000;stroke-width:0.5;"/>
      </defs>
      <g>
       <use style="stroke:#000000;stroke-width:0.5;" x="24.432004" xlink:href="#m9a8d4dafce" y="86.309448"/>
      </g>
     </g>
     <g id="line2d_18">
      <defs>
       <path d="M 0 0 
L 0 1.5 
" id="mf07bf05d44" style="stroke:#000000;stroke-width:0.5;"/>
      </defs>
      <g>
       <use style="stroke:#000000;stroke-width:0.5;" x="24.432004" xlink:href="#mf07bf05d44" y="3.00024"/>
      </g>
     </g>
    </g>
    <g id="xtick_10">
     <g id="line2d_19">
      <g>
       <use style="stroke:#000000;stroke-width:0.5;" x="47.955705" xlink:href="#m9a8d4dafce" y="86.309448"/>
      </g>
     </g>
     <g id="line2d_20">
      <g>
       <use style="stroke:#000000;stroke-width:0.5;" x="47.955705" xlink:href="#mf07bf05d44" y="3.00024"/>
      </g>
     </g>
    </g>
    <g id="xtick_11">
     <g id="line2d_21">
      <g>
       <use style="stroke:#000000;stroke-width:0.5;" x="59.717555" xlink:href="#m9a8d4dafce" y="86.309448"/>
      </g>
     </g>
     <g id="line2d_22">
      <g>
       <use style="stroke:#000000;stroke-width:0.5;" x="59.717555" xlink:href="#mf07bf05d44" y="3.00024"/>
      </g>
     </g>
    </g>
    <g id="xtick_12">
     <g id="line2d_23">
      <g>
       <use style="stroke:#000000;stroke-width:0.5;" x="71.479405" xlink:href="#m9a8d4dafce" y="86.309448"/>
      </g>
     </g>
     <g id="line2d_24">
      <g>
       <use style="stroke:#000000;stroke-width:0.5;" x="71.479405" xlink:href="#mf07bf05d44" y="3.00024"/>
      </g>
     </g>
    </g>
    <g id="xtick_13">
     <g id="line2d_25">
      <g>
       <use style="stroke:#000000;stroke-width:0.5;" x="83.241256" xlink:href="#m9a8d4dafce" y="86.309448"/>
      </g>
     </g>
     <g id="line2d_26">
      <g>
       <use style="stroke:#000000;stroke-width:0.5;" x="83.241256" xlink:href="#mf07bf05d44" y="3.00024"/>
      </g>
     </g>
    </g>
    <g id="xtick_14">
     <g id="line2d_27">
      <g>
       <use style="stroke:#000000;stroke-width:0.5;" x="106.764956" xlink:href="#m9a8d4dafce" y="86.309448"/>
      </g>
     </g>
     <g id="line2d_28">
      <g>
       <use style="stroke:#000000;stroke-width:0.5;" x="106.764956" xlink:href="#mf07bf05d44" y="3.00024"/>
      </g>
     </g>
    </g>
    <g id="xtick_15">
     <g id="line2d_29">
      <g>
       <use style="stroke:#000000;stroke-width:0.5;" x="118.526807" xlink:href="#m9a8d4dafce" y="86.309448"/>
      </g>
     </g>
     <g id="line2d_30">
      <g>
       <use style="stroke:#000000;stroke-width:0.5;" x="118.526807" xlink:href="#mf07bf05d44" y="3.00024"/>
      </g>
     </g>
    </g>
    <g id="xtick_16">
     <g id="line2d_31">
      <g>
       <use style="stroke:#000000;stroke-width:0.5;" x="130.288657" xlink:href="#m9a8d4dafce" y="86.309448"/>
      </g>
     </g>
     <g id="line2d_32">
      <g>
       <use style="stroke:#000000;stroke-width:0.5;" x="130.288657" xlink:href="#mf07bf05d44" y="3.00024"/>
      </g>
     </g>
    </g>
    <g id="xtick_17">
     <g id="line2d_33">
      <g>
       <use style="stroke:#000000;stroke-width:0.5;" x="142.050507" xlink:href="#m9a8d4dafce" y="86.309448"/>
      </g>
     </g>
     <g id="line2d_34">
      <g>
       <use style="stroke:#000000;stroke-width:0.5;" x="142.050507" xlink:href="#mf07bf05d44" y="3.00024"/>
      </g>
     </g>
    </g>
    <g id="xtick_18">
     <g id="line2d_35">
      <g>
       <use style="stroke:#000000;stroke-width:0.5;" x="165.574208" xlink:href="#m9a8d4dafce" y="86.309448"/>
      </g>
     </g>
     <g id="line2d_36">
      <g>
       <use style="stroke:#000000;stroke-width:0.5;" x="165.574208" xlink:href="#mf07bf05d44" y="3.00024"/>
      </g>
     </g>
    </g>
    <g id="xtick_19">
     <g id="line2d_37">
      <g>
       <use style="stroke:#000000;stroke-width:0.5;" x="177.336058" xlink:href="#m9a8d4dafce" y="86.309448"/>
      </g>
     </g>
     <g id="line2d_38">
      <g>
       <use style="stroke:#000000;stroke-width:0.5;" x="177.336058" xlink:href="#mf07bf05d44" y="3.00024"/>
      </g>
     </g>
    </g>
    <g id="xtick_20">
     <g id="line2d_39">
      <g>
       <use style="stroke:#000000;stroke-width:0.5;" x="189.097908" xlink:href="#m9a8d4dafce" y="86.309448"/>
      </g>
     </g>
     <g id="line2d_40">
      <g>
       <use style="stroke:#000000;stroke-width:0.5;" x="189.097908" xlink:href="#mf07bf05d44" y="3.00024"/>
      </g>
     </g>
    </g>
    <g id="xtick_21">
     <g id="line2d_41">
      <g>
       <use style="stroke:#000000;stroke-width:0.5;" x="200.859759" xlink:href="#m9a8d4dafce" y="86.309448"/>
      </g>
     </g>
     <g id="line2d_42">
      <g>
       <use style="stroke:#000000;stroke-width:0.5;" x="200.859759" xlink:href="#mf07bf05d44" y="3.00024"/>
      </g>
     </g>
    </g>
    <g id="xtick_22">
     <g id="line2d_43">
      <g>
       <use style="stroke:#000000;stroke-width:0.5;" x="224.383459" xlink:href="#m9a8d4dafce" y="86.309448"/>
      </g>
     </g>
     <g id="line2d_44">
      <g>
       <use style="stroke:#000000;stroke-width:0.5;" x="224.383459" xlink:href="#mf07bf05d44" y="3.00024"/>
      </g>
     </g>
    </g>
    <g id="xtick_23">
     <g id="line2d_45">
      <g>
       <use style="stroke:#000000;stroke-width:0.5;" x="236.14531" xlink:href="#m9a8d4dafce" y="86.309448"/>
      </g>
     </g>
     <g id="line2d_46">
      <g>
       <use style="stroke:#000000;stroke-width:0.5;" x="236.14531" xlink:href="#mf07bf05d44" y="3.00024"/>
      </g>
     </g>
    </g>
    <g id="xtick_24">
     <g id="line2d_47">
      <g>
       <use style="stroke:#000000;stroke-width:0.5;" x="247.90716" xlink:href="#m9a8d4dafce" y="86.309448"/>
      </g>
     </g>
     <g id="line2d_48">
      <g>
       <use style="stroke:#000000;stroke-width:0.5;" x="247.90716" xlink:href="#mf07bf05d44" y="3.00024"/>
      </g>
     </g>
    </g>
    <g id="xtick_25">
     <g id="line2d_49">
      <g>
       <use style="stroke:#000000;stroke-width:0.5;" x="259.66901" xlink:href="#m9a8d4dafce" y="86.309448"/>
      </g>
     </g>
     <g id="line2d_50">
      <g>
       <use style="stroke:#000000;stroke-width:0.5;" x="259.66901" xlink:href="#mf07bf05d44" y="3.00024"/>
      </g>
     </g>
    </g>
    <g id="xtick_26">
     <g id="line2d_51">
      <g>
       <use style="stroke:#000000;stroke-width:0.5;" x="283.192711" xlink:href="#m9a8d4dafce" y="86.309448"/>
      </g>
     </g>
     <g id="line2d_52">
      <g>
       <use style="stroke:#000000;stroke-width:0.5;" x="283.192711" xlink:href="#mf07bf05d44" y="3.00024"/>
      </g>
     </g>
    </g>
    <g id="xtick_27">
     <g id="line2d_53">
      <g>
       <use style="stroke:#000000;stroke-width:0.5;" x="294.954561" xlink:href="#m9a8d4dafce" y="86.309448"/>
      </g>
     </g>
     <g id="line2d_54">
      <g>
       <use style="stroke:#000000;stroke-width:0.5;" x="294.954561" xlink:href="#mf07bf05d44" y="3.00024"/>
      </g>
     </g>
    </g>
    <g id="xtick_28">
     <g id="line2d_55">
      <g>
       <use style="stroke:#000000;stroke-width:0.5;" x="306.716411" xlink:href="#m9a8d4dafce" y="86.309448"/>
      </g>
     </g>
     <g id="line2d_56">
      <g>
       <use style="stroke:#000000;stroke-width:0.5;" x="306.716411" xlink:href="#mf07bf05d44" y="3.00024"/>
      </g>
     </g>
    </g>
    <g id="xtick_29">
     <g id="line2d_57">
      <g>
       <use style="stroke:#000000;stroke-width:0.5;" x="318.478262" xlink:href="#m9a8d4dafce" y="86.309448"/>
      </g>
     </g>
     <g id="line2d_58">
      <g>
       <use style="stroke:#000000;stroke-width:0.5;" x="318.478262" xlink:href="#mf07bf05d44" y="3.00024"/>
      </g>
     </g>
    </g>
    <g id="xtick_30">
     <g id="line2d_59">
      <g>
       <use style="stroke:#000000;stroke-width:0.5;" x="342.001962" xlink:href="#m9a8d4dafce" y="86.309448"/>
      </g>
     </g>
     <g id="line2d_60">
      <g>
       <use style="stroke:#000000;stroke-width:0.5;" x="342.001962" xlink:href="#mf07bf05d44" y="3.00024"/>
      </g>
     </g>
    </g>
    <g id="xtick_31">
     <g id="line2d_61">
      <g>
       <use style="stroke:#000000;stroke-width:0.5;" x="353.763813" xlink:href="#m9a8d4dafce" y="86.309448"/>
      </g>
     </g>
     <g id="line2d_62">
      <g>
       <use style="stroke:#000000;stroke-width:0.5;" x="353.763813" xlink:href="#mf07bf05d44" y="3.00024"/>
      </g>
     </g>
    </g>
    <g id="xtick_32">
     <g id="line2d_63">
      <g>
       <use style="stroke:#000000;stroke-width:0.5;" x="365.525663" xlink:href="#m9a8d4dafce" y="86.309448"/>
      </g>
     </g>
     <g id="line2d_64">
      <g>
       <use style="stroke:#000000;stroke-width:0.5;" x="365.525663" xlink:href="#mf07bf05d44" y="3.00024"/>
      </g>
     </g>
    </g>
    <g id="xtick_33">
     <g id="line2d_65">
      <g>
       <use style="stroke:#000000;stroke-width:0.5;" x="377.287513" xlink:href="#m9a8d4dafce" y="86.309448"/>
      </g>
     </g>
     <g id="line2d_66">
      <g>
       <use style="stroke:#000000;stroke-width:0.5;" x="377.287513" xlink:href="#mf07bf05d44" y="3.00024"/>
      </g>
     </g>
    </g>
    <g id="xtick_34">
     <g id="line2d_67">
      <g>
       <use style="stroke:#000000;stroke-width:0.5;" x="400.811214" xlink:href="#m9a8d4dafce" y="86.309448"/>
      </g>
     </g>
     <g id="line2d_68">
      <g>
       <use style="stroke:#000000;stroke-width:0.5;" x="400.811214" xlink:href="#mf07bf05d44" y="3.00024"/>
      </g>
     </g>
    </g>
    <g id="xtick_35">
     <g id="line2d_69">
      <g>
       <use style="stroke:#000000;stroke-width:0.5;" x="412.573064" xlink:href="#m9a8d4dafce" y="86.309448"/>
      </g>
     </g>
     <g id="line2d_70">
      <g>
       <use style="stroke:#000000;stroke-width:0.5;" x="412.573064" xlink:href="#mf07bf05d44" y="3.00024"/>
      </g>
     </g>
    </g>
    <g id="xtick_36">
     <g id="line2d_71">
      <g>
       <use style="stroke:#000000;stroke-width:0.5;" x="424.334914" xlink:href="#m9a8d4dafce" y="86.309448"/>
      </g>
     </g>
     <g id="line2d_72">
      <g>
       <use style="stroke:#000000;stroke-width:0.5;" x="424.334914" xlink:href="#mf07bf05d44" y="3.00024"/>
      </g>
     </g>
    </g>
    <g id="xtick_37">
     <g id="line2d_73">
      <g>
       <use style="stroke:#000000;stroke-width:0.5;" x="436.096765" xlink:href="#m9a8d4dafce" y="86.309448"/>
      </g>
     </g>
     <g id="line2d_74">
      <g>
       <use style="stroke:#000000;stroke-width:0.5;" x="436.096765" xlink:href="#mf07bf05d44" y="3.00024"/>
      </g>
     </g>
    </g>
    <g id="xtick_38">
     <g id="line2d_75">
      <g>
       <use style="stroke:#000000;stroke-width:0.5;" x="459.620465" xlink:href="#m9a8d4dafce" y="86.309448"/>
      </g>
     </g>
     <g id="line2d_76">
      <g>
       <use style="stroke:#000000;stroke-width:0.5;" x="459.620465" xlink:href="#mf07bf05d44" y="3.00024"/>
      </g>
     </g>
    </g>
    <g id="xtick_39">
     <g id="line2d_77">
      <g>
       <use style="stroke:#000000;stroke-width:0.5;" x="471.382315" xlink:href="#m9a8d4dafce" y="86.309448"/>
      </g>
     </g>
     <g id="line2d_78">
      <g>
       <use style="stroke:#000000;stroke-width:0.5;" x="471.382315" xlink:href="#mf07bf05d44" y="3.00024"/>
      </g>
     </g>
    </g>
    <g id="xtick_40">
     <g id="line2d_79">
      <g>
       <use style="stroke:#000000;stroke-width:0.5;" x="483.144166" xlink:href="#m9a8d4dafce" y="86.309448"/>
      </g>
     </g>
     <g id="line2d_80">
      <g>
       <use style="stroke:#000000;stroke-width:0.5;" x="483.144166" xlink:href="#mf07bf05d44" y="3.00024"/>
      </g>
     </g>
    </g>
    <g id="xtick_41">
     <g id="line2d_81">
      <g>
       <use style="stroke:#000000;stroke-width:0.5;" x="494.906016" xlink:href="#m9a8d4dafce" y="86.309448"/>
      </g>
     </g>
     <g id="line2d_82">
      <g>
       <use style="stroke:#000000;stroke-width:0.5;" x="494.906016" xlink:href="#mf07bf05d44" y="3.00024"/>
      </g>
     </g>
    </g>
   </g>
   <g id="matplotlib.axis_2">
    <g id="ytick_1">
     <g id="line2d_83">
      <defs>
       <path d="M 0 0 
L 3 0 
" id="m5697c98ad9" style="stroke:#000000;stroke-width:0.5;"/>
      </defs>
      <g>
       <use style="stroke:#000000;stroke-width:0.5;" x="14.06024" xlink:href="#m5697c98ad9" y="82.522665"/>
      </g>
     </g>
     <g id="line2d_84">
      <defs>
       <path d="M 0 0 
L -3 0 
" id="mf416149a75" style="stroke:#000000;stroke-width:0.5;"/>
      </defs>
      <g>
       <use style="stroke:#000000;stroke-width:0.5;" x="500.99976" xlink:href="#mf416149a75" y="82.522665"/>
      </g>
     </g>
     <g id="text_9">
      <!-- $\mathdefault{-1}$ -->
      <g transform="translate(3.00024 85.645243)scale(0.09 -0.09)">
       <defs>
        <path d="M 1.125 18.5 
L 1.125 24.703125 
L 27.59375 24.703125 
L 27.59375 18.5 
z
" id="Cmr10-45"/>
       </defs>
       <use transform="translate(0 0.390625)" xlink:href="#Cmr10-45"/>
       <use transform="translate(33.300781 0.390625)" xlink:href="#Cmr10-49"/>
      </g>
     </g>
    </g>
    <g id="ytick_2">
     <g id="line2d_85">
      <g>
       <use style="stroke:#000000;stroke-width:0.5;" x="14.06024" xlink:href="#m5697c98ad9" y="44.654844"/>
      </g>
     </g>
     <g id="line2d_86">
      <g>
       <use style="stroke:#000000;stroke-width:0.5;" x="500.99976" xlink:href="#mf416149a75" y="44.654844"/>
      </g>
     </g>
     <g id="text_10">
      <!-- $\mathdefault{0}$ -->
      <g transform="translate(6.06024 47.777422)scale(0.09 -0.09)">
       <use transform="translate(0 0.390625)" xlink:href="#Cmr10-48"/>
      </g>
     </g>
    </g>
    <g id="ytick_3">
     <g id="line2d_87">
      <g>
       <use style="stroke:#000000;stroke-width:0.5;" x="14.06024" xlink:href="#m5697c98ad9" y="6.787022"/>
      </g>
     </g>
     <g id="line2d_88">
      <g>
       <use style="stroke:#000000;stroke-width:0.5;" x="500.99976" xlink:href="#mf416149a75" y="6.787022"/>
      </g>
     </g>
     <g id="text_11">
      <!-- $\mathdefault{1}$ -->
      <g transform="translate(6.06024 9.9096)scale(0.09 -0.09)">
       <use transform="translate(0 0.390625)" xlink:href="#Cmr10-49"/>
      </g>
     </g>
    </g>
    <g id="ytick_4">
     <g id="line2d_89">
      <defs>
       <path d="M 0 0 
L 1.5 0 
" id="mead58ad522" style="stroke:#000000;stroke-width:0.5;"/>
      </defs>
      <g>
       <use style="stroke:#000000;stroke-width:0.5;" x="14.06024" xlink:href="#mead58ad522" y="74.949101"/>
      </g>
     </g>
     <g id="line2d_90">
      <defs>
       <path d="M 0 0 
L -1.5 0 
" id="m76f6d61c22" style="stroke:#000000;stroke-width:0.5;"/>
      </defs>
      <g>
       <use style="stroke:#000000;stroke-width:0.5;" x="500.99976" xlink:href="#m76f6d61c22" y="74.949101"/>
      </g>
     </g>
    </g>
    <g id="ytick_5">
     <g id="line2d_91">
      <g>
       <use style="stroke:#000000;stroke-width:0.5;" x="14.06024" xlink:href="#mead58ad522" y="67.375537"/>
      </g>
     </g>
     <g id="line2d_92">
      <g>
       <use style="stroke:#000000;stroke-width:0.5;" x="500.99976" xlink:href="#m76f6d61c22" y="67.375537"/>
      </g>
     </g>
    </g>
    <g id="ytick_6">
     <g id="line2d_93">
      <g>
       <use style="stroke:#000000;stroke-width:0.5;" x="14.06024" xlink:href="#mead58ad522" y="59.801972"/>
      </g>
     </g>
     <g id="line2d_94">
      <g>
       <use style="stroke:#000000;stroke-width:0.5;" x="500.99976" xlink:href="#m76f6d61c22" y="59.801972"/>
      </g>
     </g>
    </g>
    <g id="ytick_7">
     <g id="line2d_95">
      <g>
       <use style="stroke:#000000;stroke-width:0.5;" x="14.06024" xlink:href="#mead58ad522" y="52.228408"/>
      </g>
     </g>
     <g id="line2d_96">
      <g>
       <use style="stroke:#000000;stroke-width:0.5;" x="500.99976" xlink:href="#m76f6d61c22" y="52.228408"/>
      </g>
     </g>
    </g>
    <g id="ytick_8">
     <g id="line2d_97">
      <g>
       <use style="stroke:#000000;stroke-width:0.5;" x="14.06024" xlink:href="#mead58ad522" y="37.081279"/>
      </g>
     </g>
     <g id="line2d_98">
      <g>
       <use style="stroke:#000000;stroke-width:0.5;" x="500.99976" xlink:href="#m76f6d61c22" y="37.081279"/>
      </g>
     </g>
    </g>
    <g id="ytick_9">
     <g id="line2d_99">
      <g>
       <use style="stroke:#000000;stroke-width:0.5;" x="14.06024" xlink:href="#mead58ad522" y="29.507715"/>
      </g>
     </g>
     <g id="line2d_100">
      <g>
       <use style="stroke:#000000;stroke-width:0.5;" x="500.99976" xlink:href="#m76f6d61c22" y="29.507715"/>
      </g>
     </g>
    </g>
    <g id="ytick_10">
     <g id="line2d_101">
      <g>
       <use style="stroke:#000000;stroke-width:0.5;" x="14.06024" xlink:href="#mead58ad522" y="21.934151"/>
      </g>
     </g>
     <g id="line2d_102">
      <g>
       <use style="stroke:#000000;stroke-width:0.5;" x="500.99976" xlink:href="#m76f6d61c22" y="21.934151"/>
      </g>
     </g>
    </g>
    <g id="ytick_11">
     <g id="line2d_103">
      <g>
       <use style="stroke:#000000;stroke-width:0.5;" x="14.06024" xlink:href="#mead58ad522" y="14.360586"/>
      </g>
     </g>
     <g id="line2d_104">
      <g>
       <use style="stroke:#000000;stroke-width:0.5;" x="500.99976" xlink:href="#m76f6d61c22" y="14.360586"/>
      </g>
     </g>
    </g>
   </g>
   <g id="line2d_105">
    <path clip-path="url(#p880c280cd6)" d="M 36.193855 44.654844 
L 43.584043 32.953043 
L 47.279137 27.463213 
L 50.974232 22.396697 
L 53.930307 18.732536 
L 56.886382 15.477186 
L 59.103439 13.335104 
L 61.320495 11.471019 
L 63.537552 9.901475 
L 65.754609 8.640405 
L 67.971665 7.699002 
L 70.188722 7.085621 
L 72.405778 6.805708 
L 73.883816 6.805708 
L 75.361854 6.955081 
L 77.57891 7.457765 
L 79.795967 8.290614 
L 82.013023 9.446234 
L 84.23008 10.914368 
L 86.447136 12.681985 
L 88.664193 14.733395 
L 90.881249 17.05039 
L 93.837325 20.516986 
L 96.7934 24.36425 
L 100.488494 29.615718 
L 104.922608 36.394234 
L 113.790834 50.578676 
L 118.963966 58.594919 
L 122.65906 63.931133 
L 125.615135 67.864299 
L 128.571211 71.431437 
L 131.527286 74.576293 
L 133.744343 76.627703 
L 135.961399 78.39532 
L 138.178456 79.863454 
L 140.395512 81.019074 
L 142.612569 81.851922 
L 144.829625 82.354607 
L 147.046682 82.522665 
L 148.52472 82.447942 
L 150.741776 82.05645 
L 152.958833 81.332978 
L 155.175889 80.283949 
L 157.392946 78.918673 
L 159.610002 77.249269 
L 161.827059 75.290555 
L 164.044116 73.059916 
L 167.000191 69.697283 
L 169.956266 65.939717 
L 172.912342 61.846475 
L 176.607436 56.356644 
L 181.780568 48.218521 
L 191.387813 32.953043 
L 195.082907 27.463213 
L 198.778001 22.396697 
L 201.734077 18.732536 
L 204.690152 15.477186 
L 206.907209 13.335104 
L 209.124265 11.471019 
L 211.341322 9.901475 
L 213.558378 8.640405 
L 215.775435 7.699002 
L 217.992492 7.085621 
L 220.209548 6.805708 
L 221.687586 6.805708 
L 223.165623 6.955081 
L 225.38268 7.457765 
L 227.599737 8.290614 
L 229.816793 9.446234 
L 232.03385 10.914368 
L 234.250906 12.681985 
L 236.467963 14.733395 
L 238.685019 17.05039 
L 241.641095 20.516986 
L 244.59717 24.36425 
L 248.292264 29.615718 
L 252.726377 36.394234 
L 261.594604 50.578676 
L 266.767736 58.594919 
L 270.46283 63.931133 
L 273.418905 67.864299 
L 276.374981 71.431437 
L 279.331056 74.576293 
L 281.548113 76.627703 
L 283.765169 78.39532 
L 285.982226 79.863454 
L 288.199282 81.019074 
L 290.416339 81.851922 
L 292.633395 82.354607 
L 294.850452 82.522665 
L 296.32849 82.447942 
L 298.545546 82.05645 
L 300.762603 81.332978 
L 302.979659 80.283949 
L 305.196716 78.918673 
L 307.413772 77.249269 
L 309.630829 75.290555 
L 311.847885 73.059916 
L 314.803961 69.697283 
L 317.760036 65.939717 
L 320.716112 61.846475 
L 324.411206 56.356644 
L 329.584338 48.218521 
L 339.191583 32.953043 
L 342.886677 27.463213 
L 346.581771 22.396697 
L 349.537847 18.732536 
L 352.493922 15.477186 
L 354.710979 13.335104 
L 356.928035 11.471019 
L 359.145092 9.901475 
L 361.362148 8.640405 
L 363.579205 7.699002 
L 365.796261 7.085621 
L 368.013318 6.805708 
L 369.491356 6.805708 
L 370.969393 6.955081 
L 373.18645 7.457765 
L 375.403507 8.290614 
L 377.620563 9.446234 
L 379.83762 10.914368 
L 382.054676 12.681985 
L 384.271733 14.733395 
L 386.488789 17.05039 
L 389.444865 20.516986 
L 392.40094 24.36425 
L 396.096034 29.615718 
L 400.530147 36.394234 
L 409.398374 50.578676 
L 414.571506 58.594919 
L 418.2666 63.931133 
L 421.222675 67.864299 
L 424.178751 71.431437 
L 427.134826 74.576293 
L 429.351883 76.627703 
L 431.568939 78.39532 
L 433.785996 79.863454 
L 436.003052 81.019074 
L 438.220109 81.851922 
L 440.437165 82.354607 
L 442.654222 82.522665 
L 444.13226 82.447942 
L 446.349316 82.05645 
L 448.566373 81.332978 
L 450.783429 80.283949 
L 453.000486 78.918673 
L 455.217542 77.249269 
L 457.434599 75.290555 
L 459.651655 73.059916 
L 462.607731 69.697283 
L 465.563806 65.939717 
L 468.519882 61.846475 
L 472.214976 56.356644 
L 477.388108 48.218521 
L 478.866145 45.844301 
L 478.866145 45.844301 
" style="fill:none;stroke:#000000;stroke-linecap:square;stroke-width:1.5;"/>
   </g>
   <g id="line2d_106">
    <path clip-path="url(#p880c280cd6)" d="M 36.193855 6.787022 
L 37.671892 6.861746 
L 39.888949 7.253238 
L 42.106005 7.976709 
L 44.323062 9.025739 
L 46.540118 10.391014 
L 48.757175 12.060418 
L 50.974232 14.019133 
L 53.191288 16.249772 
L 56.147363 19.612404 
L 59.103439 23.369971 
L 62.059514 27.463213 
L 65.754609 32.953043 
L 70.92774 41.091167 
L 80.534986 56.356644 
L 84.23008 61.846475 
L 87.925174 66.912991 
L 90.881249 70.577151 
L 93.837325 73.832502 
L 96.054381 75.974583 
L 98.271438 77.838669 
L 100.488494 79.408212 
L 102.705551 80.669282 
L 104.922608 81.610686 
L 107.139664 82.224066 
L 109.356721 82.50398 
L 110.834758 82.50398 
L 112.312796 82.354607 
L 114.529853 81.851922 
L 116.746909 81.019074 
L 118.963966 79.863454 
L 121.181022 78.39532 
L 123.398079 76.627703 
L 125.615135 74.576293 
L 127.832192 72.259298 
L 130.788267 68.792702 
L 133.744343 64.945437 
L 137.439437 59.693969 
L 141.87355 52.915453 
L 150.741776 38.731011 
L 155.914908 30.714769 
L 159.610002 25.378554 
L 162.566078 21.445389 
L 165.522153 17.87825 
L 168.478229 14.733395 
L 170.695285 12.681985 
L 172.912342 10.914368 
L 175.129398 9.446234 
L 177.346455 8.290614 
L 179.563511 7.457765 
L 181.780568 6.955081 
L 183.997624 6.787022 
L 185.475662 6.861746 
L 187.692719 7.253238 
L 189.909775 7.976709 
L 192.126832 9.025739 
L 194.343888 10.391014 
L 196.560945 12.060418 
L 198.778001 14.019133 
L 200.995058 16.249772 
L 203.951133 19.612404 
L 206.907209 23.369971 
L 209.863284 27.463213 
L 213.558378 32.953043 
L 218.73151 41.091167 
L 228.338755 56.356644 
L 232.03385 61.846475 
L 235.728944 66.912991 
L 238.685019 70.577151 
L 241.641095 73.832502 
L 243.858151 75.974583 
L 246.075208 77.838669 
L 248.292264 79.408212 
L 250.509321 80.669282 
L 252.726377 81.610686 
L 254.943434 82.224066 
L 257.160491 82.50398 
L 258.638528 82.50398 
L 260.116566 82.354607 
L 262.333623 81.851922 
L 264.550679 81.019074 
L 266.767736 79.863454 
L 268.984792 78.39532 
L 271.201849 76.627703 
L 273.418905 74.576293 
L 275.635962 72.259298 
L 278.592037 68.792702 
L 281.548113 64.945437 
L 285.243207 59.693969 
L 289.67732 52.915453 
L 298.545546 38.731011 
L 303.718678 30.714769 
L 307.413772 25.378554 
L 310.369848 21.445389 
L 313.325923 17.87825 
L 316.281999 14.733395 
L 318.499055 12.681985 
L 320.716112 10.914368 
L 322.933168 9.446234 
L 325.150225 8.290614 
L 327.367281 7.457765 
L 329.584338 6.955081 
L 331.801394 6.787022 
L 333.279432 6.861746 
L 335.496489 7.253238 
L 337.713545 7.976709 
L 339.930602 9.025739 
L 342.147658 10.391014 
L 344.364715 12.060418 
L 346.581771 14.019133 
L 348.798828 16.249772 
L 351.754903 19.612404 
L 354.710979 23.369971 
L 357.667054 27.463213 
L 361.362148 32.953043 
L 366.53528 41.091167 
L 376.142525 56.356644 
L 379.83762 61.846475 
L 383.532714 66.912991 
L 386.488789 70.577151 
L 389.444865 73.832502 
L 391.661921 75.974583 
L 393.878978 77.838669 
L 396.096034 79.408212 
L 398.313091 80.669282 
L 400.530147 81.610686 
L 402.747204 82.224066 
L 404.96426 82.50398 
L 406.442298 82.50398 
L 407.920336 82.354607 
L 410.137392 81.851922 
L 412.354449 81.019074 
L 414.571506 79.863454 
L 416.788562 78.39532 
L 419.005619 76.627703 
L 421.222675 74.576293 
L 423.439732 72.259298 
L 426.395807 68.792702 
L 429.351883 64.945437 
L 433.046977 59.693969 
L 437.48109 52.915453 
L 446.349316 38.731011 
L 451.522448 30.714769 
L 455.217542 25.378554 
L 458.173618 21.445389 
L 461.129693 17.87825 
L 464.085768 14.733395 
L 466.302825 12.681985 
L 468.519882 10.914368 
L 470.736938 9.446234 
L 472.953995 8.290614 
L 475.171051 7.457765 
L 477.388108 6.955081 
L 478.866145 6.805708 
L 478.866145 6.805708 
" style="fill:none;stroke:#dc143c;stroke-dasharray:5.55,2.4;stroke-dashoffset:0;stroke-width:1.5;"/>
   </g>
   <g id="patch_3">
    <path d="M 14.06024 86.309448 
L 14.06024 3.00024 
" style="fill:none;stroke:#000000;stroke-linecap:square;stroke-linejoin:miter;stroke-width:0.5;"/>
   </g>
   <g id="patch_4">
    <path d="M 500.99976 86.309448 
L 500.99976 3.00024 
" style="fill:none;stroke:#000000;stroke-linecap:square;stroke-linejoin:miter;stroke-width:0.5;"/>
   </g>
   <g id="patch_5">
    <path d="M 14.06024 86.309448 
L 500.99976 86.309448 
" style="fill:none;stroke:#000000;stroke-linecap:square;stroke-linejoin:miter;stroke-width:0.5;"/>
   </g>
   <g id="patch_6">
    <path d="M 14.06024 3.00024 
L 500.99976 3.00024 
" style="fill:none;stroke:#000000;stroke-linecap:square;stroke-linejoin:miter;stroke-width:0.5;"/>
   </g>
  </g>
 </g>
 <defs>
  <clipPath id="p880c280cd6">
   <rect height="83.309207" width="486.93952" x="14.06024" y="3.00024"/>
  </clipPath>
 </defs>
</svg>
