<?xml version="1.0" encoding="utf-8" standalone="no"?>
<!DOCTYPE svg PUBLIC "-//W3C//DTD SVG 1.1//EN"
  "http://www.w3.org/Graphics/SVG/1.1/DTD/svg11.dtd">
<svg height="144pt" version="1.1" viewBox="0 0 648 144" width="648pt" xmlns="http://www.w3.org/2000/svg" xmlns:xlink="http://www.w3.org/1999/xlink">
 <metadata>
  <rdf:RDF xmlns:cc="http://creativecommons.org/ns#" xmlns:dc="http://purl.org/dc/elements/1.1/" xmlns:rdf="http://www.w3.org/1999/02/22-rdf-syntax-ns#">
   <cc:Work>
    <dc:type rdf:resource="http://purl.org/dc/dcmitype/StillImage"/>
    <dc:date>2021-06-17T17:21:48.344124</dc:date>
    <dc:format>image/svg+xml</dc:format>
    <dc:creator>
     <cc:Agent>
      <dc:title>Matplotlib v3.4.1, https://matplotlib.org/</dc:title>
     </cc:Agent>
    </dc:creator>
   </cc:Work>
  </rdf:RDF>
 </metadata>
 <defs>
  <style type="text/css">*{stroke-linecap:butt;stroke-linejoin:round;}</style>
 </defs>
 <g id="figure_1">
  <g id="patch_1">
   <path d="M 0 144 
L 648 144 
L 648 0 
L 0 0 
z
" style="fill:#ffffff;"/>
  </g>
  <g id="axes_1">
   <g id="patch_2">
    <path d="M 25.495865 126.600385 
L 644.99976 126.600385 
L 644.99976 3.00024 
L 25.495865 3.00024 
z
" style="fill:#ffffff;"/>
   </g>
   <g id="matplotlib.axis_1">
    <g id="xtick_1">
     <g id="line2d_1">
      <defs>
       <path d="M 0 0 
L 0 -3 
" id="ma10d083646" style="stroke:#000000;stroke-width:0.5;"/>
      </defs>
      <g>
       <use style="stroke:#000000;stroke-width:0.5;" x="53.655133" xlink:href="#ma10d083646" y="126.600385"/>
      </g>
     </g>
     <g id="line2d_2">
      <defs>
       <path d="M 0 0 
L 0 3 
" id="med4d5e4cfc" style="stroke:#000000;stroke-width:0.5;"/>
      </defs>
      <g>
       <use style="stroke:#000000;stroke-width:0.5;" x="53.655133" xlink:href="#med4d5e4cfc" y="3.00024"/>
      </g>
     </g>
     <g id="text_1">
      <!-- 0.0 -->
      <g transform="translate(46.155133 138.432885)scale(0.12 -0.12)">
       <defs>
        <path d="M 231 2094 
Q 231 2819 450 3342 
Q 669 3866 1031 4122 
Q 1313 4325 1613 4325 
Q 2100 4325 2488 3828 
Q 2972 3213 2972 2159 
Q 2972 1422 2759 906 
Q 2547 391 2217 158 
Q 1888 -75 1581 -75 
Q 975 -75 572 641 
Q 231 1244 231 2094 
z
M 844 2016 
Q 844 1141 1059 588 
Q 1238 122 1591 122 
Q 1759 122 1940 273 
Q 2122 425 2216 781 
Q 2359 1319 2359 2297 
Q 2359 3022 2209 3506 
Q 2097 3866 1919 4016 
Q 1791 4119 1609 4119 
Q 1397 4119 1231 3928 
Q 1006 3669 925 3112 
Q 844 2556 844 2016 
z
" id="TimesNewRomanPSMT-30" transform="scale(0.015625)"/>
        <path d="M 800 606 
Q 947 606 1047 504 
Q 1147 403 1147 259 
Q 1147 116 1045 14 
Q 944 -88 800 -88 
Q 656 -88 554 14 
Q 453 116 453 259 
Q 453 406 554 506 
Q 656 606 800 606 
z
" id="TimesNewRomanPSMT-2e" transform="scale(0.015625)"/>
       </defs>
       <use xlink:href="#TimesNewRomanPSMT-30"/>
       <use x="50" xlink:href="#TimesNewRomanPSMT-2e"/>
       <use x="75" xlink:href="#TimesNewRomanPSMT-30"/>
      </g>
     </g>
    </g>
    <g id="xtick_2">
     <g id="line2d_3">
      <g>
       <use style="stroke:#000000;stroke-width:0.5;" x="128.47461" xlink:href="#ma10d083646" y="126.600385"/>
      </g>
     </g>
     <g id="line2d_4">
      <g>
       <use style="stroke:#000000;stroke-width:0.5;" x="128.47461" xlink:href="#med4d5e4cfc" y="3.00024"/>
      </g>
     </g>
     <g id="text_2">
      <!-- 2.5 -->
      <g transform="translate(120.97461 138.432885)scale(0.12 -0.12)">
       <defs>
        <path d="M 2934 816 
L 2638 0 
L 138 0 
L 138 116 
Q 1241 1122 1691 1759 
Q 2141 2397 2141 2925 
Q 2141 3328 1894 3587 
Q 1647 3847 1303 3847 
Q 991 3847 742 3664 
Q 494 3481 375 3128 
L 259 3128 
Q 338 3706 661 4015 
Q 984 4325 1469 4325 
Q 1984 4325 2329 3994 
Q 2675 3663 2675 3213 
Q 2675 2891 2525 2569 
Q 2294 2063 1775 1497 
Q 997 647 803 472 
L 1909 472 
Q 2247 472 2383 497 
Q 2519 522 2628 598 
Q 2738 675 2819 816 
L 2934 816 
z
" id="TimesNewRomanPSMT-32" transform="scale(0.015625)"/>
        <path d="M 2778 4238 
L 2534 3706 
L 1259 3706 
L 981 3138 
Q 1809 3016 2294 2522 
Q 2709 2097 2709 1522 
Q 2709 1188 2573 903 
Q 2438 619 2231 419 
Q 2025 219 1772 97 
Q 1413 -75 1034 -75 
Q 653 -75 479 54 
Q 306 184 306 341 
Q 306 428 378 495 
Q 450 563 559 563 
Q 641 563 702 538 
Q 763 513 909 409 
Q 1144 247 1384 247 
Q 1750 247 2026 523 
Q 2303 800 2303 1197 
Q 2303 1581 2056 1914 
Q 1809 2247 1375 2428 
Q 1034 2569 447 2591 
L 1259 4238 
L 2778 4238 
z
" id="TimesNewRomanPSMT-35" transform="scale(0.015625)"/>
       </defs>
       <use xlink:href="#TimesNewRomanPSMT-32"/>
       <use x="50" xlink:href="#TimesNewRomanPSMT-2e"/>
       <use x="75" xlink:href="#TimesNewRomanPSMT-35"/>
      </g>
     </g>
    </g>
    <g id="xtick_3">
     <g id="line2d_5">
      <g>
       <use style="stroke:#000000;stroke-width:0.5;" x="203.294088" xlink:href="#ma10d083646" y="126.600385"/>
      </g>
     </g>
     <g id="line2d_6">
      <g>
       <use style="stroke:#000000;stroke-width:0.5;" x="203.294088" xlink:href="#med4d5e4cfc" y="3.00024"/>
      </g>
     </g>
     <g id="text_3">
      <!-- 5.0 -->
      <g transform="translate(195.794088 138.432885)scale(0.12 -0.12)">
       <use xlink:href="#TimesNewRomanPSMT-35"/>
       <use x="50" xlink:href="#TimesNewRomanPSMT-2e"/>
       <use x="75" xlink:href="#TimesNewRomanPSMT-30"/>
      </g>
     </g>
    </g>
    <g id="xtick_4">
     <g id="line2d_7">
      <g>
       <use style="stroke:#000000;stroke-width:0.5;" x="278.113565" xlink:href="#ma10d083646" y="126.600385"/>
      </g>
     </g>
     <g id="line2d_8">
      <g>
       <use style="stroke:#000000;stroke-width:0.5;" x="278.113565" xlink:href="#med4d5e4cfc" y="3.00024"/>
      </g>
     </g>
     <g id="text_4">
      <!-- 7.5 -->
      <g transform="translate(270.613565 138.432885)scale(0.12 -0.12)">
       <defs>
        <path d="M 644 4238 
L 2916 4238 
L 2916 4119 
L 1503 -88 
L 1153 -88 
L 2419 3728 
L 1253 3728 
Q 900 3728 750 3644 
Q 488 3500 328 3200 
L 238 3234 
L 644 4238 
z
" id="TimesNewRomanPSMT-37" transform="scale(0.015625)"/>
       </defs>
       <use xlink:href="#TimesNewRomanPSMT-37"/>
       <use x="50" xlink:href="#TimesNewRomanPSMT-2e"/>
       <use x="75" xlink:href="#TimesNewRomanPSMT-35"/>
      </g>
     </g>
    </g>
    <g id="xtick_5">
     <g id="line2d_9">
      <g>
       <use style="stroke:#000000;stroke-width:0.5;" x="352.933042" xlink:href="#ma10d083646" y="126.600385"/>
      </g>
     </g>
     <g id="line2d_10">
      <g>
       <use style="stroke:#000000;stroke-width:0.5;" x="352.933042" xlink:href="#med4d5e4cfc" y="3.00024"/>
      </g>
     </g>
     <g id="text_5">
      <!-- 10.0 -->
      <g transform="translate(342.433042 138.432885)scale(0.12 -0.12)">
       <defs>
        <path d="M 750 3822 
L 1781 4325 
L 1884 4325 
L 1884 747 
Q 1884 391 1914 303 
Q 1944 216 2037 169 
Q 2131 122 2419 116 
L 2419 0 
L 825 0 
L 825 116 
Q 1125 122 1212 167 
Q 1300 213 1334 289 
Q 1369 366 1369 747 
L 1369 3034 
Q 1369 3497 1338 3628 
Q 1316 3728 1258 3775 
Q 1200 3822 1119 3822 
Q 1003 3822 797 3725 
L 750 3822 
z
" id="TimesNewRomanPSMT-31" transform="scale(0.015625)"/>
       </defs>
       <use xlink:href="#TimesNewRomanPSMT-31"/>
       <use x="50" xlink:href="#TimesNewRomanPSMT-30"/>
       <use x="100" xlink:href="#TimesNewRomanPSMT-2e"/>
       <use x="125" xlink:href="#TimesNewRomanPSMT-30"/>
      </g>
     </g>
    </g>
    <g id="xtick_6">
     <g id="line2d_11">
      <g>
       <use style="stroke:#000000;stroke-width:0.5;" x="427.752519" xlink:href="#ma10d083646" y="126.600385"/>
      </g>
     </g>
     <g id="line2d_12">
      <g>
       <use style="stroke:#000000;stroke-width:0.5;" x="427.752519" xlink:href="#med4d5e4cfc" y="3.00024"/>
      </g>
     </g>
     <g id="text_6">
      <!-- 12.5 -->
      <g transform="translate(417.252519 138.432885)scale(0.12 -0.12)">
       <use xlink:href="#TimesNewRomanPSMT-31"/>
       <use x="50" xlink:href="#TimesNewRomanPSMT-32"/>
       <use x="100" xlink:href="#TimesNewRomanPSMT-2e"/>
       <use x="125" xlink:href="#TimesNewRomanPSMT-35"/>
      </g>
     </g>
    </g>
    <g id="xtick_7">
     <g id="line2d_13">
      <g>
       <use style="stroke:#000000;stroke-width:0.5;" x="502.571997" xlink:href="#ma10d083646" y="126.600385"/>
      </g>
     </g>
     <g id="line2d_14">
      <g>
       <use style="stroke:#000000;stroke-width:0.5;" x="502.571997" xlink:href="#med4d5e4cfc" y="3.00024"/>
      </g>
     </g>
     <g id="text_7">
      <!-- 15.0 -->
      <g transform="translate(492.071997 138.432885)scale(0.12 -0.12)">
       <use xlink:href="#TimesNewRomanPSMT-31"/>
       <use x="50" xlink:href="#TimesNewRomanPSMT-35"/>
       <use x="100" xlink:href="#TimesNewRomanPSMT-2e"/>
       <use x="125" xlink:href="#TimesNewRomanPSMT-30"/>
      </g>
     </g>
    </g>
    <g id="xtick_8">
     <g id="line2d_15">
      <g>
       <use style="stroke:#000000;stroke-width:0.5;" x="577.391474" xlink:href="#ma10d083646" y="126.600385"/>
      </g>
     </g>
     <g id="line2d_16">
      <g>
       <use style="stroke:#000000;stroke-width:0.5;" x="577.391474" xlink:href="#med4d5e4cfc" y="3.00024"/>
      </g>
     </g>
     <g id="text_8">
      <!-- 17.5 -->
      <g transform="translate(566.891474 138.432885)scale(0.12 -0.12)">
       <use xlink:href="#TimesNewRomanPSMT-31"/>
       <use x="50" xlink:href="#TimesNewRomanPSMT-37"/>
       <use x="100" xlink:href="#TimesNewRomanPSMT-2e"/>
       <use x="125" xlink:href="#TimesNewRomanPSMT-35"/>
      </g>
     </g>
    </g>
    <g id="xtick_9">
     <g id="line2d_17">
      <defs>
       <path d="M 0 0 
L 0 -1.5 
" id="m17e046f23d" style="stroke:#000000;stroke-width:0.5;"/>
      </defs>
      <g>
       <use style="stroke:#000000;stroke-width:0.5;" x="38.691237" xlink:href="#m17e046f23d" y="126.600385"/>
      </g>
     </g>
     <g id="line2d_18">
      <defs>
       <path d="M 0 0 
L 0 1.5 
" id="m271f998c7d" style="stroke:#000000;stroke-width:0.5;"/>
      </defs>
      <g>
       <use style="stroke:#000000;stroke-width:0.5;" x="38.691237" xlink:href="#m271f998c7d" y="3.00024"/>
      </g>
     </g>
    </g>
    <g id="xtick_10">
     <g id="line2d_19">
      <g>
       <use style="stroke:#000000;stroke-width:0.5;" x="68.619028" xlink:href="#m17e046f23d" y="126.600385"/>
      </g>
     </g>
     <g id="line2d_20">
      <g>
       <use style="stroke:#000000;stroke-width:0.5;" x="68.619028" xlink:href="#m271f998c7d" y="3.00024"/>
      </g>
     </g>
    </g>
    <g id="xtick_11">
     <g id="line2d_21">
      <g>
       <use style="stroke:#000000;stroke-width:0.5;" x="83.582924" xlink:href="#m17e046f23d" y="126.600385"/>
      </g>
     </g>
     <g id="line2d_22">
      <g>
       <use style="stroke:#000000;stroke-width:0.5;" x="83.582924" xlink:href="#m271f998c7d" y="3.00024"/>
      </g>
     </g>
    </g>
    <g id="xtick_12">
     <g id="line2d_23">
      <g>
       <use style="stroke:#000000;stroke-width:0.5;" x="98.546819" xlink:href="#m17e046f23d" y="126.600385"/>
      </g>
     </g>
     <g id="line2d_24">
      <g>
       <use style="stroke:#000000;stroke-width:0.5;" x="98.546819" xlink:href="#m271f998c7d" y="3.00024"/>
      </g>
     </g>
    </g>
    <g id="xtick_13">
     <g id="line2d_25">
      <g>
       <use style="stroke:#000000;stroke-width:0.5;" x="113.510715" xlink:href="#m17e046f23d" y="126.600385"/>
      </g>
     </g>
     <g id="line2d_26">
      <g>
       <use style="stroke:#000000;stroke-width:0.5;" x="113.510715" xlink:href="#m271f998c7d" y="3.00024"/>
      </g>
     </g>
    </g>
    <g id="xtick_14">
     <g id="line2d_27">
      <g>
       <use style="stroke:#000000;stroke-width:0.5;" x="143.438506" xlink:href="#m17e046f23d" y="126.600385"/>
      </g>
     </g>
     <g id="line2d_28">
      <g>
       <use style="stroke:#000000;stroke-width:0.5;" x="143.438506" xlink:href="#m271f998c7d" y="3.00024"/>
      </g>
     </g>
    </g>
    <g id="xtick_15">
     <g id="line2d_29">
      <g>
       <use style="stroke:#000000;stroke-width:0.5;" x="158.402401" xlink:href="#m17e046f23d" y="126.600385"/>
      </g>
     </g>
     <g id="line2d_30">
      <g>
       <use style="stroke:#000000;stroke-width:0.5;" x="158.402401" xlink:href="#m271f998c7d" y="3.00024"/>
      </g>
     </g>
    </g>
    <g id="xtick_16">
     <g id="line2d_31">
      <g>
       <use style="stroke:#000000;stroke-width:0.5;" x="173.366297" xlink:href="#m17e046f23d" y="126.600385"/>
      </g>
     </g>
     <g id="line2d_32">
      <g>
       <use style="stroke:#000000;stroke-width:0.5;" x="173.366297" xlink:href="#m271f998c7d" y="3.00024"/>
      </g>
     </g>
    </g>
    <g id="xtick_17">
     <g id="line2d_33">
      <g>
       <use style="stroke:#000000;stroke-width:0.5;" x="188.330192" xlink:href="#m17e046f23d" y="126.600385"/>
      </g>
     </g>
     <g id="line2d_34">
      <g>
       <use style="stroke:#000000;stroke-width:0.5;" x="188.330192" xlink:href="#m271f998c7d" y="3.00024"/>
      </g>
     </g>
    </g>
    <g id="xtick_18">
     <g id="line2d_35">
      <g>
       <use style="stroke:#000000;stroke-width:0.5;" x="218.257983" xlink:href="#m17e046f23d" y="126.600385"/>
      </g>
     </g>
     <g id="line2d_36">
      <g>
       <use style="stroke:#000000;stroke-width:0.5;" x="218.257983" xlink:href="#m271f998c7d" y="3.00024"/>
      </g>
     </g>
    </g>
    <g id="xtick_19">
     <g id="line2d_37">
      <g>
       <use style="stroke:#000000;stroke-width:0.5;" x="233.221878" xlink:href="#m17e046f23d" y="126.600385"/>
      </g>
     </g>
     <g id="line2d_38">
      <g>
       <use style="stroke:#000000;stroke-width:0.5;" x="233.221878" xlink:href="#m271f998c7d" y="3.00024"/>
      </g>
     </g>
    </g>
    <g id="xtick_20">
     <g id="line2d_39">
      <g>
       <use style="stroke:#000000;stroke-width:0.5;" x="248.185774" xlink:href="#m17e046f23d" y="126.600385"/>
      </g>
     </g>
     <g id="line2d_40">
      <g>
       <use style="stroke:#000000;stroke-width:0.5;" x="248.185774" xlink:href="#m271f998c7d" y="3.00024"/>
      </g>
     </g>
    </g>
    <g id="xtick_21">
     <g id="line2d_41">
      <g>
       <use style="stroke:#000000;stroke-width:0.5;" x="263.149669" xlink:href="#m17e046f23d" y="126.600385"/>
      </g>
     </g>
     <g id="line2d_42">
      <g>
       <use style="stroke:#000000;stroke-width:0.5;" x="263.149669" xlink:href="#m271f998c7d" y="3.00024"/>
      </g>
     </g>
    </g>
    <g id="xtick_22">
     <g id="line2d_43">
      <g>
       <use style="stroke:#000000;stroke-width:0.5;" x="293.07746" xlink:href="#m17e046f23d" y="126.600385"/>
      </g>
     </g>
     <g id="line2d_44">
      <g>
       <use style="stroke:#000000;stroke-width:0.5;" x="293.07746" xlink:href="#m271f998c7d" y="3.00024"/>
      </g>
     </g>
    </g>
    <g id="xtick_23">
     <g id="line2d_45">
      <g>
       <use style="stroke:#000000;stroke-width:0.5;" x="308.041356" xlink:href="#m17e046f23d" y="126.600385"/>
      </g>
     </g>
     <g id="line2d_46">
      <g>
       <use style="stroke:#000000;stroke-width:0.5;" x="308.041356" xlink:href="#m271f998c7d" y="3.00024"/>
      </g>
     </g>
    </g>
    <g id="xtick_24">
     <g id="line2d_47">
      <g>
       <use style="stroke:#000000;stroke-width:0.5;" x="323.005251" xlink:href="#m17e046f23d" y="126.600385"/>
      </g>
     </g>
     <g id="line2d_48">
      <g>
       <use style="stroke:#000000;stroke-width:0.5;" x="323.005251" xlink:href="#m271f998c7d" y="3.00024"/>
      </g>
     </g>
    </g>
    <g id="xtick_25">
     <g id="line2d_49">
      <g>
       <use style="stroke:#000000;stroke-width:0.5;" x="337.969147" xlink:href="#m17e046f23d" y="126.600385"/>
      </g>
     </g>
     <g id="line2d_50">
      <g>
       <use style="stroke:#000000;stroke-width:0.5;" x="337.969147" xlink:href="#m271f998c7d" y="3.00024"/>
      </g>
     </g>
    </g>
    <g id="xtick_26">
     <g id="line2d_51">
      <g>
       <use style="stroke:#000000;stroke-width:0.5;" x="367.896938" xlink:href="#m17e046f23d" y="126.600385"/>
      </g>
     </g>
     <g id="line2d_52">
      <g>
       <use style="stroke:#000000;stroke-width:0.5;" x="367.896938" xlink:href="#m271f998c7d" y="3.00024"/>
      </g>
     </g>
    </g>
    <g id="xtick_27">
     <g id="line2d_53">
      <g>
       <use style="stroke:#000000;stroke-width:0.5;" x="382.860833" xlink:href="#m17e046f23d" y="126.600385"/>
      </g>
     </g>
     <g id="line2d_54">
      <g>
       <use style="stroke:#000000;stroke-width:0.5;" x="382.860833" xlink:href="#m271f998c7d" y="3.00024"/>
      </g>
     </g>
    </g>
    <g id="xtick_28">
     <g id="line2d_55">
      <g>
       <use style="stroke:#000000;stroke-width:0.5;" x="397.824728" xlink:href="#m17e046f23d" y="126.600385"/>
      </g>
     </g>
     <g id="line2d_56">
      <g>
       <use style="stroke:#000000;stroke-width:0.5;" x="397.824728" xlink:href="#m271f998c7d" y="3.00024"/>
      </g>
     </g>
    </g>
    <g id="xtick_29">
     <g id="line2d_57">
      <g>
       <use style="stroke:#000000;stroke-width:0.5;" x="412.788624" xlink:href="#m17e046f23d" y="126.600385"/>
      </g>
     </g>
     <g id="line2d_58">
      <g>
       <use style="stroke:#000000;stroke-width:0.5;" x="412.788624" xlink:href="#m271f998c7d" y="3.00024"/>
      </g>
     </g>
    </g>
    <g id="xtick_30">
     <g id="line2d_59">
      <g>
       <use style="stroke:#000000;stroke-width:0.5;" x="442.716415" xlink:href="#m17e046f23d" y="126.600385"/>
      </g>
     </g>
     <g id="line2d_60">
      <g>
       <use style="stroke:#000000;stroke-width:0.5;" x="442.716415" xlink:href="#m271f998c7d" y="3.00024"/>
      </g>
     </g>
    </g>
    <g id="xtick_31">
     <g id="line2d_61">
      <g>
       <use style="stroke:#000000;stroke-width:0.5;" x="457.68031" xlink:href="#m17e046f23d" y="126.600385"/>
      </g>
     </g>
     <g id="line2d_62">
      <g>
       <use style="stroke:#000000;stroke-width:0.5;" x="457.68031" xlink:href="#m271f998c7d" y="3.00024"/>
      </g>
     </g>
    </g>
    <g id="xtick_32">
     <g id="line2d_63">
      <g>
       <use style="stroke:#000000;stroke-width:0.5;" x="472.644206" xlink:href="#m17e046f23d" y="126.600385"/>
      </g>
     </g>
     <g id="line2d_64">
      <g>
       <use style="stroke:#000000;stroke-width:0.5;" x="472.644206" xlink:href="#m271f998c7d" y="3.00024"/>
      </g>
     </g>
    </g>
    <g id="xtick_33">
     <g id="line2d_65">
      <g>
       <use style="stroke:#000000;stroke-width:0.5;" x="487.608101" xlink:href="#m17e046f23d" y="126.600385"/>
      </g>
     </g>
     <g id="line2d_66">
      <g>
       <use style="stroke:#000000;stroke-width:0.5;" x="487.608101" xlink:href="#m271f998c7d" y="3.00024"/>
      </g>
     </g>
    </g>
    <g id="xtick_34">
     <g id="line2d_67">
      <g>
       <use style="stroke:#000000;stroke-width:0.5;" x="517.535892" xlink:href="#m17e046f23d" y="126.600385"/>
      </g>
     </g>
     <g id="line2d_68">
      <g>
       <use style="stroke:#000000;stroke-width:0.5;" x="517.535892" xlink:href="#m271f998c7d" y="3.00024"/>
      </g>
     </g>
    </g>
    <g id="xtick_35">
     <g id="line2d_69">
      <g>
       <use style="stroke:#000000;stroke-width:0.5;" x="532.499788" xlink:href="#m17e046f23d" y="126.600385"/>
      </g>
     </g>
     <g id="line2d_70">
      <g>
       <use style="stroke:#000000;stroke-width:0.5;" x="532.499788" xlink:href="#m271f998c7d" y="3.00024"/>
      </g>
     </g>
    </g>
    <g id="xtick_36">
     <g id="line2d_71">
      <g>
       <use style="stroke:#000000;stroke-width:0.5;" x="547.463683" xlink:href="#m17e046f23d" y="126.600385"/>
      </g>
     </g>
     <g id="line2d_72">
      <g>
       <use style="stroke:#000000;stroke-width:0.5;" x="547.463683" xlink:href="#m271f998c7d" y="3.00024"/>
      </g>
     </g>
    </g>
    <g id="xtick_37">
     <g id="line2d_73">
      <g>
       <use style="stroke:#000000;stroke-width:0.5;" x="562.427578" xlink:href="#m17e046f23d" y="126.600385"/>
      </g>
     </g>
     <g id="line2d_74">
      <g>
       <use style="stroke:#000000;stroke-width:0.5;" x="562.427578" xlink:href="#m271f998c7d" y="3.00024"/>
      </g>
     </g>
    </g>
    <g id="xtick_38">
     <g id="line2d_75">
      <g>
       <use style="stroke:#000000;stroke-width:0.5;" x="592.355369" xlink:href="#m17e046f23d" y="126.600385"/>
      </g>
     </g>
     <g id="line2d_76">
      <g>
       <use style="stroke:#000000;stroke-width:0.5;" x="592.355369" xlink:href="#m271f998c7d" y="3.00024"/>
      </g>
     </g>
    </g>
    <g id="xtick_39">
     <g id="line2d_77">
      <g>
       <use style="stroke:#000000;stroke-width:0.5;" x="607.319265" xlink:href="#m17e046f23d" y="126.600385"/>
      </g>
     </g>
     <g id="line2d_78">
      <g>
       <use style="stroke:#000000;stroke-width:0.5;" x="607.319265" xlink:href="#m271f998c7d" y="3.00024"/>
      </g>
     </g>
    </g>
    <g id="xtick_40">
     <g id="line2d_79">
      <g>
       <use style="stroke:#000000;stroke-width:0.5;" x="622.28316" xlink:href="#m17e046f23d" y="126.600385"/>
      </g>
     </g>
     <g id="line2d_80">
      <g>
       <use style="stroke:#000000;stroke-width:0.5;" x="622.28316" xlink:href="#m271f998c7d" y="3.00024"/>
      </g>
     </g>
    </g>
    <g id="xtick_41">
     <g id="line2d_81">
      <g>
       <use style="stroke:#000000;stroke-width:0.5;" x="637.247056" xlink:href="#m17e046f23d" y="126.600385"/>
      </g>
     </g>
     <g id="line2d_82">
      <g>
       <use style="stroke:#000000;stroke-width:0.5;" x="637.247056" xlink:href="#m271f998c7d" y="3.00024"/>
      </g>
     </g>
    </g>
   </g>
   <g id="matplotlib.axis_2">
    <g id="ytick_1">
     <g id="line2d_83">
      <defs>
       <path d="M 0 0 
L 3 0 
" id="md11e044a20" style="stroke:#000000;stroke-width:0.5;"/>
      </defs>
      <g>
       <use style="stroke:#000000;stroke-width:0.5;" x="25.495865" xlink:href="#md11e044a20" y="120.982197"/>
      </g>
     </g>
     <g id="line2d_84">
      <defs>
       <path d="M 0 0 
L -3 0 
" id="md3837c7615" style="stroke:#000000;stroke-width:0.5;"/>
      </defs>
      <g>
       <use style="stroke:#000000;stroke-width:0.5;" x="644.99976" xlink:href="#md3837c7615" y="120.982197"/>
      </g>
     </g>
     <g id="text_9">
      <!-- -1.0 -->
      <g transform="translate(3.00024 125.148447)scale(0.12 -0.12)">
       <defs>
        <path d="M 259 1672 
L 1875 1672 
L 1875 1200 
L 259 1200 
L 259 1672 
z
" id="TimesNewRomanPSMT-2d" transform="scale(0.015625)"/>
       </defs>
       <use xlink:href="#TimesNewRomanPSMT-2d"/>
       <use x="33.300781" xlink:href="#TimesNewRomanPSMT-31"/>
       <use x="83.300781" xlink:href="#TimesNewRomanPSMT-2e"/>
       <use x="108.300781" xlink:href="#TimesNewRomanPSMT-30"/>
      </g>
     </g>
    </g>
    <g id="ytick_2">
     <g id="line2d_85">
      <g>
       <use style="stroke:#000000;stroke-width:0.5;" x="25.495865" xlink:href="#md11e044a20" y="92.891255"/>
      </g>
     </g>
     <g id="line2d_86">
      <g>
       <use style="stroke:#000000;stroke-width:0.5;" x="644.99976" xlink:href="#md3837c7615" y="92.891255"/>
      </g>
     </g>
     <g id="text_10">
      <!-- -0.5 -->
      <g transform="translate(3.00024 97.057505)scale(0.12 -0.12)">
       <use xlink:href="#TimesNewRomanPSMT-2d"/>
       <use x="33.300781" xlink:href="#TimesNewRomanPSMT-30"/>
       <use x="83.300781" xlink:href="#TimesNewRomanPSMT-2e"/>
       <use x="108.300781" xlink:href="#TimesNewRomanPSMT-35"/>
      </g>
     </g>
    </g>
    <g id="ytick_3">
     <g id="line2d_87">
      <g>
       <use style="stroke:#000000;stroke-width:0.5;" x="25.495865" xlink:href="#md11e044a20" y="64.800313"/>
      </g>
     </g>
     <g id="line2d_88">
      <g>
       <use style="stroke:#000000;stroke-width:0.5;" x="644.99976" xlink:href="#md3837c7615" y="64.800313"/>
      </g>
     </g>
     <g id="text_11">
      <!-- 0.0 -->
      <g transform="translate(6.995865 68.966563)scale(0.12 -0.12)">
       <use xlink:href="#TimesNewRomanPSMT-30"/>
       <use x="50" xlink:href="#TimesNewRomanPSMT-2e"/>
       <use x="75" xlink:href="#TimesNewRomanPSMT-30"/>
      </g>
     </g>
    </g>
    <g id="ytick_4">
     <g id="line2d_89">
      <g>
       <use style="stroke:#000000;stroke-width:0.5;" x="25.495865" xlink:href="#md11e044a20" y="36.70937"/>
      </g>
     </g>
     <g id="line2d_90">
      <g>
       <use style="stroke:#000000;stroke-width:0.5;" x="644.99976" xlink:href="#md3837c7615" y="36.70937"/>
      </g>
     </g>
     <g id="text_12">
      <!-- 0.5 -->
      <g transform="translate(6.995865 40.87562)scale(0.12 -0.12)">
       <use xlink:href="#TimesNewRomanPSMT-30"/>
       <use x="50" xlink:href="#TimesNewRomanPSMT-2e"/>
       <use x="75" xlink:href="#TimesNewRomanPSMT-35"/>
      </g>
     </g>
    </g>
    <g id="ytick_5">
     <g id="line2d_91">
      <g>
       <use style="stroke:#000000;stroke-width:0.5;" x="25.495865" xlink:href="#md11e044a20" y="8.618428"/>
      </g>
     </g>
     <g id="line2d_92">
      <g>
       <use style="stroke:#000000;stroke-width:0.5;" x="644.99976" xlink:href="#md3837c7615" y="8.618428"/>
      </g>
     </g>
     <g id="text_13">
      <!-- 1.0 -->
      <g transform="translate(6.995865 12.784678)scale(0.12 -0.12)">
       <use xlink:href="#TimesNewRomanPSMT-31"/>
       <use x="50" xlink:href="#TimesNewRomanPSMT-2e"/>
       <use x="75" xlink:href="#TimesNewRomanPSMT-30"/>
      </g>
     </g>
    </g>
    <g id="ytick_6">
     <g id="line2d_93">
      <defs>
       <path d="M 0 0 
L 1.5 0 
" id="m3da72843b6" style="stroke:#000000;stroke-width:0.5;"/>
      </defs>
      <g>
       <use style="stroke:#000000;stroke-width:0.5;" x="25.495865" xlink:href="#m3da72843b6" y="126.600385"/>
      </g>
     </g>
     <g id="line2d_94">
      <defs>
       <path d="M 0 0 
L -1.5 0 
" id="m0d0599cc80" style="stroke:#000000;stroke-width:0.5;"/>
      </defs>
      <g>
       <use style="stroke:#000000;stroke-width:0.5;" x="644.99976" xlink:href="#m0d0599cc80" y="126.600385"/>
      </g>
     </g>
    </g>
    <g id="ytick_7">
     <g id="line2d_95">
      <g>
       <use style="stroke:#000000;stroke-width:0.5;" x="25.495865" xlink:href="#m3da72843b6" y="115.364008"/>
      </g>
     </g>
     <g id="line2d_96">
      <g>
       <use style="stroke:#000000;stroke-width:0.5;" x="644.99976" xlink:href="#m0d0599cc80" y="115.364008"/>
      </g>
     </g>
    </g>
    <g id="ytick_8">
     <g id="line2d_97">
      <g>
       <use style="stroke:#000000;stroke-width:0.5;" x="25.495865" xlink:href="#m3da72843b6" y="109.74582"/>
      </g>
     </g>
     <g id="line2d_98">
      <g>
       <use style="stroke:#000000;stroke-width:0.5;" x="644.99976" xlink:href="#m0d0599cc80" y="109.74582"/>
      </g>
     </g>
    </g>
    <g id="ytick_9">
     <g id="line2d_99">
      <g>
       <use style="stroke:#000000;stroke-width:0.5;" x="25.495865" xlink:href="#m3da72843b6" y="104.127631"/>
      </g>
     </g>
     <g id="line2d_100">
      <g>
       <use style="stroke:#000000;stroke-width:0.5;" x="644.99976" xlink:href="#m0d0599cc80" y="104.127631"/>
      </g>
     </g>
    </g>
    <g id="ytick_10">
     <g id="line2d_101">
      <g>
       <use style="stroke:#000000;stroke-width:0.5;" x="25.495865" xlink:href="#m3da72843b6" y="98.509443"/>
      </g>
     </g>
     <g id="line2d_102">
      <g>
       <use style="stroke:#000000;stroke-width:0.5;" x="644.99976" xlink:href="#m0d0599cc80" y="98.509443"/>
      </g>
     </g>
    </g>
    <g id="ytick_11">
     <g id="line2d_103">
      <g>
       <use style="stroke:#000000;stroke-width:0.5;" x="25.495865" xlink:href="#m3da72843b6" y="87.273066"/>
      </g>
     </g>
     <g id="line2d_104">
      <g>
       <use style="stroke:#000000;stroke-width:0.5;" x="644.99976" xlink:href="#m0d0599cc80" y="87.273066"/>
      </g>
     </g>
    </g>
    <g id="ytick_12">
     <g id="line2d_105">
      <g>
       <use style="stroke:#000000;stroke-width:0.5;" x="25.495865" xlink:href="#m3da72843b6" y="81.654878"/>
      </g>
     </g>
     <g id="line2d_106">
      <g>
       <use style="stroke:#000000;stroke-width:0.5;" x="644.99976" xlink:href="#m0d0599cc80" y="81.654878"/>
      </g>
     </g>
    </g>
    <g id="ytick_13">
     <g id="line2d_107">
      <g>
       <use style="stroke:#000000;stroke-width:0.5;" x="25.495865" xlink:href="#m3da72843b6" y="76.036689"/>
      </g>
     </g>
     <g id="line2d_108">
      <g>
       <use style="stroke:#000000;stroke-width:0.5;" x="644.99976" xlink:href="#m0d0599cc80" y="76.036689"/>
      </g>
     </g>
    </g>
    <g id="ytick_14">
     <g id="line2d_109">
      <g>
       <use style="stroke:#000000;stroke-width:0.5;" x="25.495865" xlink:href="#m3da72843b6" y="70.418501"/>
      </g>
     </g>
     <g id="line2d_110">
      <g>
       <use style="stroke:#000000;stroke-width:0.5;" x="644.99976" xlink:href="#m0d0599cc80" y="70.418501"/>
      </g>
     </g>
    </g>
    <g id="ytick_15">
     <g id="line2d_111">
      <g>
       <use style="stroke:#000000;stroke-width:0.5;" x="25.495865" xlink:href="#m3da72843b6" y="59.182124"/>
      </g>
     </g>
     <g id="line2d_112">
      <g>
       <use style="stroke:#000000;stroke-width:0.5;" x="644.99976" xlink:href="#m0d0599cc80" y="59.182124"/>
      </g>
     </g>
    </g>
    <g id="ytick_16">
     <g id="line2d_113">
      <g>
       <use style="stroke:#000000;stroke-width:0.5;" x="25.495865" xlink:href="#m3da72843b6" y="53.563936"/>
      </g>
     </g>
     <g id="line2d_114">
      <g>
       <use style="stroke:#000000;stroke-width:0.5;" x="644.99976" xlink:href="#m0d0599cc80" y="53.563936"/>
      </g>
     </g>
    </g>
    <g id="ytick_17">
     <g id="line2d_115">
      <g>
       <use style="stroke:#000000;stroke-width:0.5;" x="25.495865" xlink:href="#m3da72843b6" y="47.945747"/>
      </g>
     </g>
     <g id="line2d_116">
      <g>
       <use style="stroke:#000000;stroke-width:0.5;" x="644.99976" xlink:href="#m0d0599cc80" y="47.945747"/>
      </g>
     </g>
    </g>
    <g id="ytick_18">
     <g id="line2d_117">
      <g>
       <use style="stroke:#000000;stroke-width:0.5;" x="25.495865" xlink:href="#m3da72843b6" y="42.327559"/>
      </g>
     </g>
     <g id="line2d_118">
      <g>
       <use style="stroke:#000000;stroke-width:0.5;" x="644.99976" xlink:href="#m0d0599cc80" y="42.327559"/>
      </g>
     </g>
    </g>
    <g id="ytick_19">
     <g id="line2d_119">
      <g>
       <use style="stroke:#000000;stroke-width:0.5;" x="25.495865" xlink:href="#m3da72843b6" y="31.091182"/>
      </g>
     </g>
     <g id="line2d_120">
      <g>
       <use style="stroke:#000000;stroke-width:0.5;" x="644.99976" xlink:href="#m0d0599cc80" y="31.091182"/>
      </g>
     </g>
    </g>
    <g id="ytick_20">
     <g id="line2d_121">
      <g>
       <use style="stroke:#000000;stroke-width:0.5;" x="25.495865" xlink:href="#m3da72843b6" y="25.472994"/>
      </g>
     </g>
     <g id="line2d_122">
      <g>
       <use style="stroke:#000000;stroke-width:0.5;" x="644.99976" xlink:href="#m0d0599cc80" y="25.472994"/>
      </g>
     </g>
    </g>
    <g id="ytick_21">
     <g id="line2d_123">
      <g>
       <use style="stroke:#000000;stroke-width:0.5;" x="25.495865" xlink:href="#m3da72843b6" y="19.854805"/>
      </g>
     </g>
     <g id="line2d_124">
      <g>
       <use style="stroke:#000000;stroke-width:0.5;" x="644.99976" xlink:href="#m0d0599cc80" y="19.854805"/>
      </g>
     </g>
    </g>
    <g id="ytick_22">
     <g id="line2d_125">
      <g>
       <use style="stroke:#000000;stroke-width:0.5;" x="25.495865" xlink:href="#m3da72843b6" y="14.236617"/>
      </g>
     </g>
     <g id="line2d_126">
      <g>
       <use style="stroke:#000000;stroke-width:0.5;" x="644.99976" xlink:href="#m0d0599cc80" y="14.236617"/>
      </g>
     </g>
    </g>
   </g>
   <g id="line2d_127">
    <path clip-path="url(#p150dc7d840)" d="M 53.655133 64.800313 
L 62.117016 49.126067 
L 66.818063 40.87923 
L 70.5789 34.696554 
L 74.339737 28.988632 
L 77.160365 25.073721 
L 79.980993 21.511427 
L 82.801621 18.333368 
L 85.622248 15.567752 
L 87.502667 13.965424 
L 89.383086 12.563718 
L 91.263504 11.368166 
L 93.143923 10.383486 
L 95.024341 9.613564 
L 96.90476 9.061439 
L 98.785178 8.729291 
L 100.665597 8.618428 
L 102.546016 8.729291 
L 104.426434 9.061439 
L 106.306853 9.613564 
L 108.187271 10.383486 
L 110.06769 11.368166 
L 111.948108 12.563718 
L 113.828527 13.965424 
L 115.708945 15.567752 
L 118.529573 18.333368 
L 121.350201 21.511427 
L 124.170829 25.073721 
L 126.991457 28.988632 
L 129.812085 33.221409 
L 133.572922 39.294271 
L 137.333759 45.769378 
L 142.975015 56.01153 
L 158.958572 85.482243 
L 162.71941 91.866142 
L 166.480247 97.823195 
L 169.300874 101.954059 
L 172.121502 105.755143 
L 174.94213 109.19271 
L 177.762758 112.236246 
L 180.583386 114.858738 
L 182.463804 116.361497 
L 184.344223 117.660767 
L 186.224642 118.751421 
L 188.10506 119.629155 
L 189.985479 120.290504 
L 191.865897 120.732859 
L 193.746316 120.954474 
L 195.626734 120.954474 
L 197.507153 120.732859 
L 199.387571 120.290504 
L 201.26799 119.629155 
L 203.148409 118.751421 
L 205.028827 117.660767 
L 206.909246 116.361497 
L 208.789664 114.858738 
L 211.610292 112.236246 
L 214.43092 109.19271 
L 217.251548 105.755143 
L 220.072176 101.954059 
L 222.892803 97.823195 
L 226.653641 91.866142 
L 230.414478 85.482243 
L 235.115524 77.056011 
L 243.577408 61.272623 
L 250.158873 49.126067 
L 254.859919 40.87923 
L 258.620756 34.696554 
L 262.381593 28.988632 
L 265.202221 25.073721 
L 268.022849 21.511427 
L 270.843477 18.333368 
L 273.664105 15.567752 
L 275.544523 13.965424 
L 277.424942 12.563718 
L 279.30536 11.368166 
L 281.185779 10.383486 
L 283.066197 9.613564 
L 284.946616 9.061439 
L 286.827035 8.729291 
L 288.707453 8.618428 
L 290.587872 8.729291 
L 292.46829 9.061439 
L 294.348709 9.613564 
L 296.229127 10.383486 
L 298.109546 11.368166 
L 299.989964 12.563718 
L 301.870383 13.965424 
L 303.750802 15.567752 
L 306.571429 18.333368 
L 309.392057 21.511427 
L 312.212685 25.073721 
L 315.033313 28.988632 
L 317.853941 33.221409 
L 321.614778 39.294271 
L 325.375615 45.769378 
L 331.016871 56.01153 
L 347.000429 85.482243 
L 350.761266 91.866142 
L 354.522103 97.823195 
L 357.342731 101.954059 
L 360.163358 105.755143 
L 362.983986 109.19271 
L 365.804614 112.236246 
L 368.625242 114.858738 
L 370.505661 116.361497 
L 372.386079 117.660767 
L 374.266498 118.751421 
L 376.146916 119.629155 
L 378.027335 120.290504 
L 379.907753 120.732859 
L 381.788172 120.954474 
L 383.66859 120.954474 
L 385.549009 120.732859 
L 387.429428 120.290504 
L 389.309846 119.629155 
L 391.190265 118.751421 
L 393.070683 117.660767 
L 394.951102 116.361497 
L 396.83152 114.858738 
L 399.652148 112.236246 
L 402.472776 109.19271 
L 405.293404 105.755143 
L 408.114032 101.954059 
L 410.93466 97.823195 
L 414.695497 91.866142 
L 418.456334 85.482243 
L 423.15738 77.056011 
L 431.619264 61.272623 
L 438.200729 49.126067 
L 442.901775 40.87923 
L 446.662612 34.696554 
L 450.423449 28.988632 
L 453.244077 25.073721 
L 456.064705 21.511427 
L 458.885333 18.333368 
L 461.705961 15.567752 
L 463.586379 13.965424 
L 465.466798 12.563718 
L 467.347216 11.368166 
L 469.227635 10.383486 
L 471.108054 9.613564 
L 472.988472 9.061439 
L 474.868891 8.729291 
L 476.749309 8.618428 
L 478.629728 8.729291 
L 480.510146 9.061439 
L 482.390565 9.613564 
L 484.270983 10.383486 
L 486.151402 11.368166 
L 488.031821 12.563718 
L 489.912239 13.965424 
L 491.792658 15.567752 
L 494.613286 18.333368 
L 497.433913 21.511427 
L 500.254541 25.073721 
L 503.075169 28.988632 
L 505.895797 33.221409 
L 509.656634 39.294271 
L 513.417471 45.769378 
L 519.058727 56.01153 
L 535.042285 85.482243 
L 538.803122 91.866142 
L 542.563959 97.823195 
L 545.384587 101.954059 
L 548.205215 105.755143 
L 551.025842 109.19271 
L 553.84647 112.236246 
L 556.667098 114.858738 
L 558.547517 116.361497 
L 560.427935 117.660767 
L 562.308354 118.751421 
L 564.188772 119.629155 
L 566.069191 120.290504 
L 567.949609 120.732859 
L 569.830028 120.954474 
L 571.710447 120.954474 
L 573.590865 120.732859 
L 575.471284 120.290504 
L 577.351702 119.629155 
L 579.232121 118.751421 
L 581.112539 117.660767 
L 582.992958 116.361497 
L 584.873377 114.858738 
L 587.694004 112.236246 
L 590.514632 109.19271 
L 593.33526 105.755143 
L 596.155888 101.954059 
L 598.976516 97.823195 
L 602.737353 91.866142 
L 606.49819 85.482243 
L 611.199236 77.056011 
L 616.840492 66.565028 
L 616.840492 66.565028 
" style="fill:none;stroke:#000000;stroke-linecap:square;stroke-width:1.5;"/>
   </g>
   <g id="line2d_128">
    <path clip-path="url(#p150dc7d840)" d="M 53.655133 8.618428 
L 55.535552 8.729291 
L 57.41597 9.061439 
L 59.296389 9.613564 
L 61.176807 10.383486 
L 63.057226 11.368166 
L 64.937644 12.563718 
L 66.818063 13.965424 
L 68.698481 15.567752 
L 71.519109 18.333368 
L 74.339737 21.511427 
L 77.160365 25.073721 
L 79.980993 28.988632 
L 82.801621 33.221409 
L 86.562458 39.294271 
L 90.323295 45.769378 
L 95.964551 56.01153 
L 111.948108 85.482243 
L 115.708945 91.866142 
L 119.469783 97.823195 
L 122.29041 101.954059 
L 125.111038 105.755143 
L 127.931666 109.19271 
L 130.752294 112.236246 
L 133.572922 114.858738 
L 135.45334 116.361497 
L 137.333759 117.660767 
L 139.214177 118.751421 
L 141.094596 119.629155 
L 142.975015 120.290504 
L 144.855433 120.732859 
L 146.735852 120.954474 
L 148.61627 120.954474 
L 150.496689 120.732859 
L 152.377107 120.290504 
L 154.257526 119.629155 
L 156.137945 118.751421 
L 158.018363 117.660767 
L 159.898782 116.361497 
L 161.7792 114.858738 
L 164.599828 112.236246 
L 167.420456 109.19271 
L 170.241084 105.755143 
L 173.061712 101.954059 
L 175.882339 97.823195 
L 179.643177 91.866142 
L 183.404014 85.482243 
L 188.10506 77.056011 
L 196.566944 61.272623 
L 203.148409 49.126067 
L 207.849455 40.87923 
L 211.610292 34.696554 
L 215.371129 28.988632 
L 218.191757 25.073721 
L 221.012385 21.511427 
L 223.833013 18.333368 
L 226.653641 15.567752 
L 228.534059 13.965424 
L 230.414478 12.563718 
L 232.294896 11.368166 
L 234.175315 10.383486 
L 236.055733 9.613564 
L 237.936152 9.061439 
L 239.816571 8.729291 
L 241.696989 8.618428 
L 243.577408 8.729291 
L 245.457826 9.061439 
L 247.338245 9.613564 
L 249.218663 10.383486 
L 251.099082 11.368166 
L 252.9795 12.563718 
L 254.859919 13.965424 
L 256.740338 15.567752 
L 259.560965 18.333368 
L 262.381593 21.511427 
L 265.202221 25.073721 
L 268.022849 28.988632 
L 270.843477 33.221409 
L 274.604314 39.294271 
L 278.365151 45.769378 
L 284.006407 56.01153 
L 299.989964 85.482243 
L 303.750802 91.866142 
L 307.511639 97.823195 
L 310.332267 101.954059 
L 313.152894 105.755143 
L 315.973522 109.19271 
L 318.79415 112.236246 
L 321.614778 114.858738 
L 323.495196 116.361497 
L 325.375615 117.660767 
L 327.256034 118.751421 
L 329.136452 119.629155 
L 331.016871 120.290504 
L 332.897289 120.732859 
L 334.777708 120.954474 
L 336.658126 120.954474 
L 338.538545 120.732859 
L 340.418964 120.290504 
L 342.299382 119.629155 
L 344.179801 118.751421 
L 346.060219 117.660767 
L 347.940638 116.361497 
L 349.821056 114.858738 
L 352.641684 112.236246 
L 355.462312 109.19271 
L 358.28294 105.755143 
L 361.103568 101.954059 
L 363.924196 97.823195 
L 367.685033 91.866142 
L 371.44587 85.482243 
L 376.146916 77.056011 
L 384.6088 61.272623 
L 391.190265 49.126067 
L 395.891311 40.87923 
L 399.652148 34.696554 
L 403.412985 28.988632 
L 406.233613 25.073721 
L 409.054241 21.511427 
L 411.874869 18.333368 
L 414.695497 15.567752 
L 416.575915 13.965424 
L 418.456334 12.563718 
L 420.336752 11.368166 
L 422.217171 10.383486 
L 424.09759 9.613564 
L 425.978008 9.061439 
L 427.858427 8.729291 
L 429.738845 8.618428 
L 431.619264 8.729291 
L 433.499682 9.061439 
L 435.380101 9.613564 
L 437.260519 10.383486 
L 439.140938 11.368166 
L 441.021357 12.563718 
L 442.901775 13.965424 
L 444.782194 15.567752 
L 447.602822 18.333368 
L 450.423449 21.511427 
L 453.244077 25.073721 
L 456.064705 28.988632 
L 458.885333 33.221409 
L 462.64617 39.294271 
L 466.407007 45.769378 
L 472.048263 56.01153 
L 488.031821 85.482243 
L 491.792658 91.866142 
L 495.553495 97.823195 
L 498.374123 101.954059 
L 501.194751 105.755143 
L 504.015378 109.19271 
L 506.836006 112.236246 
L 509.656634 114.858738 
L 511.537053 116.361497 
L 513.417471 117.660767 
L 515.29789 118.751421 
L 517.178308 119.629155 
L 519.058727 120.290504 
L 520.939145 120.732859 
L 522.819564 120.954474 
L 524.699983 120.954474 
L 526.580401 120.732859 
L 528.46082 120.290504 
L 530.341238 119.629155 
L 532.221657 118.751421 
L 534.102075 117.660767 
L 535.982494 116.361497 
L 537.862912 114.858738 
L 540.68354 112.236246 
L 543.504168 109.19271 
L 546.324796 105.755143 
L 549.145424 101.954059 
L 551.966052 97.823195 
L 555.726889 91.866142 
L 559.487726 85.482243 
L 564.188772 77.056011 
L 572.650656 61.272623 
L 579.232121 49.126067 
L 583.933167 40.87923 
L 587.694004 34.696554 
L 591.454841 28.988632 
L 594.275469 25.073721 
L 597.096097 21.511427 
L 599.916725 18.333368 
L 602.737353 15.567752 
L 604.617771 13.965424 
L 606.49819 12.563718 
L 608.378609 11.368166 
L 610.259027 10.383486 
L 612.139446 9.613564 
L 614.019864 9.061439 
L 615.900283 8.729291 
L 616.840492 8.646151 
L 616.840492 8.646151 
" style="fill:none;stroke:#dc143c;stroke-dasharray:5.55,2.4;stroke-dashoffset:0;stroke-width:1.5;"/>
   </g>
   <g id="patch_3">
    <path d="M 25.495865 126.600385 
L 25.495865 3.00024 
" style="fill:none;stroke:#000000;stroke-linecap:square;stroke-linejoin:miter;stroke-width:0.5;"/>
   </g>
   <g id="patch_4">
    <path d="M 644.99976 126.600385 
L 644.99976 3.00024 
" style="fill:none;stroke:#000000;stroke-linecap:square;stroke-linejoin:miter;stroke-width:0.5;"/>
   </g>
   <g id="patch_5">
    <path d="M 25.495865 126.600385 
L 644.99976 126.600385 
" style="fill:none;stroke:#000000;stroke-linecap:square;stroke-linejoin:miter;stroke-width:0.5;"/>
   </g>
   <g id="patch_6">
    <path d="M 25.495865 3.00024 
L 644.99976 3.00024 
" style="fill:none;stroke:#000000;stroke-linecap:square;stroke-linejoin:miter;stroke-width:0.5;"/>
   </g>
  </g>
 </g>
 <defs>
  <clipPath id="p150dc7d840">
   <rect height="123.600145" width="619.503895" x="25.495865" y="3.00024"/>
  </clipPath>
 </defs>
</svg>
