<?xml version="1.0" encoding="utf-8" standalone="no"?>
<!DOCTYPE svg PUBLIC "-//W3C//DTD SVG 1.1//EN"
  "http://www.w3.org/Graphics/SVG/1.1/DTD/svg11.dtd">
<!-- Created with matplotlib (https://matplotlib.org/) -->
<svg height="144pt" version="1.1" viewBox="0 0 648 144" width="648pt" xmlns="http://www.w3.org/2000/svg" xmlns:xlink="http://www.w3.org/1999/xlink">
 <metadata>
  <rdf:RDF xmlns:cc="http://creativecommons.org/ns#" xmlns:dc="http://purl.org/dc/elements/1.1/" xmlns:rdf="http://www.w3.org/1999/02/22-rdf-syntax-ns#">
   <cc:Work>
    <dc:type rdf:resource="http://purl.org/dc/dcmitype/StillImage"/>
    <dc:date>2020-12-26T17:30:13.917091</dc:date>
    <dc:format>image/svg+xml</dc:format>
    <dc:creator>
     <cc:Agent>
      <dc:title>Matplotlib v3.3.3, https://matplotlib.org/</dc:title>
     </cc:Agent>
    </dc:creator>
   </cc:Work>
  </rdf:RDF>
 </metadata>
 <defs>
  <style type="text/css">*{stroke-linecap:butt;stroke-linejoin:round;}</style>
 </defs>
 <g id="figure_1">
  <g id="patch_1">
   <path d="M 0 144 
L 648 144 
L 648 0 
L 0 0 
z
" style="fill:#ffffff;"/>
  </g>
  <g id="axes_1">
   <g id="patch_2">
    <path d="M 25.82024 126.84601 
L 644.99976 126.84601 
L 644.99976 3.00024 
L 25.82024 3.00024 
z
" style="fill:#ffffff;"/>
   </g>
   <g id="matplotlib.axis_1">
    <g id="xtick_1">
     <g id="line2d_1">
      <defs>
       <path d="M 0 0 
L 0 -3 
" id="mfeeb08a2db" style="stroke:#000000;stroke-width:0.5;"/>
      </defs>
      <g>
       <use style="stroke:#000000;stroke-width:0.5;" x="53.964764" xlink:href="#mfeeb08a2db" y="126.84601"/>
      </g>
     </g>
     <g id="line2d_2">
      <defs>
       <path d="M 0 0 
L 0 3 
" id="m1eb55041b3" style="stroke:#000000;stroke-width:0.5;"/>
      </defs>
      <g>
       <use style="stroke:#000000;stroke-width:0.5;" x="53.964764" xlink:href="#m1eb55041b3" y="3.00024"/>
      </g>
     </g>
     <g id="text_1">
      <!-- $\mathdefault{0.0}$ -->
      <g transform="translate(46.284764 138.672885)scale(0.12 -0.12)">
       <defs>
        <path d="M 25 -2.203125 
Q 12.75 -2.203125 8.328125 7.875 
Q 3.90625 17.96875 3.90625 31.890625 
Q 3.90625 40.578125 5.484375 48.234375 
Q 7.078125 55.90625 11.78125 61.25 
Q 16.5 66.609375 25 66.609375 
Q 31.59375 66.609375 35.78125 63.375 
Q 39.984375 60.15625 42.1875 55.046875 
Q 44.390625 49.953125 45.1875 44.109375 
Q 46 38.28125 46 31.890625 
Q 46 23.296875 44.40625 15.796875 
Q 42.828125 8.296875 38.1875 3.046875 
Q 33.546875 -2.203125 25 -2.203125 
z
M 25 0.390625 
Q 30.5625 0.390625 33.296875 6.09375 
Q 36.03125 11.8125 36.671875 18.75 
Q 37.3125 25.6875 37.3125 33.5 
Q 37.3125 41.015625 36.671875 47.359375 
Q 36.03125 53.71875 33.3125 58.859375 
Q 30.609375 64.015625 25 64.015625 
Q 19.34375 64.015625 16.609375 58.828125 
Q 13.875 53.65625 13.234375 47.328125 
Q 12.59375 41.015625 12.59375 33.5 
Q 12.59375 27.9375 12.859375 23 
Q 13.140625 18.0625 14.3125 12.8125 
Q 15.484375 7.5625 18.09375 3.96875 
Q 20.703125 0.390625 25 0.390625 
z
" id="Cmr10-48"/>
        <path d="M 8.40625 5.515625 
Q 8.40625 7.765625 10.0625 9.375 
Q 11.71875 10.984375 13.921875 10.984375 
Q 15.28125 10.984375 16.59375 10.25 
Q 17.921875 9.515625 18.65625 8.203125 
Q 19.390625 6.890625 19.390625 5.515625 
Q 19.390625 3.328125 17.765625 1.65625 
Q 16.15625 0 13.921875 0 
Q 11.71875 0 10.0625 1.65625 
Q 8.40625 3.328125 8.40625 5.515625 
z
" id="Cmr10-46"/>
       </defs>
       <use transform="translate(0 0.390625)" xlink:href="#Cmr10-48"/>
       <use transform="translate(50 0.390625)" xlink:href="#Cmr10-46"/>
       <use transform="translate(77.685547 0.390625)" xlink:href="#Cmr10-48"/>
      </g>
     </g>
    </g>
    <g id="xtick_2">
     <g id="line2d_3">
      <g>
       <use style="stroke:#000000;stroke-width:0.5;" x="128.745065" xlink:href="#mfeeb08a2db" y="126.84601"/>
      </g>
     </g>
     <g id="line2d_4">
      <g>
       <use style="stroke:#000000;stroke-width:0.5;" x="128.745065" xlink:href="#m1eb55041b3" y="3.00024"/>
      </g>
     </g>
     <g id="text_2">
      <!-- $\mathdefault{2.5}$ -->
      <g transform="translate(121.065065 138.672885)scale(0.12 -0.12)">
       <defs>
        <path d="M 4.984375 0 
L 4.984375 2.6875 
Q 4.984375 2.9375 5.171875 3.21875 
L 20.703125 20.40625 
Q 24.21875 24.21875 26.40625 26.796875 
Q 28.609375 29.390625 30.75 32.765625 
Q 32.90625 36.140625 34.15625 39.625 
Q 35.40625 43.109375 35.40625 47.015625 
Q 35.40625 51.125 33.890625 54.859375 
Q 32.375 58.59375 29.375 60.84375 
Q 26.375 63.09375 22.125 63.09375 
Q 17.78125 63.09375 14.3125 60.46875 
Q 10.84375 57.859375 9.421875 53.71875 
Q 9.8125 53.8125 10.5 53.8125 
Q 12.75 53.8125 14.328125 52.296875 
Q 15.921875 50.78125 15.921875 48.390625 
Q 15.921875 46.09375 14.328125 44.5 
Q 12.75 42.921875 10.5 42.921875 
Q 8.15625 42.921875 6.5625 44.546875 
Q 4.984375 46.1875 4.984375 48.390625 
Q 4.984375 52.15625 6.390625 55.4375 
Q 7.8125 58.734375 10.46875 61.296875 
Q 13.140625 63.875 16.484375 65.234375 
Q 19.828125 66.609375 23.578125 66.609375 
Q 29.296875 66.609375 34.21875 64.1875 
Q 39.15625 61.765625 42.03125 57.34375 
Q 44.921875 52.9375 44.921875 47.015625 
Q 44.921875 42.671875 43.015625 38.765625 
Q 41.109375 34.859375 38.125 31.65625 
Q 35.15625 28.46875 30.515625 24.40625 
Q 25.875 20.359375 24.421875 19 
L 13.09375 8.109375 
L 22.703125 8.109375 
Q 29.78125 8.109375 34.546875 8.21875 
Q 39.3125 8.34375 39.59375 8.59375 
Q 40.765625 9.859375 42 17.828125 
L 44.921875 17.828125 
L 42.09375 0 
z
" id="Cmr10-50"/>
        <path d="M 8.6875 11.375 
Q 9.71875 8.453125 11.84375 6.046875 
Q 13.96875 3.65625 16.875 2.3125 
Q 19.78125 0.984375 22.90625 0.984375 
Q 30.125 0.984375 32.859375 6.59375 
Q 35.59375 12.203125 35.59375 20.21875 
Q 35.59375 23.6875 35.46875 26.046875 
Q 35.359375 28.421875 34.8125 30.609375 
Q 33.890625 34.125 31.5625 36.765625 
Q 29.25 39.40625 25.875 39.40625 
Q 22.515625 39.40625 20.09375 38.375 
Q 17.671875 37.359375 16.15625 35.984375 
Q 14.65625 34.625 13.484375 33.109375 
Q 12.3125 31.59375 12.015625 31.5 
L 10.890625 31.5 
Q 10.640625 31.5 10.265625 31.8125 
Q 9.90625 32.125 9.90625 32.421875 
L 9.90625 65.828125 
Q 9.90625 66.0625 10.21875 66.328125 
Q 10.546875 66.609375 10.890625 66.609375 
L 11.1875 66.609375 
Q 17.921875 63.375 25.484375 63.375 
Q 32.90625 63.375 39.796875 66.609375 
L 40.09375 66.609375 
Q 40.4375 66.609375 40.71875 66.359375 
Q 41.015625 66.109375 41.015625 65.828125 
L 41.015625 64.890625 
Q 41.015625 64.40625 40.828125 64.40625 
Q 37.40625 59.859375 32.25 57.3125 
Q 27.09375 54.78125 21.578125 54.78125 
Q 17.578125 54.78125 13.375 55.90625 
L 13.375 37.015625 
Q 16.703125 39.703125 19.3125 40.84375 
Q 21.921875 42 25.984375 42 
Q 31.5 42 35.859375 38.8125 
Q 40.234375 35.640625 42.578125 30.53125 
Q 44.921875 25.4375 44.921875 20.125 
Q 44.921875 14.109375 41.96875 8.984375 
Q 39.015625 3.859375 33.9375 0.828125 
Q 28.859375 -2.203125 22.90625 -2.203125 
Q 17.96875 -2.203125 13.84375 0.328125 
Q 9.71875 2.875 7.34375 7.171875 
Q 4.984375 11.46875 4.984375 16.3125 
Q 4.984375 18.5625 6.4375 19.96875 
Q 7.90625 21.390625 10.109375 21.390625 
Q 12.3125 21.390625 13.796875 19.9375 
Q 15.28125 18.5 15.28125 16.3125 
Q 15.28125 14.15625 13.796875 12.671875 
Q 12.3125 11.1875 10.109375 11.1875 
Q 9.765625 11.1875 9.328125 11.25 
Q 8.890625 11.328125 8.6875 11.375 
z
" id="Cmr10-53"/>
       </defs>
       <use transform="translate(0 0.390625)" xlink:href="#Cmr10-50"/>
       <use transform="translate(50 0.390625)" xlink:href="#Cmr10-46"/>
       <use transform="translate(77.685547 0.390625)" xlink:href="#Cmr10-53"/>
      </g>
     </g>
    </g>
    <g id="xtick_3">
     <g id="line2d_5">
      <g>
       <use style="stroke:#000000;stroke-width:0.5;" x="203.525367" xlink:href="#mfeeb08a2db" y="126.84601"/>
      </g>
     </g>
     <g id="line2d_6">
      <g>
       <use style="stroke:#000000;stroke-width:0.5;" x="203.525367" xlink:href="#m1eb55041b3" y="3.00024"/>
      </g>
     </g>
     <g id="text_3">
      <!-- $\mathdefault{5.0}$ -->
      <g transform="translate(195.845367 138.672885)scale(0.12 -0.12)">
       <use transform="translate(0 0.390625)" xlink:href="#Cmr10-53"/>
       <use transform="translate(50 0.390625)" xlink:href="#Cmr10-46"/>
       <use transform="translate(77.685547 0.390625)" xlink:href="#Cmr10-48"/>
      </g>
     </g>
    </g>
    <g id="xtick_4">
     <g id="line2d_7">
      <g>
       <use style="stroke:#000000;stroke-width:0.5;" x="278.305668" xlink:href="#mfeeb08a2db" y="126.84601"/>
      </g>
     </g>
     <g id="line2d_8">
      <g>
       <use style="stroke:#000000;stroke-width:0.5;" x="278.305668" xlink:href="#m1eb55041b3" y="3.00024"/>
      </g>
     </g>
     <g id="text_4">
      <!-- $\mathdefault{7.5}$ -->
      <g transform="translate(270.625668 138.672885)scale(0.12 -0.12)">
       <defs>
        <path d="M 17.390625 2.59375 
Q 17.390625 8.15625 18.359375 13.46875 
Q 19.34375 18.796875 21.21875 24 
Q 23.09375 29.203125 25.75 34.203125 
Q 28.421875 39.203125 31.59375 43.609375 
L 40.71875 56.296875 
L 29.296875 56.296875 
Q 11.53125 56.296875 10.984375 55.8125 
Q 9.671875 54.203125 8.5 46.578125 
L 5.609375 46.578125 
L 8.890625 67.578125 
L 11.8125 67.578125 
L 11.8125 67.28125 
Q 11.8125 65.484375 17.921875 64.9375 
Q 24.03125 64.40625 29.890625 64.40625 
L 48.484375 64.40625 
L 48.484375 61.8125 
Q 48.484375 61.71875 48.453125 61.671875 
Q 48.4375 61.625 48.390625 61.53125 
L 34.625 42.1875 
Q 29.546875 34.671875 28.265625 25.484375 
Q 27 16.3125 27 2.59375 
Q 27 0.640625 25.578125 -0.78125 
Q 24.171875 -2.203125 22.21875 -2.203125 
Q 20.21875 -2.203125 18.796875 -0.78125 
Q 17.390625 0.640625 17.390625 2.59375 
z
" id="Cmr10-55"/>
       </defs>
       <use transform="translate(0 0.421875)" xlink:href="#Cmr10-55"/>
       <use transform="translate(50 0.421875)" xlink:href="#Cmr10-46"/>
       <use transform="translate(77.685547 0.421875)" xlink:href="#Cmr10-53"/>
      </g>
     </g>
    </g>
    <g id="xtick_5">
     <g id="line2d_9">
      <g>
       <use style="stroke:#000000;stroke-width:0.5;" x="353.085969" xlink:href="#mfeeb08a2db" y="126.84601"/>
      </g>
     </g>
     <g id="line2d_10">
      <g>
       <use style="stroke:#000000;stroke-width:0.5;" x="353.085969" xlink:href="#m1eb55041b3" y="3.00024"/>
      </g>
     </g>
     <g id="text_5">
      <!-- $\mathdefault{10.0}$ -->
      <g transform="translate(342.405969 138.672885)scale(0.12 -0.12)">
       <defs>
        <path d="M 9.28125 0 
L 9.28125 3.515625 
Q 21.78125 3.515625 21.78125 6.6875 
L 21.78125 59.1875 
Q 16.609375 56.6875 8.6875 56.6875 
L 8.6875 60.203125 
Q 20.953125 60.203125 27.203125 66.609375 
L 28.609375 66.609375 
Q 28.953125 66.609375 29.265625 66.328125 
Q 29.59375 66.0625 29.59375 65.71875 
L 29.59375 6.6875 
Q 29.59375 3.515625 42.09375 3.515625 
L 42.09375 0 
z
" id="Cmr10-49"/>
       </defs>
       <use transform="translate(0 0.390625)" xlink:href="#Cmr10-49"/>
       <use transform="translate(50 0.390625)" xlink:href="#Cmr10-48"/>
       <use transform="translate(100 0.390625)" xlink:href="#Cmr10-46"/>
       <use transform="translate(127.685547 0.390625)" xlink:href="#Cmr10-48"/>
      </g>
     </g>
    </g>
    <g id="xtick_6">
     <g id="line2d_11">
      <g>
       <use style="stroke:#000000;stroke-width:0.5;" x="427.866271" xlink:href="#mfeeb08a2db" y="126.84601"/>
      </g>
     </g>
     <g id="line2d_12">
      <g>
       <use style="stroke:#000000;stroke-width:0.5;" x="427.866271" xlink:href="#m1eb55041b3" y="3.00024"/>
      </g>
     </g>
     <g id="text_6">
      <!-- $\mathdefault{12.5}$ -->
      <g transform="translate(417.186271 138.672885)scale(0.12 -0.12)">
       <use transform="translate(0 0.390625)" xlink:href="#Cmr10-49"/>
       <use transform="translate(50 0.390625)" xlink:href="#Cmr10-50"/>
       <use transform="translate(100 0.390625)" xlink:href="#Cmr10-46"/>
       <use transform="translate(127.685547 0.390625)" xlink:href="#Cmr10-53"/>
      </g>
     </g>
    </g>
    <g id="xtick_7">
     <g id="line2d_13">
      <g>
       <use style="stroke:#000000;stroke-width:0.5;" x="502.646572" xlink:href="#mfeeb08a2db" y="126.84601"/>
      </g>
     </g>
     <g id="line2d_14">
      <g>
       <use style="stroke:#000000;stroke-width:0.5;" x="502.646572" xlink:href="#m1eb55041b3" y="3.00024"/>
      </g>
     </g>
     <g id="text_7">
      <!-- $\mathdefault{15.0}$ -->
      <g transform="translate(491.966572 138.672885)scale(0.12 -0.12)">
       <use transform="translate(0 0.390625)" xlink:href="#Cmr10-49"/>
       <use transform="translate(50 0.390625)" xlink:href="#Cmr10-53"/>
       <use transform="translate(100 0.390625)" xlink:href="#Cmr10-46"/>
       <use transform="translate(127.685547 0.390625)" xlink:href="#Cmr10-48"/>
      </g>
     </g>
    </g>
    <g id="xtick_8">
     <g id="line2d_15">
      <g>
       <use style="stroke:#000000;stroke-width:0.5;" x="577.426874" xlink:href="#mfeeb08a2db" y="126.84601"/>
      </g>
     </g>
     <g id="line2d_16">
      <g>
       <use style="stroke:#000000;stroke-width:0.5;" x="577.426874" xlink:href="#m1eb55041b3" y="3.00024"/>
      </g>
     </g>
     <g id="text_8">
      <!-- $\mathdefault{17.5}$ -->
      <g transform="translate(566.746874 138.672885)scale(0.12 -0.12)">
       <use transform="translate(0 0.421875)" xlink:href="#Cmr10-49"/>
       <use transform="translate(50 0.421875)" xlink:href="#Cmr10-55"/>
       <use transform="translate(100 0.421875)" xlink:href="#Cmr10-46"/>
       <use transform="translate(127.685547 0.421875)" xlink:href="#Cmr10-53"/>
      </g>
     </g>
    </g>
    <g id="xtick_9">
     <g id="line2d_17">
      <defs>
       <path d="M 0 0 
L 0 -1.5 
" id="mcb59a17053" style="stroke:#000000;stroke-width:0.5;"/>
      </defs>
      <g>
       <use style="stroke:#000000;stroke-width:0.5;" x="39.008703" xlink:href="#mcb59a17053" y="126.84601"/>
      </g>
     </g>
     <g id="line2d_18">
      <defs>
       <path d="M 0 0 
L 0 1.5 
" id="m5e42e6dc37" style="stroke:#000000;stroke-width:0.5;"/>
      </defs>
      <g>
       <use style="stroke:#000000;stroke-width:0.5;" x="39.008703" xlink:href="#m5e42e6dc37" y="3.00024"/>
      </g>
     </g>
    </g>
    <g id="xtick_10">
     <g id="line2d_19">
      <g>
       <use style="stroke:#000000;stroke-width:0.5;" x="68.920824" xlink:href="#mcb59a17053" y="126.84601"/>
      </g>
     </g>
     <g id="line2d_20">
      <g>
       <use style="stroke:#000000;stroke-width:0.5;" x="68.920824" xlink:href="#m5e42e6dc37" y="3.00024"/>
      </g>
     </g>
    </g>
    <g id="xtick_11">
     <g id="line2d_21">
      <g>
       <use style="stroke:#000000;stroke-width:0.5;" x="83.876884" xlink:href="#mcb59a17053" y="126.84601"/>
      </g>
     </g>
     <g id="line2d_22">
      <g>
       <use style="stroke:#000000;stroke-width:0.5;" x="83.876884" xlink:href="#m5e42e6dc37" y="3.00024"/>
      </g>
     </g>
    </g>
    <g id="xtick_12">
     <g id="line2d_23">
      <g>
       <use style="stroke:#000000;stroke-width:0.5;" x="98.832945" xlink:href="#mcb59a17053" y="126.84601"/>
      </g>
     </g>
     <g id="line2d_24">
      <g>
       <use style="stroke:#000000;stroke-width:0.5;" x="98.832945" xlink:href="#m5e42e6dc37" y="3.00024"/>
      </g>
     </g>
    </g>
    <g id="xtick_13">
     <g id="line2d_25">
      <g>
       <use style="stroke:#000000;stroke-width:0.5;" x="113.789005" xlink:href="#mcb59a17053" y="126.84601"/>
      </g>
     </g>
     <g id="line2d_26">
      <g>
       <use style="stroke:#000000;stroke-width:0.5;" x="113.789005" xlink:href="#m5e42e6dc37" y="3.00024"/>
      </g>
     </g>
    </g>
    <g id="xtick_14">
     <g id="line2d_27">
      <g>
       <use style="stroke:#000000;stroke-width:0.5;" x="143.701125" xlink:href="#mcb59a17053" y="126.84601"/>
      </g>
     </g>
     <g id="line2d_28">
      <g>
       <use style="stroke:#000000;stroke-width:0.5;" x="143.701125" xlink:href="#m5e42e6dc37" y="3.00024"/>
      </g>
     </g>
    </g>
    <g id="xtick_15">
     <g id="line2d_29">
      <g>
       <use style="stroke:#000000;stroke-width:0.5;" x="158.657186" xlink:href="#mcb59a17053" y="126.84601"/>
      </g>
     </g>
     <g id="line2d_30">
      <g>
       <use style="stroke:#000000;stroke-width:0.5;" x="158.657186" xlink:href="#m5e42e6dc37" y="3.00024"/>
      </g>
     </g>
    </g>
    <g id="xtick_16">
     <g id="line2d_31">
      <g>
       <use style="stroke:#000000;stroke-width:0.5;" x="173.613246" xlink:href="#mcb59a17053" y="126.84601"/>
      </g>
     </g>
     <g id="line2d_32">
      <g>
       <use style="stroke:#000000;stroke-width:0.5;" x="173.613246" xlink:href="#m5e42e6dc37" y="3.00024"/>
      </g>
     </g>
    </g>
    <g id="xtick_17">
     <g id="line2d_33">
      <g>
       <use style="stroke:#000000;stroke-width:0.5;" x="188.569306" xlink:href="#mcb59a17053" y="126.84601"/>
      </g>
     </g>
     <g id="line2d_34">
      <g>
       <use style="stroke:#000000;stroke-width:0.5;" x="188.569306" xlink:href="#m5e42e6dc37" y="3.00024"/>
      </g>
     </g>
    </g>
    <g id="xtick_18">
     <g id="line2d_35">
      <g>
       <use style="stroke:#000000;stroke-width:0.5;" x="218.481427" xlink:href="#mcb59a17053" y="126.84601"/>
      </g>
     </g>
     <g id="line2d_36">
      <g>
       <use style="stroke:#000000;stroke-width:0.5;" x="218.481427" xlink:href="#m5e42e6dc37" y="3.00024"/>
      </g>
     </g>
    </g>
    <g id="xtick_19">
     <g id="line2d_37">
      <g>
       <use style="stroke:#000000;stroke-width:0.5;" x="233.437487" xlink:href="#mcb59a17053" y="126.84601"/>
      </g>
     </g>
     <g id="line2d_38">
      <g>
       <use style="stroke:#000000;stroke-width:0.5;" x="233.437487" xlink:href="#m5e42e6dc37" y="3.00024"/>
      </g>
     </g>
    </g>
    <g id="xtick_20">
     <g id="line2d_39">
      <g>
       <use style="stroke:#000000;stroke-width:0.5;" x="248.393547" xlink:href="#mcb59a17053" y="126.84601"/>
      </g>
     </g>
     <g id="line2d_40">
      <g>
       <use style="stroke:#000000;stroke-width:0.5;" x="248.393547" xlink:href="#m5e42e6dc37" y="3.00024"/>
      </g>
     </g>
    </g>
    <g id="xtick_21">
     <g id="line2d_41">
      <g>
       <use style="stroke:#000000;stroke-width:0.5;" x="263.349608" xlink:href="#mcb59a17053" y="126.84601"/>
      </g>
     </g>
     <g id="line2d_42">
      <g>
       <use style="stroke:#000000;stroke-width:0.5;" x="263.349608" xlink:href="#m5e42e6dc37" y="3.00024"/>
      </g>
     </g>
    </g>
    <g id="xtick_22">
     <g id="line2d_43">
      <g>
       <use style="stroke:#000000;stroke-width:0.5;" x="293.261728" xlink:href="#mcb59a17053" y="126.84601"/>
      </g>
     </g>
     <g id="line2d_44">
      <g>
       <use style="stroke:#000000;stroke-width:0.5;" x="293.261728" xlink:href="#m5e42e6dc37" y="3.00024"/>
      </g>
     </g>
    </g>
    <g id="xtick_23">
     <g id="line2d_45">
      <g>
       <use style="stroke:#000000;stroke-width:0.5;" x="308.217789" xlink:href="#mcb59a17053" y="126.84601"/>
      </g>
     </g>
     <g id="line2d_46">
      <g>
       <use style="stroke:#000000;stroke-width:0.5;" x="308.217789" xlink:href="#m5e42e6dc37" y="3.00024"/>
      </g>
     </g>
    </g>
    <g id="xtick_24">
     <g id="line2d_47">
      <g>
       <use style="stroke:#000000;stroke-width:0.5;" x="323.173849" xlink:href="#mcb59a17053" y="126.84601"/>
      </g>
     </g>
     <g id="line2d_48">
      <g>
       <use style="stroke:#000000;stroke-width:0.5;" x="323.173849" xlink:href="#m5e42e6dc37" y="3.00024"/>
      </g>
     </g>
    </g>
    <g id="xtick_25">
     <g id="line2d_49">
      <g>
       <use style="stroke:#000000;stroke-width:0.5;" x="338.129909" xlink:href="#mcb59a17053" y="126.84601"/>
      </g>
     </g>
     <g id="line2d_50">
      <g>
       <use style="stroke:#000000;stroke-width:0.5;" x="338.129909" xlink:href="#m5e42e6dc37" y="3.00024"/>
      </g>
     </g>
    </g>
    <g id="xtick_26">
     <g id="line2d_51">
      <g>
       <use style="stroke:#000000;stroke-width:0.5;" x="368.04203" xlink:href="#mcb59a17053" y="126.84601"/>
      </g>
     </g>
     <g id="line2d_52">
      <g>
       <use style="stroke:#000000;stroke-width:0.5;" x="368.04203" xlink:href="#m5e42e6dc37" y="3.00024"/>
      </g>
     </g>
    </g>
    <g id="xtick_27">
     <g id="line2d_53">
      <g>
       <use style="stroke:#000000;stroke-width:0.5;" x="382.99809" xlink:href="#mcb59a17053" y="126.84601"/>
      </g>
     </g>
     <g id="line2d_54">
      <g>
       <use style="stroke:#000000;stroke-width:0.5;" x="382.99809" xlink:href="#m5e42e6dc37" y="3.00024"/>
      </g>
     </g>
    </g>
    <g id="xtick_28">
     <g id="line2d_55">
      <g>
       <use style="stroke:#000000;stroke-width:0.5;" x="397.95415" xlink:href="#mcb59a17053" y="126.84601"/>
      </g>
     </g>
     <g id="line2d_56">
      <g>
       <use style="stroke:#000000;stroke-width:0.5;" x="397.95415" xlink:href="#m5e42e6dc37" y="3.00024"/>
      </g>
     </g>
    </g>
    <g id="xtick_29">
     <g id="line2d_57">
      <g>
       <use style="stroke:#000000;stroke-width:0.5;" x="412.910211" xlink:href="#mcb59a17053" y="126.84601"/>
      </g>
     </g>
     <g id="line2d_58">
      <g>
       <use style="stroke:#000000;stroke-width:0.5;" x="412.910211" xlink:href="#m5e42e6dc37" y="3.00024"/>
      </g>
     </g>
    </g>
    <g id="xtick_30">
     <g id="line2d_59">
      <g>
       <use style="stroke:#000000;stroke-width:0.5;" x="442.822331" xlink:href="#mcb59a17053" y="126.84601"/>
      </g>
     </g>
     <g id="line2d_60">
      <g>
       <use style="stroke:#000000;stroke-width:0.5;" x="442.822331" xlink:href="#m5e42e6dc37" y="3.00024"/>
      </g>
     </g>
    </g>
    <g id="xtick_31">
     <g id="line2d_61">
      <g>
       <use style="stroke:#000000;stroke-width:0.5;" x="457.778392" xlink:href="#mcb59a17053" y="126.84601"/>
      </g>
     </g>
     <g id="line2d_62">
      <g>
       <use style="stroke:#000000;stroke-width:0.5;" x="457.778392" xlink:href="#m5e42e6dc37" y="3.00024"/>
      </g>
     </g>
    </g>
    <g id="xtick_32">
     <g id="line2d_63">
      <g>
       <use style="stroke:#000000;stroke-width:0.5;" x="472.734452" xlink:href="#mcb59a17053" y="126.84601"/>
      </g>
     </g>
     <g id="line2d_64">
      <g>
       <use style="stroke:#000000;stroke-width:0.5;" x="472.734452" xlink:href="#m5e42e6dc37" y="3.00024"/>
      </g>
     </g>
    </g>
    <g id="xtick_33">
     <g id="line2d_65">
      <g>
       <use style="stroke:#000000;stroke-width:0.5;" x="487.690512" xlink:href="#mcb59a17053" y="126.84601"/>
      </g>
     </g>
     <g id="line2d_66">
      <g>
       <use style="stroke:#000000;stroke-width:0.5;" x="487.690512" xlink:href="#m5e42e6dc37" y="3.00024"/>
      </g>
     </g>
    </g>
    <g id="xtick_34">
     <g id="line2d_67">
      <g>
       <use style="stroke:#000000;stroke-width:0.5;" x="517.602633" xlink:href="#mcb59a17053" y="126.84601"/>
      </g>
     </g>
     <g id="line2d_68">
      <g>
       <use style="stroke:#000000;stroke-width:0.5;" x="517.602633" xlink:href="#m5e42e6dc37" y="3.00024"/>
      </g>
     </g>
    </g>
    <g id="xtick_35">
     <g id="line2d_69">
      <g>
       <use style="stroke:#000000;stroke-width:0.5;" x="532.558693" xlink:href="#mcb59a17053" y="126.84601"/>
      </g>
     </g>
     <g id="line2d_70">
      <g>
       <use style="stroke:#000000;stroke-width:0.5;" x="532.558693" xlink:href="#m5e42e6dc37" y="3.00024"/>
      </g>
     </g>
    </g>
    <g id="xtick_36">
     <g id="line2d_71">
      <g>
       <use style="stroke:#000000;stroke-width:0.5;" x="547.514753" xlink:href="#mcb59a17053" y="126.84601"/>
      </g>
     </g>
     <g id="line2d_72">
      <g>
       <use style="stroke:#000000;stroke-width:0.5;" x="547.514753" xlink:href="#m5e42e6dc37" y="3.00024"/>
      </g>
     </g>
    </g>
    <g id="xtick_37">
     <g id="line2d_73">
      <g>
       <use style="stroke:#000000;stroke-width:0.5;" x="562.470814" xlink:href="#mcb59a17053" y="126.84601"/>
      </g>
     </g>
     <g id="line2d_74">
      <g>
       <use style="stroke:#000000;stroke-width:0.5;" x="562.470814" xlink:href="#m5e42e6dc37" y="3.00024"/>
      </g>
     </g>
    </g>
    <g id="xtick_38">
     <g id="line2d_75">
      <g>
       <use style="stroke:#000000;stroke-width:0.5;" x="592.382934" xlink:href="#mcb59a17053" y="126.84601"/>
      </g>
     </g>
     <g id="line2d_76">
      <g>
       <use style="stroke:#000000;stroke-width:0.5;" x="592.382934" xlink:href="#m5e42e6dc37" y="3.00024"/>
      </g>
     </g>
    </g>
    <g id="xtick_39">
     <g id="line2d_77">
      <g>
       <use style="stroke:#000000;stroke-width:0.5;" x="607.338994" xlink:href="#mcb59a17053" y="126.84601"/>
      </g>
     </g>
     <g id="line2d_78">
      <g>
       <use style="stroke:#000000;stroke-width:0.5;" x="607.338994" xlink:href="#m5e42e6dc37" y="3.00024"/>
      </g>
     </g>
    </g>
    <g id="xtick_40">
     <g id="line2d_79">
      <g>
       <use style="stroke:#000000;stroke-width:0.5;" x="622.295055" xlink:href="#mcb59a17053" y="126.84601"/>
      </g>
     </g>
     <g id="line2d_80">
      <g>
       <use style="stroke:#000000;stroke-width:0.5;" x="622.295055" xlink:href="#m5e42e6dc37" y="3.00024"/>
      </g>
     </g>
    </g>
    <g id="xtick_41">
     <g id="line2d_81">
      <g>
       <use style="stroke:#000000;stroke-width:0.5;" x="637.251115" xlink:href="#mcb59a17053" y="126.84601"/>
      </g>
     </g>
     <g id="line2d_82">
      <g>
       <use style="stroke:#000000;stroke-width:0.5;" x="637.251115" xlink:href="#m5e42e6dc37" y="3.00024"/>
      </g>
     </g>
    </g>
   </g>
   <g id="matplotlib.axis_2">
    <g id="ytick_1">
     <g id="line2d_83">
      <defs>
       <path d="M 0 0 
L 3 0 
" id="m62953aa6bc" style="stroke:#000000;stroke-width:0.5;"/>
      </defs>
      <g>
       <use style="stroke:#000000;stroke-width:0.5;" x="25.82024" xlink:href="#m62953aa6bc" y="121.216657"/>
      </g>
     </g>
     <g id="line2d_84">
      <defs>
       <path d="M 0 0 
L -3 0 
" id="ma619475dee" style="stroke:#000000;stroke-width:0.5;"/>
      </defs>
      <g>
       <use style="stroke:#000000;stroke-width:0.5;" x="644.99976" xlink:href="#ma619475dee" y="121.216657"/>
      </g>
     </g>
     <g id="text_9">
      <!-- $\mathdefault{-1.0}$ -->
      <g transform="translate(3.00024 125.380094)scale(0.12 -0.12)">
       <defs>
        <path d="M 1.125 18.5 
L 1.125 24.703125 
L 27.59375 24.703125 
L 27.59375 18.5 
z
" id="Cmr10-45"/>
       </defs>
       <use transform="translate(0 0.390625)" xlink:href="#Cmr10-45"/>
       <use transform="translate(33.300781 0.390625)" xlink:href="#Cmr10-49"/>
       <use transform="translate(83.300781 0.390625)" xlink:href="#Cmr10-46"/>
       <use transform="translate(110.986328 0.390625)" xlink:href="#Cmr10-48"/>
      </g>
     </g>
    </g>
    <g id="ytick_2">
     <g id="line2d_85">
      <g>
       <use style="stroke:#000000;stroke-width:0.5;" x="25.82024" xlink:href="#m62953aa6bc" y="93.069891"/>
      </g>
     </g>
     <g id="line2d_86">
      <g>
       <use style="stroke:#000000;stroke-width:0.5;" x="644.99976" xlink:href="#ma619475dee" y="93.069891"/>
      </g>
     </g>
     <g id="text_10">
      <!-- $\mathdefault{-0.5}$ -->
      <g transform="translate(3.00024 97.233328)scale(0.12 -0.12)">
       <use transform="translate(0 0.390625)" xlink:href="#Cmr10-45"/>
       <use transform="translate(33.300781 0.390625)" xlink:href="#Cmr10-48"/>
       <use transform="translate(83.300781 0.390625)" xlink:href="#Cmr10-46"/>
       <use transform="translate(110.986328 0.390625)" xlink:href="#Cmr10-53"/>
      </g>
     </g>
    </g>
    <g id="ytick_3">
     <g id="line2d_87">
      <g>
       <use style="stroke:#000000;stroke-width:0.5;" x="25.82024" xlink:href="#m62953aa6bc" y="64.923125"/>
      </g>
     </g>
     <g id="line2d_88">
      <g>
       <use style="stroke:#000000;stroke-width:0.5;" x="644.99976" xlink:href="#ma619475dee" y="64.923125"/>
      </g>
     </g>
     <g id="text_11">
      <!-- $\mathdefault{0.0}$ -->
      <g transform="translate(6.96024 69.086562)scale(0.12 -0.12)">
       <use transform="translate(0 0.390625)" xlink:href="#Cmr10-48"/>
       <use transform="translate(50 0.390625)" xlink:href="#Cmr10-46"/>
       <use transform="translate(77.685547 0.390625)" xlink:href="#Cmr10-48"/>
      </g>
     </g>
    </g>
    <g id="ytick_4">
     <g id="line2d_89">
      <g>
       <use style="stroke:#000000;stroke-width:0.5;" x="25.82024" xlink:href="#m62953aa6bc" y="36.776359"/>
      </g>
     </g>
     <g id="line2d_90">
      <g>
       <use style="stroke:#000000;stroke-width:0.5;" x="644.99976" xlink:href="#ma619475dee" y="36.776359"/>
      </g>
     </g>
     <g id="text_12">
      <!-- $\mathdefault{0.5}$ -->
      <g transform="translate(6.96024 40.939797)scale(0.12 -0.12)">
       <use transform="translate(0 0.390625)" xlink:href="#Cmr10-48"/>
       <use transform="translate(50 0.390625)" xlink:href="#Cmr10-46"/>
       <use transform="translate(77.685547 0.390625)" xlink:href="#Cmr10-53"/>
      </g>
     </g>
    </g>
    <g id="ytick_5">
     <g id="line2d_91">
      <g>
       <use style="stroke:#000000;stroke-width:0.5;" x="25.82024" xlink:href="#m62953aa6bc" y="8.629593"/>
      </g>
     </g>
     <g id="line2d_92">
      <g>
       <use style="stroke:#000000;stroke-width:0.5;" x="644.99976" xlink:href="#ma619475dee" y="8.629593"/>
      </g>
     </g>
     <g id="text_13">
      <!-- $\mathdefault{1.0}$ -->
      <g transform="translate(6.96024 12.793031)scale(0.12 -0.12)">
       <use transform="translate(0 0.390625)" xlink:href="#Cmr10-49"/>
       <use transform="translate(50 0.390625)" xlink:href="#Cmr10-46"/>
       <use transform="translate(77.685547 0.390625)" xlink:href="#Cmr10-48"/>
      </g>
     </g>
    </g>
    <g id="ytick_6">
     <g id="line2d_93">
      <defs>
       <path d="M 0 0 
L 1.5 0 
" id="m7aa3731518" style="stroke:#000000;stroke-width:0.5;"/>
      </defs>
      <g>
       <use style="stroke:#000000;stroke-width:0.5;" x="25.82024" xlink:href="#m7aa3731518" y="126.84601"/>
      </g>
     </g>
     <g id="line2d_94">
      <defs>
       <path d="M 0 0 
L -1.5 0 
" id="mfedca8fc9a" style="stroke:#000000;stroke-width:0.5;"/>
      </defs>
      <g>
       <use style="stroke:#000000;stroke-width:0.5;" x="644.99976" xlink:href="#mfedca8fc9a" y="126.84601"/>
      </g>
     </g>
    </g>
    <g id="ytick_7">
     <g id="line2d_95">
      <g>
       <use style="stroke:#000000;stroke-width:0.5;" x="25.82024" xlink:href="#m7aa3731518" y="115.587304"/>
      </g>
     </g>
     <g id="line2d_96">
      <g>
       <use style="stroke:#000000;stroke-width:0.5;" x="644.99976" xlink:href="#mfedca8fc9a" y="115.587304"/>
      </g>
     </g>
    </g>
    <g id="ytick_8">
     <g id="line2d_97">
      <g>
       <use style="stroke:#000000;stroke-width:0.5;" x="25.82024" xlink:href="#m7aa3731518" y="109.95795"/>
      </g>
     </g>
     <g id="line2d_98">
      <g>
       <use style="stroke:#000000;stroke-width:0.5;" x="644.99976" xlink:href="#mfedca8fc9a" y="109.95795"/>
      </g>
     </g>
    </g>
    <g id="ytick_9">
     <g id="line2d_99">
      <g>
       <use style="stroke:#000000;stroke-width:0.5;" x="25.82024" xlink:href="#m7aa3731518" y="104.328597"/>
      </g>
     </g>
     <g id="line2d_100">
      <g>
       <use style="stroke:#000000;stroke-width:0.5;" x="644.99976" xlink:href="#mfedca8fc9a" y="104.328597"/>
      </g>
     </g>
    </g>
    <g id="ytick_10">
     <g id="line2d_101">
      <g>
       <use style="stroke:#000000;stroke-width:0.5;" x="25.82024" xlink:href="#m7aa3731518" y="98.699244"/>
      </g>
     </g>
     <g id="line2d_102">
      <g>
       <use style="stroke:#000000;stroke-width:0.5;" x="644.99976" xlink:href="#mfedca8fc9a" y="98.699244"/>
      </g>
     </g>
    </g>
    <g id="ytick_11">
     <g id="line2d_103">
      <g>
       <use style="stroke:#000000;stroke-width:0.5;" x="25.82024" xlink:href="#m7aa3731518" y="87.440538"/>
      </g>
     </g>
     <g id="line2d_104">
      <g>
       <use style="stroke:#000000;stroke-width:0.5;" x="644.99976" xlink:href="#mfedca8fc9a" y="87.440538"/>
      </g>
     </g>
    </g>
    <g id="ytick_12">
     <g id="line2d_105">
      <g>
       <use style="stroke:#000000;stroke-width:0.5;" x="25.82024" xlink:href="#m7aa3731518" y="81.811185"/>
      </g>
     </g>
     <g id="line2d_106">
      <g>
       <use style="stroke:#000000;stroke-width:0.5;" x="644.99976" xlink:href="#mfedca8fc9a" y="81.811185"/>
      </g>
     </g>
    </g>
    <g id="ytick_13">
     <g id="line2d_107">
      <g>
       <use style="stroke:#000000;stroke-width:0.5;" x="25.82024" xlink:href="#m7aa3731518" y="76.181831"/>
      </g>
     </g>
     <g id="line2d_108">
      <g>
       <use style="stroke:#000000;stroke-width:0.5;" x="644.99976" xlink:href="#mfedca8fc9a" y="76.181831"/>
      </g>
     </g>
    </g>
    <g id="ytick_14">
     <g id="line2d_109">
      <g>
       <use style="stroke:#000000;stroke-width:0.5;" x="25.82024" xlink:href="#m7aa3731518" y="70.552478"/>
      </g>
     </g>
     <g id="line2d_110">
      <g>
       <use style="stroke:#000000;stroke-width:0.5;" x="644.99976" xlink:href="#mfedca8fc9a" y="70.552478"/>
      </g>
     </g>
    </g>
    <g id="ytick_15">
     <g id="line2d_111">
      <g>
       <use style="stroke:#000000;stroke-width:0.5;" x="25.82024" xlink:href="#m7aa3731518" y="59.293772"/>
      </g>
     </g>
     <g id="line2d_112">
      <g>
       <use style="stroke:#000000;stroke-width:0.5;" x="644.99976" xlink:href="#mfedca8fc9a" y="59.293772"/>
      </g>
     </g>
    </g>
    <g id="ytick_16">
     <g id="line2d_113">
      <g>
       <use style="stroke:#000000;stroke-width:0.5;" x="25.82024" xlink:href="#m7aa3731518" y="53.664419"/>
      </g>
     </g>
     <g id="line2d_114">
      <g>
       <use style="stroke:#000000;stroke-width:0.5;" x="644.99976" xlink:href="#mfedca8fc9a" y="53.664419"/>
      </g>
     </g>
    </g>
    <g id="ytick_17">
     <g id="line2d_115">
      <g>
       <use style="stroke:#000000;stroke-width:0.5;" x="25.82024" xlink:href="#m7aa3731518" y="48.035065"/>
      </g>
     </g>
     <g id="line2d_116">
      <g>
       <use style="stroke:#000000;stroke-width:0.5;" x="644.99976" xlink:href="#mfedca8fc9a" y="48.035065"/>
      </g>
     </g>
    </g>
    <g id="ytick_18">
     <g id="line2d_117">
      <g>
       <use style="stroke:#000000;stroke-width:0.5;" x="25.82024" xlink:href="#m7aa3731518" y="42.405712"/>
      </g>
     </g>
     <g id="line2d_118">
      <g>
       <use style="stroke:#000000;stroke-width:0.5;" x="644.99976" xlink:href="#mfedca8fc9a" y="42.405712"/>
      </g>
     </g>
    </g>
    <g id="ytick_19">
     <g id="line2d_119">
      <g>
       <use style="stroke:#000000;stroke-width:0.5;" x="25.82024" xlink:href="#m7aa3731518" y="31.147006"/>
      </g>
     </g>
     <g id="line2d_120">
      <g>
       <use style="stroke:#000000;stroke-width:0.5;" x="644.99976" xlink:href="#mfedca8fc9a" y="31.147006"/>
      </g>
     </g>
    </g>
    <g id="ytick_20">
     <g id="line2d_121">
      <g>
       <use style="stroke:#000000;stroke-width:0.5;" x="25.82024" xlink:href="#m7aa3731518" y="25.517653"/>
      </g>
     </g>
     <g id="line2d_122">
      <g>
       <use style="stroke:#000000;stroke-width:0.5;" x="644.99976" xlink:href="#mfedca8fc9a" y="25.517653"/>
      </g>
     </g>
    </g>
    <g id="ytick_21">
     <g id="line2d_123">
      <g>
       <use style="stroke:#000000;stroke-width:0.5;" x="25.82024" xlink:href="#m7aa3731518" y="19.8883"/>
      </g>
     </g>
     <g id="line2d_124">
      <g>
       <use style="stroke:#000000;stroke-width:0.5;" x="644.99976" xlink:href="#mfedca8fc9a" y="19.8883"/>
      </g>
     </g>
    </g>
    <g id="ytick_22">
     <g id="line2d_125">
      <g>
       <use style="stroke:#000000;stroke-width:0.5;" x="25.82024" xlink:href="#m7aa3731518" y="14.258946"/>
      </g>
     </g>
     <g id="line2d_126">
      <g>
       <use style="stroke:#000000;stroke-width:0.5;" x="644.99976" xlink:href="#mfedca8fc9a" y="14.258946"/>
      </g>
     </g>
    </g>
   </g>
   <g id="line2d_127">
    <path clip-path="url(#p974d14b8a5)" d="M 53.964764 64.923125 
L 62.422216 49.21773 
L 67.120801 40.954505 
L 70.879669 34.759542 
L 74.638537 29.040277 
L 77.457688 25.117587 
L 80.276839 21.548213 
L 83.09599 18.363838 
L 85.915141 15.592727 
L 87.794575 13.987215 
L 89.674009 12.582723 
L 91.553443 11.384795 
L 93.432877 10.398158 
L 95.312311 9.626706 
L 97.191745 9.073484 
L 99.071179 8.740676 
L 100.950613 8.629593 
L 102.830047 8.740676 
L 104.709481 9.073484 
L 106.588915 9.626706 
L 108.468349 10.398158 
L 110.347783 11.384795 
L 112.227217 12.582723 
L 114.106651 13.987215 
L 115.986085 15.592727 
L 118.805235 18.363838 
L 121.624386 21.548213 
L 124.443537 25.117587 
L 127.262688 29.040277 
L 130.081839 33.281466 
L 133.840707 39.366396 
L 137.599575 45.854371 
L 143.237877 56.116876 
L 159.213066 85.646156 
L 162.971934 92.042741 
L 166.730802 98.011633 
L 169.549953 102.150706 
L 172.369103 105.959344 
L 175.188254 109.403741 
L 178.007405 112.453326 
L 180.826556 115.081029 
L 182.70599 116.586774 
L 184.585424 117.888627 
L 186.464858 118.981448 
L 188.344292 119.860926 
L 190.223726 120.52359 
L 192.10316 120.966824 
L 193.982594 121.188879 
L 195.862028 121.188879 
L 197.741462 120.966824 
L 199.620896 120.52359 
L 201.50033 119.860926 
L 203.379764 118.981448 
L 205.259198 117.888627 
L 207.138632 116.586774 
L 209.018066 115.081029 
L 211.837217 112.453326 
L 214.656368 109.403741 
L 217.475519 105.959344 
L 220.29467 102.150706 
L 223.113821 98.011633 
L 226.872688 92.042741 
L 230.631556 85.646156 
L 235.330141 77.203179 
L 243.787594 61.388425 
L 250.365613 49.21773 
L 255.064198 40.954505 
L 258.823066 34.759542 
L 262.581934 29.040277 
L 265.401085 25.117587 
L 268.220236 21.548213 
L 271.039387 18.363838 
L 273.858538 15.592727 
L 275.737972 13.987215 
L 277.617406 12.582723 
L 279.49684 11.384795 
L 281.376273 10.398158 
L 283.255707 9.626706 
L 285.135141 9.073484 
L 287.014575 8.740676 
L 288.894009 8.629593 
L 290.773443 8.740676 
L 292.652877 9.073484 
L 294.532311 9.626706 
L 296.411745 10.398158 
L 298.291179 11.384795 
L 300.170613 12.582723 
L 302.050047 13.987215 
L 303.929481 15.592727 
L 306.748632 18.363838 
L 309.567783 21.548213 
L 312.386934 25.117587 
L 315.206085 29.040277 
L 318.025236 33.281466 
L 321.784104 39.366396 
L 325.542972 45.854371 
L 331.181274 56.116876 
L 347.156462 85.646156 
L 350.91533 92.042741 
L 354.674198 98.011633 
L 357.493349 102.150706 
L 360.3125 105.959344 
L 363.131651 109.403741 
L 365.950802 112.453326 
L 368.769953 115.081029 
L 370.649387 116.586774 
L 372.528821 117.888627 
L 374.408255 118.981448 
L 376.287689 119.860926 
L 378.167123 120.52359 
L 380.046557 120.966824 
L 381.925991 121.188879 
L 383.805425 121.188879 
L 385.684859 120.966824 
L 387.564293 120.52359 
L 389.443727 119.860926 
L 391.32316 118.981448 
L 393.202594 117.888627 
L 395.082028 116.586774 
L 396.961462 115.081029 
L 399.780613 112.453326 
L 402.599764 109.403741 
L 405.418915 105.959344 
L 408.238066 102.150706 
L 411.057217 98.011633 
L 414.816085 92.042741 
L 418.574953 85.646156 
L 423.273538 77.203179 
L 431.730991 61.388425 
L 438.30901 49.21773 
L 443.007595 40.954505 
L 446.766462 34.759542 
L 450.52533 29.040277 
L 453.344481 25.117587 
L 456.163632 21.548213 
L 458.982783 18.363838 
L 461.801934 15.592727 
L 463.681368 13.987215 
L 465.560802 12.582723 
L 467.440236 11.384795 
L 469.31967 10.398158 
L 471.199104 9.626706 
L 473.078538 9.073484 
L 474.957972 8.740676 
L 476.837406 8.629593 
L 478.71684 8.740676 
L 480.596274 9.073484 
L 482.475708 9.626706 
L 484.355142 10.398158 
L 486.234576 11.384795 
L 488.11401 12.582723 
L 489.993444 13.987215 
L 491.872878 15.592727 
L 494.692029 18.363838 
L 497.51118 21.548213 
L 500.33033 25.117587 
L 503.149481 29.040277 
L 505.968632 33.281466 
L 509.7275 39.366396 
L 513.486368 45.854371 
L 519.12467 56.116876 
L 535.099859 85.646156 
L 538.858727 92.042741 
L 542.617595 98.011633 
L 545.436746 102.150706 
L 548.255897 105.959344 
L 551.075048 109.403741 
L 553.894199 112.453326 
L 556.713349 115.081029 
L 558.592783 116.586774 
L 560.472217 117.888627 
L 562.351651 118.981448 
L 564.231085 119.860926 
L 566.110519 120.52359 
L 567.989953 120.966824 
L 569.869387 121.188879 
L 571.748821 121.188879 
L 573.628255 120.966824 
L 575.507689 120.52359 
L 577.387123 119.860926 
L 579.266557 118.981448 
L 581.145991 117.888627 
L 583.025425 116.586774 
L 584.904859 115.081029 
L 587.72401 112.453326 
L 590.543161 109.403741 
L 593.362312 105.959344 
L 596.181463 102.150706 
L 599.000614 98.011633 
L 602.759482 92.042741 
L 606.51835 85.646156 
L 611.216934 77.203179 
L 616.855236 66.691348 
L 616.855236 66.691348 
" style="fill:none;stroke:#000000;stroke-linecap:square;stroke-width:1.5;"/>
   </g>
   <g id="line2d_128">
    <path clip-path="url(#p974d14b8a5)" d="M 53.964764 8.629593 
L 55.844198 8.740676 
L 57.723632 9.073484 
L 59.603066 9.626706 
L 61.482499 10.398158 
L 63.361933 11.384795 
L 65.241367 12.582723 
L 67.120801 13.987215 
L 69.000235 15.592727 
L 71.819386 18.363838 
L 74.638537 21.548213 
L 77.457688 25.117587 
L 80.276839 29.040277 
L 83.09599 33.281466 
L 86.854858 39.366396 
L 90.613726 45.854371 
L 96.252028 56.116876 
L 112.227217 85.646156 
L 115.986085 92.042741 
L 119.744952 98.011633 
L 122.564103 102.150706 
L 125.383254 105.959344 
L 128.202405 109.403741 
L 131.021556 112.453326 
L 133.840707 115.081029 
L 135.720141 116.586774 
L 137.599575 117.888627 
L 139.479009 118.981448 
L 141.358443 119.860926 
L 143.237877 120.52359 
L 145.117311 120.966824 
L 146.996745 121.188879 
L 148.876179 121.188879 
L 150.755613 120.966824 
L 152.635047 120.52359 
L 154.514481 119.860926 
L 156.393915 118.981448 
L 158.273349 117.888627 
L 160.152783 116.586774 
L 162.032217 115.081029 
L 164.851368 112.453326 
L 167.670519 109.403741 
L 170.48967 105.959344 
L 173.30882 102.150706 
L 176.127971 98.011633 
L 179.886839 92.042741 
L 183.645707 85.646156 
L 188.344292 77.203179 
L 196.801745 61.388425 
L 203.379764 49.21773 
L 208.078349 40.954505 
L 211.837217 34.759542 
L 215.596085 29.040277 
L 218.415236 25.117587 
L 221.234387 21.548213 
L 224.053538 18.363838 
L 226.872688 15.592727 
L 228.752122 13.987215 
L 230.631556 12.582723 
L 232.51099 11.384795 
L 234.390424 10.398158 
L 236.269858 9.626706 
L 238.149292 9.073484 
L 240.028726 8.740676 
L 241.90816 8.629593 
L 243.787594 8.740676 
L 245.667028 9.073484 
L 247.546462 9.626706 
L 249.425896 10.398158 
L 251.30533 11.384795 
L 253.184764 12.582723 
L 255.064198 13.987215 
L 256.943632 15.592727 
L 259.762783 18.363838 
L 262.581934 21.548213 
L 265.401085 25.117587 
L 268.220236 29.040277 
L 271.039387 33.281466 
L 274.798255 39.366396 
L 278.557123 45.854371 
L 284.195424 56.116876 
L 300.170613 85.646156 
L 303.929481 92.042741 
L 307.688349 98.011633 
L 310.5075 102.150706 
L 313.326651 105.959344 
L 316.145802 109.403741 
L 318.964953 112.453326 
L 321.784104 115.081029 
L 323.663538 116.586774 
L 325.542972 117.888627 
L 327.422406 118.981448 
L 329.30184 119.860926 
L 331.181274 120.52359 
L 333.060708 120.966824 
L 334.940142 121.188879 
L 336.819575 121.188879 
L 338.699009 120.966824 
L 340.578443 120.52359 
L 342.457877 119.860926 
L 344.337311 118.981448 
L 346.216745 117.888627 
L 348.096179 116.586774 
L 349.975613 115.081029 
L 352.794764 112.453326 
L 355.613915 109.403741 
L 358.433066 105.959344 
L 361.252217 102.150706 
L 364.071368 98.011633 
L 367.830236 92.042741 
L 371.589104 85.646156 
L 376.287689 77.203179 
L 384.745142 61.388425 
L 391.32316 49.21773 
L 396.021745 40.954505 
L 399.780613 34.759542 
L 403.539481 29.040277 
L 406.358632 25.117587 
L 409.177783 21.548213 
L 411.996934 18.363838 
L 414.816085 15.592727 
L 416.695519 13.987215 
L 418.574953 12.582723 
L 420.454387 11.384795 
L 422.333821 10.398158 
L 424.213255 9.626706 
L 426.092689 9.073484 
L 427.972123 8.740676 
L 429.851557 8.629593 
L 431.730991 8.740676 
L 433.610425 9.073484 
L 435.489859 9.626706 
L 437.369293 10.398158 
L 439.248727 11.384795 
L 441.128161 12.582723 
L 443.007595 13.987215 
L 444.887029 15.592727 
L 447.706179 18.363838 
L 450.52533 21.548213 
L 453.344481 25.117587 
L 456.163632 29.040277 
L 458.982783 33.281466 
L 462.741651 39.366396 
L 466.500519 45.854371 
L 472.138821 56.116876 
L 488.11401 85.646156 
L 491.872878 92.042741 
L 495.631746 98.011633 
L 498.450897 102.150706 
L 501.270047 105.959344 
L 504.089198 109.403741 
L 506.908349 112.453326 
L 509.7275 115.081029 
L 511.606934 116.586774 
L 513.486368 117.888627 
L 515.365802 118.981448 
L 517.245236 119.860926 
L 519.12467 120.52359 
L 521.004104 120.966824 
L 522.883538 121.188879 
L 524.762972 121.188879 
L 526.642406 120.966824 
L 528.52184 120.52359 
L 530.401274 119.860926 
L 532.280708 118.981448 
L 534.160142 117.888627 
L 536.039576 116.586774 
L 537.91901 115.081029 
L 540.738161 112.453326 
L 543.557312 109.403741 
L 546.376463 105.959344 
L 549.195614 102.150706 
L 552.014765 98.011633 
L 555.773632 92.042741 
L 559.5325 85.646156 
L 564.231085 77.203179 
L 572.688538 61.388425 
L 579.266557 49.21773 
L 583.965142 40.954505 
L 587.72401 34.759542 
L 591.482878 29.040277 
L 594.302029 25.117587 
L 597.12118 21.548213 
L 599.940331 18.363838 
L 602.759482 15.592727 
L 604.638916 13.987215 
L 606.51835 12.582723 
L 608.397784 11.384795 
L 610.277217 10.398158 
L 612.156651 9.626706 
L 614.036085 9.073484 
L 615.915519 8.740676 
L 616.855236 8.657371 
L 616.855236 8.657371 
" style="fill:none;stroke:#dc143c;stroke-dasharray:5.55,2.4;stroke-dashoffset:0;stroke-width:1.5;"/>
   </g>
   <g id="patch_3">
    <path d="M 25.82024 126.84601 
L 25.82024 3.00024 
" style="fill:none;stroke:#000000;stroke-linecap:square;stroke-linejoin:miter;stroke-width:0.5;"/>
   </g>
   <g id="patch_4">
    <path d="M 644.99976 126.84601 
L 644.99976 3.00024 
" style="fill:none;stroke:#000000;stroke-linecap:square;stroke-linejoin:miter;stroke-width:0.5;"/>
   </g>
   <g id="patch_5">
    <path d="M 25.82024 126.84601 
L 644.99976 126.84601 
" style="fill:none;stroke:#000000;stroke-linecap:square;stroke-linejoin:miter;stroke-width:0.5;"/>
   </g>
   <g id="patch_6">
    <path d="M 25.82024 3.00024 
L 644.99976 3.00024 
" style="fill:none;stroke:#000000;stroke-linecap:square;stroke-linejoin:miter;stroke-width:0.5;"/>
   </g>
  </g>
 </g>
 <defs>
  <clipPath id="p974d14b8a5">
   <rect height="123.84577" width="619.17952" x="25.82024" y="3.00024"/>
  </clipPath>
 </defs>
</svg>
